<svg xmlns="http://www.w3.org/2000/svg">
<defs>
<font id="UTMLinotypeZapfinoKT" horiz-adv-x="1705" >
  <font-face 
    font-family="UTMLinotypeZapfinoKT"
    font-weight="400"
    font-stretch="normal"
    units-per-em="2048"
    panose-1="2 4 6 3 5 5 6 2 2 4"
    ascent="1638"
    descent="-410"
    x-height="428"
    cap-height="1110"
    bbox="-729 -1126 4942 2045"
    underline-thickness="109"
    underline-position="-359"
    unicode-range="U+0020-2026"
  />
<missing-glyph horiz-adv-x="5040" 
d="M3351 2045h10q37 -10 37 -52q0 -12 -32 -57h-28q0 24 28 54l2 10q-5 13 -10 15h-9q-8 0 -10 -19h-30q6 49 42 49zM2019 2016l29 -31q0 -16 -40 -30h-19l-59 12l-11 -12l-28 25q11 29 43 29h11l42 -11h2q10 0 30 18zM468 1980h142v-60h-94v-75h89v-59h-89v-129l-5 -5h-49
v323zM1155 1980h43l6 -5v-78h30v-52h-30v-188l-6 -5h-49v193h-25v52h25v78zM1621 1980h42l4 -5v-94h3q23 24 54 24h2q58 0 83 -71l2 -39v-143h-52v115q0 80 -42 80h-7q-43 0 -43 -86v-109h-51v323zM2200 1980h49l5 -5v-222q10 -51 45 -51q44 7 44 59v214l5 5h49v-216
q0 -85 -66 -112q-15 -8 -35 -8q-47 0 -82 55q-14 24 -14 57v224zM2435 1980h159v-60h-56v-268h-53v268h-55v55zM2621 1980h71q7 -4 83 -251h2l80 251h73v-328h-54v242h-2l-74 -242h-44q-4 0 -58 182l-19 60h-3v-242h-55v328zM3760 1980h52v-328h-45l-5 5v11l3 2l-3 14
q-29 -40 -78 -40q-67 0 -100 91l-5 39v3q0 94 92 125l23 3q35 0 63 -32h3v107zM2057 1928h36l4 -6v-49h-45v-221h-48v23q-23 -31 -59 -31q-89 14 -89 97v156h51v-104q0 -79 26 -86l18 -5h6q26 0 39 36l3 26v133h53v25zM3476 1928v-55h-31v-221h-47v25h-2q-15 -33 -57 -33
q-68 0 -86 78l-3 29v146h52v-120q0 -50 19 -68l21 -7h9q42 0 42 69v126h27q4 0 4 28l3 3h49zM758 1905q68 0 103 -77q9 -18 12 -54q0 -88 -90 -127l-32 -3q-63 0 -101 73q-12 22 -12 52v10q0 94 101 126h19zM1011 1905h3q74 0 83 -101v-152h-51v119q0 76 -42 76h-5
q-44 0 -44 -76v-119h-52v245h46v-21q30 29 62 29zM1466 1905h7q72 0 105 -89h-60q-16 31 -42 31h-17q-53 -14 -53 -61l-3 -15q12 -69 61 -69h9q22 0 47 27h40l2 3h3l2 -3l2 3l3 -3l2 3l2 -7q-33 -81 -110 -81q-76 0 -110 94l-4 36v3q0 85 77 120q15 8 37 8zM3141 1905h2

<glyph glyph-name=".notdef" horiz-adv-x="5040" 
d="M3351 2045h10q37 -10 37 -52q0 -12 -32 -57h-28q0 24 28 54l2 10q-5 13 -10 15h-9q-8 0 -10 -19h-30q6 49 42 49zM2019 2016l29 -31q0 -16 -40 -30h-19l-59 12l-11 -12l-28 25q11 29 43 29h11l42 -11h2q10 0 30 18zM468 1980h142v-60h-94v-75h89v-59h-89v-129l-5 -5h-49
v323zM1155 1980h43l6 -5v-78h30v-52h-30v-188l-6 -5h-49v193h-25v52h25v78zM1621 1980h42l4 -5v-94h3q23 24 54 24h2q58 0 83 -71l2 -39v-143h-52v115q0 80 -42 80h-7q-43 0 -43 -86v-109h-51v323zM2200 1980h49l5 -5v-222q10 -51 45 -51q44 7 44 59v214l5 5h49v-216
q0 -85 -66 -112q-15 -8 -35 -8q-47 0 -82 55q-14 24 -14 57v224zM2435 1980h159v-60h-56v-268h-53v268h-55v55zM2621 1980h71q7 -4 83 -251h2l80 251h73v-328h-54v242h-2l-74 -242h-44q-4 0 -58 182l-19 60h-3v-242h-55v328zM3760 1980h52v-328h-45l-5 5v11l3 2l-3 14
q-29 -40 -78 -40q-67 0 -100 91l-5 39v3q0 94 92 125l23 3q35 0 63 -32h3v107zM2057 1928h36l4 -6v-49h-45v-221h-48v23q-23 -31 -59 -31q-89 14 -89 97v156h51v-104q0 -79 26 -86l18 -5h6q26 0 39 36l3 26v133h53v25zM3476 1928v-55h-31v-221h-47v25h-2q-15 -33 -57 -33
q-68 0 -86 78l-3 29v146h52v-120q0 -50 19 -68l21 -7h9q42 0 42 69v126h27q4 0 4 28l3 3h49zM758 1905q68 0 103 -77q9 -18 12 -54q0 -88 -90 -127l-32 -3q-63 0 -101 73q-12 22 -12 52v10q0 94 101 126h19zM1011 1905h3q74 0 83 -101v-152h-51v119q0 76 -42 76h-5
q-44 0 -44 -76v-119h-52v245h46v-21q30 29 62 29zM1466 1905h7q72 0 105 -89h-60q-16 31 -42 31h-17q-53 -14 -53 -61l-3 -15q12 -69 61 -69h9q22 0 47 27h40l2 3h3l2 -3l2 3l3 -3l2 3l2 -7q-33 -81 -110 -81q-76 0 -110 94l-4 36v3q0 85 77 120q15 8 37 8zM3141 1905h2
q49 0 70 -60v-14h-52q0 16 -16 16h-4q-14 0 -19 -13v-13q0 -9 68 -35q30 -19 30 -59q0 -58 -61 -80l-23 -3q-76 12 -76 83h54q0 -20 27 -25h4q19 0 24 23q0 22 -68 44q-34 27 -34 59q0 66 74 77zM4203 1905q55 0 77 -63q7 -18 7 -65v-125h-52v112q0 83 -40 83h-11
q-33 0 -40 -54v-141h-52v5h-2l2 2v238h47v-21q25 29 64 29zM4432 1905h5q40 0 69 -40v18l-3 3l3 11h47v-208q0 -97 -85 -132l-33 -4h-7q-70 0 -104 80h59q24 -22 45 -23h13q22 0 43 22q15 13 22 52h-3q-32 -40 -73 -40q-57 0 -96 70q-10 18 -14 63q0 88 87 125zM3851 1897
h53v-136q6 -59 40 -59h7q46 0 46 93v102h51v-245h-47l-3 10h3l-3 3v5l3 2v3h-4q0 -23 -57 -31h-3q-59 0 -84 75l-2 85v93zM690 1771q10 -69 63 -69h7q59 14 59 65v15q-13 65 -59 65h-5q-58 0 -65 -76zM3630 1774q13 -72 61 -72h5q58 0 66 75q0 49 -51 70h-22q-37 0 -56 -57z
M4374 1774q8 -72 65 -72h5q59 12 59 72q0 61 -59 73h-14q-56 -16 -56 -62v-11zM3928 1620h52v-57h-52v57zM1054 1402q43 -11 43 -49v-4q0 -17 -32 -60h-28q0 25 31 57v7q0 12 -7 15h-12q-10 -4 -10 -19h-28v6q0 32 33 44zM3349 1339q92 0 138 -99h-60q-37 42 -80 42
q-55 0 -87 -68q-10 -22 -10 -47q0 -78 81 -110l18 -1q36 0 75 39h61q-44 -97 -138 -97q-93 0 -141 112q-10 31 -10 62q0 97 90 152q29 15 63 15zM3664 1339q57 0 103 -47q46 -51 46 -115v-20q0 -89 -91 -146q-33 -13 -63 -13q-89 0 -138 101q-13 33 -13 60v18q0 98 98 151
q29 11 58 11zM2261 1337h2l47 -11h3q11 0 26 11l18 -36q-18 -19 -35 -19h-3l-54 10l-20 -7l-20 36q18 16 36 16zM716 1334h19q118 0 129 -26q25 -26 25 -62q-10 -57 -30 -57v-6q47 -23 47 -66v-18q0 -63 -69 -88l-54 -5h-67v328zM2550 1334h53v-217q6 -61 45 -61q29 0 44 39
l3 30v203l4 6h45l5 -6v-171q0 -118 -40 -133q-24 -26 -64 -26q-55 0 -91 76l-4 54v206zM2805 1334h59q4 0 122 -237h4v237h50l4 -6v-322h-58q-29 48 -125 238h-3v-238h-53v328zM3101 1334h54v-328h-54v328zM3859 1334h8q155 0 174 -40q23 -11 47 -75l4 -36v-11l3 -2
q0 -94 -82 -149q-35 -15 -99 -15h-55v328zM4141 1334h153v-60h-103v-75h101v-57h-101v-74l4 -5h99v-57h-157v322zM3563 1175v-10q0 -76 79 -108l19 -1q68 0 96 86l3 20v15q0 61 -60 94q-12 8 -39 11q-66 0 -96 -83zM770 1274v-67h9q54 0 54 28l3 14q-11 25 -29 25h-37z
M3912 1274v-206l2 -3v-2q104 0 122 76l2 15v29q0 34 -32 68q-25 23 -78 23h-16zM1041 1259h5q38 0 71 -40v32h49v-245h-49v32q-36 -40 -80 -40q-75 0 -101 97l-5 36q0 89 85 125zM1314 1259h3q74 0 83 -102v-151h-51v128q0 67 -42 67h-10q-34 0 -39 -62v-133h-52v245h47v-21
q28 29 61 29zM1543 1259h5q45 0 71 -40v32h47v-219q0 -95 -104 -126h-16q-74 0 -108 82h59q26 -25 44 -25h14q52 0 64 77q-33 -42 -76 -42q-60 0 -101 81l-7 44v16q0 79 85 117zM1912 1259h2q43 0 61 -37h2q32 37 69 37h4q57 0 79 -55q8 -25 8 -45v-153h-52v138q0 44 -23 55
l-12 2h-15q-32 0 -36 -65v-130h-52v136q0 59 -43 59h-8q-32 0 -36 -57v-138h-54v245h50v-21h2q6 24 54 29zM2282 1259q47 0 75 -42v34h47v-245h-47v32q-36 -40 -78 -40q-74 0 -102 92l-6 41q0 90 85 125zM985 1117q0 -48 61 -61h4q45 0 62 46l3 15v22q-12 62 -57 62h-14
q-41 0 -59 -57v-27zM1487 1128q0 -48 43 -68l18 -4h5q47 0 63 57v23q-11 65 -58 65h-12q-50 0 -59 -73zM2225 1131v-14q15 -61 57 -61h14q58 12 58 64v11q0 45 -37 65l-18 5h-10q-64 -8 -64 -70zM770 1150v-82q0 -5 7 -5q77 0 77 45q0 34 -47 42h-37zM2966 753l24 -28
l-51 -55q-18 12 -27 26zM1524 727l85 -54q0 -15 -21 -42l-87 54q18 41 23 42zM2850 693h38l55 -60h-54l-21 26l-23 -26h-54q54 60 59 60zM3422 693h40l56 -60h-54l-24 26h-1q0 -5 -19 -26h-54zM622 685h52q8 -4 47 -137l34 -110q9 8 34 100l48 147h54v-2l-112 -326h-44z
M1159 685h51v-54h-51v54zM1354 685h46l6 -5v-323h-52v328zM2317 685h45l4 -5v-78h31v-52h-31v-193h-53v193h-26v52h26v78zM2425 685h52v-98h2q23 23 54 23h3q57 0 81 -71l3 -38v-144h-52v115q0 81 -39 81h-10q-42 0 -42 -87v-109h-52v328zM2664 685h52v-54h-52v54zM3028 685
h44l6 -5v-78h29v-52h-29v-193h-54v193h-27v52h27v78zM3234 685h52v-328h-52v328zM3957 685h52v-328h-52v328zM4316 685h51v-54h-51v54zM1555 610h5q83 0 110 -102l3 -23v-11q0 -83 -85 -120l-35 -5q-76 0 -111 97l-4 32q0 97 93 130zM1811 610h4q53 0 78 -60q7 -25 7 -81
v-112h-54v146q-7 50 -37 50h-10q-38 0 -42 -57v-139h-54v245h49v-21q26 29 59 29zM2046 610h4q45 0 63 -39h3v31h49v-206q0 -102 -89 -135l-28 -3h-5q-73 0 -106 81h52l37 -20l15 -3h14q50 0 61 72q-33 -39 -73 -39q-62 0 -98 76q-11 23 -12 60q0 85 86 123zM2866 610h2
q82 0 111 -104l2 -25l-2 -27h-172q15 -45 45 -45l14 -3q29 0 49 22h57v-3q-35 -76 -108 -76q-77 0 -111 97l-1 28v8q0 49 32 89q34 39 82 39zM3429 610h5q41 0 70 -39h2v31h47v-245h-47v31h-2q-35 -39 -77 -39q-71 0 -101 89l-5 36v14q0 86 84 120zM3711 610h7
q88 0 107 -128l-2 -1v-15q0 -65 -66 -106q-21 -11 -46 -11q-34 0 -64 32v-99l-5 -5h-49v325h49v-28q31 36 69 36zM4151 610q44 0 75 -39v31h49v-245h-49v31q-35 -39 -77 -39q-92 0 -108 132q0 84 73 121q15 8 37 8zM922 602h50v-136q3 -60 42 -60h5q44 0 44 87v109h52v-245
h-47v24h-5q0 -23 -56 -32h-3q-55 0 -82 68q-4 35 -4 99v81zM1159 602h51v-245h-51v245zM2664 602h52v-245h-52v245zM4316 602h51v-245h-51v245zM1492 488v-16q13 -66 59 -66h4q59 0 66 76q-13 71 -59 71h-11q-59 -16 -59 -65zM1987 472q15 -66 59 -66h11q48 0 59 75v1
q-13 71 -59 71h-14q-39 0 -56 -57v-24zM2805 506h122v2q-16 45 -59 45h-7q-35 0 -56 -47zM3373 474q13 -68 61 -68h5q52 0 65 63v12q-10 72 -57 72h-16q-56 -14 -56 -63zM3642 478q12 -72 61 -72h3q50 0 65 60v22q0 43 -49 65h-22q-47 0 -58 -72v-3zM4095 472q10 -66 66 -66
q43 0 61 48l2 15v16q0 54 -52 68h-18q-42 0 -59 -60v-21zM3416 321h51v-52h-51v52zM4137 321h51v-52h-51v52zM2733 133h4q35 0 43 -50v-2q0 -16 -24 -41l-10 -17h-28q0 25 28 56l3 2v2q-3 19 -9 19h-10q-8 0 -9 -19h-30q6 50 42 50zM1546 116l52 -60l-26 -19l-52 52zM352 79
h4q75 -48 85 -60l-20 -37q-88 49 -88 58zM3490 79l86 -58l-18 -39q-10 0 -91 55q15 36 23 42zM4578 76l19 -42l-91 -52l-20 39l92 58v-3zM1204 53h51v-19l5 -5h14v-36h-14l-5 -5v-279h-46v31q-34 -40 -81 -40q-72 0 -102 105l-3 26q0 102 101 131h14q33 0 66 -33v59l-6 5
h-43v36h49v24zM1480 45h40l56 -61h-53l-23 27l-23 -27h-53zM2641 45h33q12 0 63 -61h-54l-23 27q-19 -21 -19 -27h-58v4zM49 37h160v-60h-56v-268h-50l-4 5v245l2 3v2l-2 2l2 3l-2 2l2 3l-2 3h-54v54zM699 37h47v-73l2 -2l-2 -3v-3l2 -2l-2 -3v-3l2 -2v-2l-2 -3l2 -3h3
q17 24 51 24h3q53 0 77 -58q7 -17 7 -42v-153h-52v127q0 68 -40 68h-8q-43 0 -43 -86v-109h-52v322zM1297 37h47l5 -6v-49h-52v55zM1987 37h52v-198l70 115h62l-78 -118l90 -125v-2h-70q-10 22 -74 115v-115h-52v328zM2271 37v-99q24 24 53 24q57 0 80 -56q10 -19 10 -77
v-120h-54v133q0 62 -41 62h-11q-31 0 -37 -55v-140h-53v314l-1 3v3l1 2l-1 3l1 3h53zM2458 37h51v-55h-51v55zM3148 37h51v-108q27 33 68 33h3q75 0 105 -94l5 -37q0 -75 -64 -120q-30 -11 -49 -11q-41 0 -72 40v-31h-47v328zM4275 37h52v-99h2q23 24 54 24h3q60 0 82 -74
l2 -41v-138h-52v111q0 82 -32 82l-10 2h-12q-37 0 -37 -80v-115h-52v328zM329 -38h3v-58h-5q-42 0 -42 -57v-138h-53v245h47v-21q18 29 50 29zM564 -38q71 0 86 -87v-166h-51v136q-6 59 -41 59h-6q-45 0 -45 -84v-111h-52v245h50v-21q25 29 59 29zM1504 -38q72 0 105 -94
l5 -39q-2 -24 -7 -24h-169q17 -47 62 -47q24 0 48 21h57q-33 -79 -108 -79q-82 0 -113 105v37q0 81 89 117zM2657 -38h5q77 0 107 -97l3 -26v-21l-3 -13h-170q18 -47 53 -47h12q21 0 42 21h59q-34 -79 -105 -79q-84 0 -115 102l-2 29q0 93 91 128zM2915 -38h4q54 0 78 -60
q7 -25 7 -82v-111h-54v138q0 48 -35 57h-11q-38 0 -43 -57v-138h-54v245h50v-21q25 29 58 29zM3508 -38h6q40 0 70 -40h2v32h47v-245h-47v31h-2q-34 -40 -78 -40q-71 0 -101 90l-4 37v12q0 82 77 117q11 6 30 6zM3781 -38h4q62 0 82 -78l3 -84v-91h-54v138q0 48 -38 57h-9
q-38 0 -42 -52v-143h-54v245h49v-21q26 29 59 29zM4133 -38h1q74 0 104 -93l4 -40q0 -88 -84 -126l-25 -3q-41 0 -68 34v-106h-52v326h47v-29q30 37 73 37zM4714 -38h5q34 0 63 -37q27 37 69 37h6q56 0 79 -66l6 -51v-136h-52v122q0 73 -39 73h-7q-35 0 -41 -50v-140l-5 -5
h-48v140q0 42 -31 55h-17q-40 0 -40 -77v-118h-51v245h47v-21q22 29 56 29zM359 -46h49l5 -6v-234l-5 -5h-49v245zM1297 -46h52v-245h-52v245zM1649 -46h52v-136q4 -60 43 -60h4q44 0 44 81v115h52v-245h-47v24h-5q-12 -33 -59 -33q-52 0 -79 63q-5 12 -5 34v157zM2458 -46
h51v-245h-51v245zM4515 -46h51v-245h-51v245zM1077 -169q0 -53 51 -73h12q54 0 66 66v10q0 53 -54 70h-17q-38 0 -58 -57v-16zM1438 -143h122q-18 47 -53 47h-7q-43 0 -62 -44v-3zM2599 -143h122q-21 47 -54 47h-7q-46 0 -61 -47zM3196 -158v-11q10 -73 61 -73h5q64 8 64 71
v5q0 45 -38 65l-18 5h-14q-60 -14 -60 -62zM3452 -173q14 -69 62 -69h11q41 0 59 60v13q-8 73 -56 73h-17q-47 0 -59 -73v-4zM4062 -158v-22q0 -47 59 -62h9q50 0 61 76q-13 70 -58 70h-15q-56 -17 -56 -62z" />
    <glyph glyph-name=".null" horiz-adv-x="0" 
 />
    <glyph glyph-name="nonmarkingreturn" horiz-adv-x="571" 
 />
    <glyph glyph-name="space" unicode=" " horiz-adv-x="411" 
 />
    <glyph glyph-name="exclam" unicode="!" horiz-adv-x="450" 
d="M661 813q0 -8 -9 -8v0h-4q-22 0 -43 -17q-133 -108 -342 -587q-2 -6 -8 -6q-8 0 -8 8v2q125 356 233 565q33 64 99 64q45 0 76 -13q6 -2 6 -8zM269 59q0 -28 -19 -49.5t-48 -21.5q-39 0 -39 39q0 82 61 82q45 0 45 -50z" />
    <glyph glyph-name="quotedbl" unicode="&#x22;" horiz-adv-x="669" 
d="M872 942q0 -16 -205 -283q-92 -118 -152 -208q-4 -7 -12 -7q-10 0 -10 9q0 2 4 8q73 123 145 248q88 143 160 239q12 17 35 17q35 0 35 -23zM722 952q0 -6 -6 -14q-121 -154 -356 -481q-5 -6 -11 -6q-12 0 -12 12q0 6 4 10q100 166 311 490q13 18 33 18q37 0 37 -29z" />
    <glyph glyph-name="numbersign" unicode="#" horiz-adv-x="673" 
d="M812 795q0 -11 -8 -23q-55 -80 -137 -203q39 2 92 4v0q8 0 8 -6q0 -4 -4 -6q-21 -18 -39 -35q-27 -22 -46 -23t-56 -3l-11 -15q-18 -30 -49 -77q-22 -35 -71 -119h39q71 0 71 -31q-4 -8 -26 -53q-5 -10 -17 -10q27 0 -27.5 8t-84.5 10q-86 -147 -129 -240q-7 -14 -17 -14
q-16 0 -16 18q0 11 8 23q39 61 131 213q-61 0 -127 -8q-88 -152 -129 -246q-10 -25 -23 -25q-20 0 -20 25q0 8 6 18q31 48 139 224q-26 -4 -73 -13h-2q-13 0 -13 9q0 4 11.5 14t13.5 15t10 20q17 20 101 30l63 103q18 29 68 108q-27 -4 -80 -10h-4q-11 0 -11 8q0 11 37 62
q8 12 29 12q-4 0 74 2l100 164q18 29 33 29q10 0 10 -11q0 -6 -4 -12q-68 -96 -117 -170q29 0 127 6l137 215q13 21 25 21q8 0 8 -8zM599 502q-22 -2 -129 -13q-37 -57 -78 -124l-51 -84q53 6 127 8q43 71 131 213z" />
    <glyph glyph-name="dollar" unicode="$" horiz-adv-x="741" 
d="M884 1026q0 -6 -2 -10l-110 -180q14 -29 18 -68v-12q0 -11 -17.5 -42.5t-23.5 -31.5q-10 0 -10 12q0 37 -13 66l-149 -248q53 -18 86 -33q102 -45 102 -143q0 -148 -174 -281q-164 -125 -315 -125h-25q-67 -139 -133 -325q-4 -11 -8 -11q-12 0 -12 29q0 19 4 31
q37 123 123 280q-54 9 -102 34.5t-52 99.5q-4 24 -4 65v2q0 10 8 10q6 0 6 -8q13 -110 174 -147q101 184 269 471q-58 16 -117 33q-72 28 -72 79q0 19 8 41q54 144 164 234q72 57 146 57q65 0 104 -47l76 129q27 45 45 45q6 0 6 -6zM712 784q-43 70 -117 70q-51 0 -94 -35
q-94 -74 -94 -168q0 -84 143 -131l6 -2zM673 293q0 117 -131 162q-164 -279 -262 -469q25 -4 59 -4q127 0 217 71q117 94 117 240z" />
    <glyph glyph-name="percent" unicode="%" horiz-adv-x="1296" 
d="M1363 410q-2 -4 -14 -7l-131 -14q-19 -2 -19 -18q0 -6 2 -20.5t2 -20.5q0 -45 -22 -107q-35 -94 -102 -166q-84 -88 -170 -88q-93 0 -93 99q0 125 142 268q-490 -307 -813 -574q-11 -8 -19 -8h-2q-6 2 -6 6t3 11.5t3 11.5t-2 10v6q0 15 14 27q588 543 824 860
q106 143 106 203q0 80 -121 80q-57 0 -161 -27q-66 -18 -99 -22h-18q-25 0 -37 10q-49 -25 -92 -84q-82 -113 -94 -228v-16q0 -65 49 -65q22 0 53 18q72 43 118 128t46 169v4q0 16 -9.5 33.5l-9.5 17.5q0 8 7 8q2 0 49 -16q28 -10 28 -61q0 -11 -4 -31q-20 -98 -102 -186
q-102 -109 -201 -109q-100 0 -100 86v18q16 121 121 238q49 55 133 84q-6 10 -6 27q0 53 16 53q2 0 14.5 -15.5t38.5 -15.5q41 0 120 11.5t120 11.5q63 0 108 -27q54 -31 54 -90q0 -160 -783 -969v0q250 174 351 240q196 131 360 221q33 21 37 21t6 -7v-2q0 -4 -35 -37
l-43 -41q-35 -38 -64.5 -116t-29.5 -129q0 -76 55 -76q41 0 86 47q107 109 107 264v17q0 18 -30 44.5t-30 45.5l54 35q2 2 8 2q8 0 16 -7q29 -22 111 -30h86q14 0 14 -6z" />
    <glyph glyph-name="ampersand" unicode="&#x26;" horiz-adv-x="1282" 
d="M1179 315q0 -61 -71 -102q-62 -37 -127 -37q-43 0 -68 4q-109 -157 -193 -227q-124 -105 -274 -105q-141 0 -242.5 89.5t-101.5 228.5q0 143 104 254q99 106 244 135q-10 31 -10 68q0 114 83 198t197 84q46 0 85.5 -24.5t39.5 -65.5q0 -45 -51 -88q0 139 -151 135
q-72 -2 -121 -74q-45 -63 -45 -139q0 -43 14 -84q41 6 90 6q129 0 129 -53q0 -29 -51 -45q-37 -10 -74 -10q-88 0 -131 82q-284 -88 -284 -332q0 -133 101 -228.5t237 -95.5q126 0 229 99q29 26 162 198q-70 31 -156 88q-100 68 -141 68q-37 0 -65.5 -25.5t-28.5 -62.5
q0 -47 43 -84q-84 8 -84 53q0 41 36 82q58 64 146 64q69 0 280 -136q107 150 179 150q71 0 71 -68zM1163 315q0 23 -17.5 38.5t-39.5 15.5q-54 0 -160 -144q49 -24 82 -24q41 0 73 22q62 41 62 92zM663 518q-2 45 -119 39q-12 0 -49 -2q51 -78 111 -78q59 0 57 41z" />
    <glyph glyph-name="quotesingle" unicode="'" horiz-adv-x="446" 
d="M671 946q0 -4 -4 -10q-41 -70 -137 -204t-137 -206q-5 -8 -13 -8q-12 0 -12 10q0 7 2 11q78 155 234 413q10 19 32 19q35 0 35 -25z" />
    <glyph glyph-name="parenleft" unicode="(" horiz-adv-x="749" 
d="M939 1038q0 -6 -6 -8q-108 -47 -201 -141q-266 -273 -405 -610q-62 -150 -62 -238t64 -139q4 -4 4 -8q0 -7 -6 -7q-45 0 -86 84q-37 76 -37 127q0 54 23 123q79 248 275 480.5t425 342.5h4q6 0 8 -4v-2z" />
    <glyph glyph-name="parenright" unicode=")" horiz-adv-x="831" 
d="M970 815q0 -100 -72 -254q-102 -221 -256 -397q-188 -217 -381 -273h-6q-8 0 -8 7q0 6 8 8q127 39 248 178q258 295 375 623q43 118 43 196q0 76 -45 119q-4 4 -4 8q0 6 6 6q41 0 69 -94q23 -76 23 -127z" />
    <glyph glyph-name="asterisk" unicode="*" horiz-adv-x="520" 
d="M760 748q0 -21 -29 -27q-59 -12 -188 -45l162 -115q8 -6 8 -16q0 -25 -29 -25q-6 0 -16 8q-2 2 -140 129q-4 -63 -12 -196q0 -15 -35 -19h-6q-18 0 -18 15v6q16 57 55 203q-18 -7 -102 -42.5t-86 -37.5q-19 0 -25 22v4q0 25 25 29q61 10 182 39q-41 31 -162 119
q-12 8 -12 22q0 27 30 27q9 0 15 -6q47 -51 141 -148q10 103 27 205q2 19 35 19h4q16 0 16 -17q0 -6 -4 -16q-23 -70 -59 -193q88 29 180 76q8 4 14 4q29 0 29 -24z" />
    <glyph glyph-name="plus" unicode="+" horiz-adv-x="819" 
d="M405 315v254h61v-254h254v-61h-254v-254h-61v254h-254v61h254z" />
    <glyph glyph-name="comma" unicode="," horiz-adv-x="430" 
d="M326 141q0 -20 -16 -37q-215 -215 -346 -362q-9 -8 -17 -8q-10 0 -10 12q0 10 6 16q129 146 340 428q10 15 23 15q20 0 20 -64z" />
    <glyph glyph-name="hyphen" unicode="-" horiz-adv-x="473" 
d="M577 279q0 -17 -26 -17h-96h-88q-111 -2 -130 -2q-20 0 -20 12q0 19 25 19h2q-11 0 51 -2h41q37 0 109.5 2t109.5 2q22 0 22 -14z" />
    <glyph glyph-name="hyphen" unicode="&#x2010;" horiz-adv-x="473" 
d="M577 279q0 -17 -26 -17h-96h-88q-111 -2 -130 -2q-20 0 -20 12q0 19 25 19h2q-11 0 51 -2h41q37 0 109.5 2t109.5 2q22 0 22 -14z" />
    <glyph glyph-name="period" unicode="." horiz-adv-x="450" 
d="M296 90q0 -27 -33 -63.5t-59 -36.5q-37 0 -37 30v7q0 36 26.5 67t63.5 31q39 0 39 -35z" />
    <glyph glyph-name="slash" unicode="/" horiz-adv-x="753" 
d="M840 1122q0 -6 -664 -1441q-12 -17 -25 -17q-16 0 -16 14q0 21 330 730l334 708q14 21 24 21q17 0 17 -15z" />
    <glyph glyph-name="zero" unicode="0" horiz-adv-x="589" 
d="M575 319q0 -143 -114.5 -254.5t-259.5 -111.5q-111 0 -111 113q0 92 72 206q86 138 241 172h23q10 2 35 23q6 4 16 6v0q6 0 14 -6q35 -29 43 -35q23 -22 32 -44.5t9 -68.5zM506 252q0 57 -25 108q-31 66 -80 66h-2q-67 0 -131 -78q-96 -117 -96 -229q0 -125 86 -125
q106 0 177 75.5t71 182.5z" />
    <glyph glyph-name="one" unicode="1" horiz-adv-x="532" 
d="M508 442l-33 -51q-35 -53 -106 -184q-88 -158 -88 -178v-2q0 -13 24 -13q21 0 64 5.5t63 5.5q21 0 21 -17q0 -12 -31 -16v0l-21 2q-41 4 -75 4q-48 0 -143 -12.5t-142 -12.5h-2q-10 0 -37 19v0q25 16 37 16h4h33q47 -2 39 -2h26q27 2 49 31q62 80 111 168q90 164 90 205
q0 22 -61 22h-4q-62 0 -148 -10h-8q-21 0 -21 14q0 8 23 15v0q51 -2 74 -2h4q65 0 235 6v0q11 -2 23 -9v-4z" />
    <glyph glyph-name="two" unicode="2" horiz-adv-x="563" 
d="M608 57q2 -2 -6 -10q-86 -80 -203 -80h-6q-37 0 -64 6q-116 27 -202 64q-11 4 -17 4q-8 0 -15 -5t-40 -26.5t-37 -21.5q-8 0 -8 6q0 8 10 14q219 135 307 211q78 68 78 131v6q-6 68 -78 68q-18 0 -38 -6q-11 -4 -39 -21l-29 -16q-8 0 -8 10t45 31q12 6 45 20q57 27 82 19
l6 -2q57 -19 70 -27q34 -20 34 -57q0 -53 -73 -113q-121 -96 -226 -160l-4 -4q0 -4 6 -6q177 -82 291 -82q64 0 101 51q2 5 8 5h2z" />
    <glyph glyph-name="three" unicode="3" horiz-adv-x="458" 
d="M434 389q0 -22 -12 -41q-18 -26 -63 -57q-54 -37 -68 -51q0 -2 6 -2q45 -2 72 -36t27 -79v-8q0 -131 -160 -289q-211 -209 -400 -209h-2q-51 0 -88 23q-57 34 -57 141q0 12 8 12q6 0 6 -10v-8q0 -82 146 -94q22 -3 35 -3q124 0 235 70t170 182q25 47 25 107
q0 135 -88 143h-11q-20 0 -39 -14q-4 -4 -10 -4q-8 0 -8 8q0 6 10 12q187 103 187 187q0 65 -66 65q-45 0 -94 -37q-4 -4 -10 -4q-7 0 -7 6q0 7 7 11q82 57 151 57h2q96 0 96 -74v-4z" />
    <glyph glyph-name="four" unicode="4" horiz-adv-x="921" 
d="M879 -37q0 -41 -41 -92q-2 -2 -8 -2q-8 0 -8 6q0 4 6 12.5t6 16.5q0 14 -18 20q-99 33 -293 37q-78 -145 -123 -256q-16 -39 -16 -72q0 -8 2 -22v-4q0 -8 -4 -8h-2q-5 0 -48 63q-14 16 -14 41q0 16 10 37q49 98 123 221q-168 -2 -383 -22q-65 -7 -110 -23q-7 -2 -17 -2
t-10 10v2q0 51 33 62q2 2 80 6q39 4 75 24q258 144 410 279q57 51 57 119q0 12 -7 32.5t-7 28.5t6 15q31 24 62 32q4 2 8 2q24 0 24 -57q0 -82 -120 -182q-154 -127 -396 -277q-6 -4 -6 -6q0 -6 8 -6h2q50 0 149 3t148 3h21q26 43 92 152q78 123 160 194q108 94 135 94
q6 0 8 -6v-4q0 -8 -4 -10q-96 -57 -186 -188q-47 -68 -138 -232q35 0 142 -4q86 -4 139 -4q53 -6 53 -33z" />
    <glyph glyph-name="five" unicode="5" horiz-adv-x="448" 
d="M675 467q0 -10 -76 -55q-39 -23 -100 -29q-9 0 -113 -6q-66 -4 -80 -6q-49 -9 -68 -37q-49 -74 -49 -111v-2q0 -12 17 -33q30 -30 80 -84q28 -38 28 -96v-8q0 -88 -90 -213q-135 -188 -303 -188q-129 0 -129 104q0 29 4 29h2q2 -2 6 -13q19 -55 140 -55h6q157 0 260 131
q63 82 63 144v2q0 73 -125 172q-24 20 -24 51v2q0 27 18 55q129 207 160 221q6 4 16 4h9q26 0 76.5 -5t76.5 -5q84 0 131 10q8 3 33 16t27 13q4 0 4 -6v-2z" />
    <glyph glyph-name="six" unicode="6" horiz-adv-x="684" 
d="M1142 831q0 -16 -6 -32q-4 -8 -8 -8q-4 2 -4 6v2q2 14 2 10q0 74 -131 74h-19q-133 0 -301 -117q-137 -96 -250 -244q-84 -112 -122 -203q124 121 241 121q123 0 123 -108q0 -41 -22 -88q-78 -160 -224 -232q-69 -35 -139 -35q-131 0 -131 129q0 46 16 97q99 311 502 579
q213 142 354 142q119 0 119 -93zM618 354q0 68 -72 68q-143 0 -254 -143q-53 -70 -53 -179q0 -102 76 -102q100 0 201.5 127t101.5 229z" />
    <glyph glyph-name="seven" unicode="7" horiz-adv-x="528" 
d="M700 514q0 -14 -4 -27q-12 -24 -39 -30q-35 -8 -65 -37q-424 -406 -424 -604q0 -60 39 -103q20 -22 41 -22q10 0 10 -4v-2q-2 -4 -8 -7q-35 -14 -78 -14h-17q-59 8 -59 88v2q0 109 160 320q112 149 258 295q4 4 4 6t-6 2h-4q-15 0 -41.5 -2t-40.5 -2h-6q-33 0 -98.5 5
t-98.5 5h-2q-49 0 -66 -23q-24 -34 -84 -120q-2 -4 -10 -7v0q-8 5 -8 9v2q0 -8 186 272q4 6 13 8v0q10 -4 10 -10v-2q0 -8 -8 -17.5t-8 -13.5v-2q0 -8 14 -12q115 -37 250 -37h18q47 0 80 31l55 67q6 9 25 15v0q12 -19 12 -27v-2z" />
    <glyph glyph-name="eight" unicode="8" horiz-adv-x="653" 
d="M823 784q0 -100 -154 -206q-39 -27 -107 -68l9 -14q8 -11 30 -37q47 -64 47 -127q0 -43 -22 -88q-51 -103 -152 -183q-110 -88 -213 -88q-63 0 -104 37t-41 101q0 163 313 342l43 24q-30 53 -30 98q0 62 39 117q114 164 253 164h11q78 -4 78 -72zM755 764q0 59 -61 59
q-21 0 -43 -8q-82 -31 -127 -106q-23 -37 -23 -72q0 -47 49 -113q146 88 191 187q14 30 14 53zM579 260q0 49 -29 100q-24 33 -69 103q-74 -43 -142 -88q-151 -101 -151 -221q0 -62 37.5 -98t99.5 -36q57 0 125 48q59 41 96 94q33 47 33 98z" />
    <glyph glyph-name="nine" unicode="9" horiz-adv-x="632" 
d="M623 326q0 -150 -121 -330q-145 -217 -338 -297q-133 -55 -223 -55h-23q-137 0 -147 69v6q0 9 4 9q6 -2 10 -13q25 -55 129 -55h9q90 0 190 47q158 74 274 238q140 194 140 387q0 104 -99 104h-6q-123 0 -207 -176q-34 -74 -34 -137q0 -62 35.5 -100.5t95.5 -38.5h10
q6 2 10 2h2q12 0 12 -9q0 -4 -14 -8v0q-215 41 -215 160v6q0 68 53 146q47 69 111 112q111 76 199 76h2q141 0 141 -135v-8z" />
    <glyph glyph-name="colon" unicode=":" horiz-adv-x="489" 
d="M427 428q0 -27 -32.5 -63.5t-59.5 -36.5q-37 0 -37 30v7q0 36 26.5 67t63.5 31q39 0 39 -35zM247 90q0 -27 -33 -63.5t-59 -36.5q-37 0 -37 30v7q0 36 26.5 67t63.5 31q39 0 39 -35z" />
    <glyph glyph-name="semicolon" unicode=";" horiz-adv-x="473" 
d="M424 430q0 -29 -30.5 -64.5t-59.5 -35.5q-36 0 -36 30v7q0 36 25.5 67t62.5 31q38 0 38 -35zM279 139q0 -20 -14 -35q-215 -215 -346 -362q-9 -8 -17 -8q-10 0 -10 12q0 10 6 16q129 146 340 428q10 15 23 15q18 0 18 -66z" />
    <glyph glyph-name="less" unicode="&#x3c;" horiz-adv-x="514" 
d="M566 467q-133 -105 -280 -219q-19 -15 -19 -29q0 -41 80 -239q2 -5 4 -13q0 -4 -14 -6q-66 -12 -47 -12q-10 0 -14 16q-19 68 -68 232v4q0 10 14 18q2 2 78 62q252 200 258 200q8 0 8 -10v-4z" />
    <glyph glyph-name="equal" unicode="=" horiz-adv-x="700" 
d="M577 279q0 -17 -26 -17h-96h-88q-111 -2 -130 -2q-20 0 -20 12q0 19 25 19h2q-11 0 51 -2h41q37 0 109.5 2t109.5 2q22 0 22 -14zM577 96q0 -17 -26 -17h-96h-88q-111 -2 -130 -2q-20 0 -20 12q0 19 25 19h2q-11 0 51 -2h41q37 0 109.5 2t109.5 2q22 0 22 -14z" />
    <glyph glyph-name="greater" unicode="&#x3e;" horiz-adv-x="460" 
d="M472 233q0 -12 -8 -18q-156 -119 -293 -260q-16 -16 -33 -16q-16 0 -16 10q0 6 12 16q129 98 260 219q15 13 15 23q0 6 -7.5 16t-129.5 213q-5 6 -5 13q0 6 11 8q55 10 43 10q14 0 22 -14q43 -78 125 -207q4 -6 4 -13z" />
    <glyph glyph-name="question" unicode="?" horiz-adv-x="718" 
d="M794 735q0 -147 -239 -319q-53 -37 -184 -133q-87 -66 -87 -174q0 -76 62 -105q20 -10 20 -31q0 -16 -17 -41.5t-34 -25.5q-45 0 -45 51q0 8 2 26.5t2 26.5q0 127 -47 205q-6 8 -6 16q0 9 6 19q45 67 205 172q209 137 235 160q97 80 97 172q0 137 -181 137
q-77 0 -169.5 -43t-151.5 -103q-2 -2 -6 -2q-6 0 -6 5q0 -13 22 47q4 16 35 39q107 79 254 79q233 0 233 -178z" />
    <glyph glyph-name="at" unicode="@" horiz-adv-x="1191" 
d="M1347 686q0 -102 -67 -217q-150 -256 -383 -256q-111 0 -111 90q0 62 60 191q-213 -265 -301 -265q-35 0 -35 45q0 37 26 97q48 102 127 188q90 98 185 125q43 12 90 12q43 0 71 -10q7 -2 7 -8q0 -10 -9 -16q-22 -17 -45 -58q-59 -108 -94 -207q-12 -35 -12 -65
q0 -92 92 -92q51 0 115 34q172 97 215 351q6 37 6 57q0 119 -84 184q-78 60 -201 60q-213 0 -418 -152q-231 -170 -301 -412q-20 -71 -20 -139q0 -139 85 -221t224 -82q195 0 373 141q96 76 106 132q2 8 7 8h2q4 -2 4 -8v-5q-11 -51 -62 -100q-215 -203 -461 -203
q-75 0 -143 23q-217 72 -217 291q0 88 41 176q109 237 321 397q228 172 478 172q34 0 57 -2q119 -12 193 -72q79 -69 79 -184zM942 676q-10 2 -25 2q-53 0 -92 -33q-151 -125 -233 -319q-8 -19 -8 -33q0 -19 14 -19t35 19q120 108 247 282q41 56 62 101z" />
    <glyph glyph-name="A" unicode="A" 
d="M1689 72q-37 -37 -110.5 -76t-118.5 -39q-62 2 -72 88q-2 66 -2 133q-2 101 6 197q-84 -8 -221 -10h-82l-6 -7q-121 -125 -238 -219q-233 -190 -436 -186q-123 2 -203 72q-86 73 -92 194q-4 62 32 163t81 134l6 2l6 -2q0 2 -34 -74.5t-34 -126.5q-2 -137 91 -213
q81 -69 223 -71q160 -2 319 104q111 74 256 230q-10 2 -22 6q-4 12 6 20q2 4 41 0q221 256 411 572l48 77q63 107 116 107q41 0 39 -74q-26 21 -43 21q-86 4 -114.5 -141.5t-42.5 -264.5q-23 -182 -23 -383q0 -289 72 -289q26 0 135 70zM1486 918q-200 -322 -381 -529l49 -2
l240 8q16 150 33 250q26 164 59 273z" />
    <glyph glyph-name="B" unicode="B" horiz-adv-x="1626" 
d="M1552 401q0 -174 -238.5 -335.5t-459.5 -161.5h-2q-131 0 -227 71q-19 15 -37 115v4q0 8 4 8q8 0 12 -10q10 -20 43 -43q119 -86 287 -86q289 0 440 197q74 96 74 209q0 145 -125 188q-78 27 -145 27q-19 0 -51.5 -9.5t-47.5 -9.5q-10 2 -10 6t27 39q8 11 24 15
q86 8 160 61t111 131q16 35 16 72q0 164 -277 172q-6 -8 -32 -45q-76 -107 -131 -211q-84 -158 -232 -412q-188 -321 -348 -456q-4 -5 -10 -5t-6 11v4q2 8 2 22q0 33 -37 111q-19 37 -55 110q-66 144 -66 267q0 205 199 385q92 84 241 147q144 62 275 78q114 14 200 16
q189 224 306 224q82 0 82 -70q0 -6 -5 -6q-4 2 -6 6q-10 35 -61 35q-133 0 -297 -189h12q342 0 342 -155q0 -58 -47 -115q-82 -98 -219 -172q-6 -4 -6 -6q2 -2 8 -2q125 0 211 -51q102 -64 102 -181zM1112 1063h-16q-232 0 -437 -90q-385 -170 -385 -455q0 -117 74 -291
q23 -53 90 -170q8 -14 21 -14q12 0 24 14q115 136 215 334q211 418 367 615q10 14 47 57z" />
    <glyph glyph-name="C" unicode="C" horiz-adv-x="1374" 
d="M1380 1008q0 -9 -8 -17q-35 -37 -61 -141q0 -4 -2 -10h-7q-4 2 -4 8t2 19.5t2 19.5q0 86 -100 131q-78 35 -174 35q-270 0 -512 -242q-231 -231 -231 -508q0 -211 111.5 -326.5t320.5 -115.5q233 0 440 205q162 159 162 282v25q-2 4 -2 8q-2 6 0 6h2q6 -2 12 -10
q27 -35 27 -72q0 -29 -17 -61q-78 -156 -231 -267q-219 -155 -485 -155q-201 0 -322 108q-127 115 -127 312q0 315 322 594q139 120 303 196q188 88 348 88t223 -94q8 -12 8 -18z" />
    <glyph glyph-name="D" unicode="D" horiz-adv-x="1779" 
d="M1746 514q0 -201 -161 -367q-150 -155 -355 -202q-114 -27 -243 -27q-258 0 -469 98q-138 -84 -252 -84q-160 0 -160 150q0 68 41 170q18 49 37 96q6 19 18 19q13 0 25 -15q155 -188 332 -286q88 65 153 151q121 158 232 379q49 98 166 338h-33q-234 0 -387 -84
q-66 -35 -140 -115q-86 -94 -86 -153q0 -4 9 -21q0 -6 -9 -6l-30 18q-41 25 -41 43q0 7 4 17q37 100 151 178q207 139 527 139h43q69 144 114 197q74 88 189 123h4q6 0 6 -4q0 -6 -8 -9q-70 -14 -121 -112q-25 -47 -102 -201q182 -18 317 -90q168 -88 215 -236
q14 -45 14 -104zM1677 543q0 209 -215 313q-115 55 -271 72q-43 -78 -122 -226q-220 -401 -406 -575q-39 -37 -86 -70q223 -118 449 -118q309 0 493 208q68 78 113 187.5t45 208.5zM499 25q-178 86 -311 235q-4 4 -8 4q-8 0 -13 -8q-26 -59 -26 -104q0 -80 78 -142
q47 -37 114 -37q80 0 166 52z" />
    <glyph glyph-name="E" unicode="E" horiz-adv-x="1476" 
d="M1449 444q0 -141 -180 -309q-192 -178 -446 -268q-156 -55 -307 -62q-43 -77 -60 -139q-2 -10 -12 -10t-10 10q0 2 2 4q22 68 57 133h-6q-246 0 -359 129q-61 72 -61 162q0 271 424 416q102 35 213 84q43 27 43 61q0 21 -66 138q-22 38 -22 75q0 47 29 82q88 105 299 174
q81 27 163 27h9q90 0 143 -45q25 -21 25 -53q0 -47 -72 -115q-4 -4 -12 -4q-7 0 -7 6q0 4 5 8q20 23 20 45q0 29 -29 54q-67 57 -178 57q-88 0 -170 -35q-135 -57 -135 -156q0 -61 55 -137q37 -51 37 -92q0 -78 -186 -137l-115 -37q-104 -37 -203 -100q-161 -103 -161 -277
q0 -172 151 -248q82 -41 184 -47q101 176 275 351.5t352 281.5q103 61 195 70h18q98 0 98 -97zM1357 369v14q0 102 -90 102q-31 0 -76 -16q-120 -45 -370 -274q-176 -164 -289 -359h16q127 0 267 49q268 95 430 273q112 123 112 211z" />
    <glyph glyph-name="F" unicode="F" horiz-adv-x="1437" 
d="M1994 938q0 -6 -4 -10q-92 -119 -205 -119q-92 0 -182 76q-37 33 -125 105.5t-184 72.5q-115 0 -232 -102q-96 -87 -155 -205q-74 -146 -74 -303q0 -193 104 -340q72 80 140 186q14 23 53 86q-43 -2 -109 -2h-26q-15 0 -15 8q0 21 45 41q23 10 138 12q129 234 235 461
q12 19 27 25h4q8 0 8 -8q0 -4 -4 -15q-72 -184 -236 -463l275 7q20 0 20 -7q0 -14 -121 -34q-112 -19 -208 -23q-17 -27 -58 -94q-61 -98 -153 -197q127 -164 262 -164q24 0 45 7h4q8 0 8 -9q0 -8 -10 -10q-29 -6 -84 -12h-19q-153 0 -253 139l-7 -6q-215 -215 -465 -215
q-141 0 -249 86q-70 55 -70 172q0 55 18 113q45 141 72 141q6 0 6 -8l-30 -64q-31 -63 -31 -100q0 -68 47 -131q104 -139 311 -139q209 0 385 170q-90 139 -90 342q0 200 103.5 383.5t275.5 271.5q80 41 170 41q94 0 170 -47q59 -47 217 -162q53 -37 107 -37q71 0 133 80
q4 6 10 6t6 -6z" />
    <glyph glyph-name="G" unicode="G" horiz-adv-x="1447" 
d="M1549 993q0 -108 -235 -325q-84 -78 -174 -148q-62 -112 -187 -340q221 77 389 22q15 -4 15 -12t-13 -8q-109 32 -217 19q-83 -10 -188 -45q-107 -185 -176 -287q-246 -361 -459 -475q-113 -62 -233 -62q-95 0 -160 39q-80 45 -80 133q0 248 547 478q180 75 457 161
q79 142 165 277q-335 -230 -571 -230q-88 0 -149 39q-74 47 -74 129q0 78 61 185q142 248 413 407.5t554 159.5q192 0 192 -94q0 -8 -6 -8t-8 4q-49 75 -211 75q-100 0 -190 -26q-195 -57 -385 -225q-230 -201 -316 -443q-16 -45 -16 -80q0 -77 82 -96q37 -8 69 -8
q226 0 580 252q57 92 137 203q170 239 305 344q29 22 52 22q30 0 30 -37zM1531 995q0 15 -14 15q-15 0 -33 -15q-131 -102 -320 -430q246 205 357 402q10 18 10 28zM822 121q-526 -164 -721 -309q-182 -138 -182 -295q0 -78 51 -119t129 -41q248 0 502 387q59 90 221 377z
" />
    <glyph glyph-name="H" unicode="H" horiz-adv-x="1759" 
d="M2164 1067q0 -37 -28 -90q-76 -146 -318 -254q-94 -43 -241 -94q-166 -289 -166 -451q0 -174 162 -174q34 0 90.5 19.5t66.5 19.5q8 0 8 -8q0 -6 -8 -10q-164 -64 -256 -64q-170 0 -170 168q0 51 25 127q55 170 158 344l-5 -2q-73 -37 -213.5 -78t-193.5 -63
q-23 -11 -57 -27q-193 -315 -437 -448q-4 -19 -12 -58v-30q0 -99 51 -179q62 -92 154 -92q8 0 22 2h9q10 0 10 -4q0 -14 -58 -14q-67 0 -118 33q-103 65 -103 213q0 57 15 112q-111 -55 -220 -55q-79 0 -141 31q-133 67 -133 221q0 26 6 74q2 14 8 14t6 -10q0 -7 -2 -18
t-2 -17q0 -72 70 -135q92 -82 262 -82q86 0 162 26q92 246 395 408l152 254q86 143 135 252q2 4 2 12q0 10 -10 12q-39 4 -64 4q-282 0 -418 -190q-110 -158 -112 -295q0 -18 -8 -18q-11 0 -11 34q0 152 136 318q127 153 276 211q90 35 227 35h21q10 6 22 12l23 39
q8 0 8 -10q0 -2 -2 -5q-168 -397 -307 -630q100 45 467 164q241 401 497 497q50 19 89 19q79 0 79 -70zM2085 1053q0 51 -48 51q-182 0 -448 -453q115 39 203 80q247 115 288 287q5 16 5 35zM944 391q-271 -155 -350 -366l4 2q219 108 344 360z" />
    <glyph glyph-name="I" unicode="I" horiz-adv-x="935" 
d="M1126 1110q8 -10 -7 -23q-112 -88 -206 -229q-46 -67 -189 -348l-98 -193q-103 -202 -189 -274q-100 -84 -229 -82q-98 2 -166 51q-6 4 -4 13q2 6 12 0q56 -37 133 -37q160 0 283 211l92 157l264 439q86 129 187 223q-70 -37 -160 -37q-45 0 -132 8t-132 8
q-94 0 -158 -71q-39 -47 -88 -160q-4 -10 -12 -6q-8 6 -4 16q49 131 84 193q71 116 157 116q27 0 179 -30q100 -21 180 -21q43 0 82 10q24 7 100 62q14 10 21 4z" />
    <glyph glyph-name="J" unicode="J" horiz-adv-x="1204" 
d="M1453 1176q-2 0 -21 -19q-4 -6 -14 -16q-31 -37 -86 -131l-84 -144q-64 -108 -338 -522q-27 -39 -94 -139q43 -37 75 -64q7 -4 7 -8q0 -6 -17 -10l-26 -6q-21 -8 -31 -8q-19 0 -53 28q-25 -35 -86 -123q-236 -323 -443 -444q-112 -66 -252 -66q-82 0 -135 27q-16 8 -18 8
q-6 0 -29 -22q-4 -4 -10 -4q-10 0 -17 8q-59 90 -59 239q0 80 23 111q32 47 40 47q7 0 7 -10v-2q-7 -27 -7 -70q0 -268 179 -299q24 -4 59 -4q236 0 467 272q147 172 260 351q-194 182 -194 346q0 106 69 207q62 90 162 149q84 51 225 107q197 77 232 94q16 8 73 80
q19 22 43 30q48 15 82 15v0q11 0 11 -8zM1244 1018q0 8 -6 8q-5 0 -15 -4q-84 -35 -174 -66q-166 -57 -254 -110q-160 -98 -190 -221q-11 -41 -11 -70q0 -141 199 -330q141 226 240 408l207 375q4 6 4 10z" />
    <glyph glyph-name="K" unicode="K" horiz-adv-x="1884" 
d="M2194 1004q0 -31 -15 -68q-6 -14 -12 -14t-6 8q0 6 7 25.5t7 31.5q0 80 -137 80q-244 0 -528 -168q-191 -113 -508 -364q-2 -3 -8 0q-7 0 -7 -9q0 -4 2 -12q41 -190 129 -381q109 -233 330 -233q123 0 246 73q2 2 6 2q8 0 8 -6t-6 -10q-147 -90 -309 -90q-221 0 -342 188
q-82 131 -129 392q-2 10 -8 10q-2 0 -6 -2q-148 -236 -312 -389q-227 -211 -436 -211q-61 0 -109 22q-61 27 -61 82v2q0 10 6 10t8 -12q9 -82 156 -82q172 0 328 129q235 197 409 500q76 139 279 504q-35 -11 -137 -13q-78 -2 -220 25q-149 29 -221 31q-73 2 -112 -8
q-47 -17 -86 -66q-48 -61 -52 -211q0 -8 -6 -16q-8 0 -10 75q-2 142 80 227t221 87q43 0 295 -45q195 -35 258 -37q16 0 53 47q4 8 8 8q5 -2 9 -6q4 -6 -9 -23q-106 -219 -286 -565q258 228 534 404q338 217 535 217q164 0 164 -139z" />
    <glyph glyph-name="L" unicode="L" horiz-adv-x="1994" 
d="M1908 434q0 -237 -141.5 -386.5t-376.5 -149.5q-41 0 -90 8q-254 43 -660 207q-145 -144 -309 -144q-21 0 -53 4q-240 31 -240 271q0 141 47 141q6 0 14 -4q185 -98 412 -193q62 -24 131 -49q47 54 86 113q58 96 207 338q219 358 463 479q74 37 147 37q117 0 117 -78
q0 -10 -18.5 -25.5t-22.5 -23.5q-16 -23 -22 -23q-5 0 -9 11q-41 90 -131 90h-6q-127 0 -313 -242q-74 -94 -230 -342q-141 -225 -249 -340q354 -121 594 -137q59 -4 88 -4q307 0 448 158q100 112 100 268q0 119 -59 203q-4 6 -4 8q0 4 4 4t8 -4q68 -66 68 -195zM624 121
q-94 37 -320 135q-116 51 -139 51q-49 0 -49 -112q0 -207 217 -207q162 0 291 133z" />
    <glyph glyph-name="M" unicode="M" horiz-adv-x="2172" 
d="M1290 1022q0 -14 -13 -29.5t-28 -17.5l-317 -27q-127 -10 -213 -30q-133 -31 -133 -144v-12q0 -43 20 -86q4 -8 4 -12q0 -7 -20.5 -17t-22.5 -11t-8 -1q-31 0 -31 80q0 86 74 153q61 58 154 88q260 86 489 86q45 0 45 -20zM2179 1120q0 -12 -12 -24q-58 -58 -138 -121
q-57 -45 -96 -107q-260 -405 -260 -714q0 -39 2 -64q8 -98 92 -98q29 0 68 14q100 39 185 176t85 250q0 119 -98 189q-4 2 -4 8v2q0 2 2 2q6 0 12 -4q101 -58 101 -207q0 -109 -48 -205q-79 -166 -239 -235q-66 -29 -119 -29q-135 0 -135 156q0 34 8 75q49 242 201 486
q57 88 170 268q0 2 -2 2t-4 -2q-162 -96 -353 -250q-243 -196 -397 -350q-20 -117 -68 -227q-67 -162 -149 -162q-41 0 -41 47q0 98 160 268l41 41q2 21 2 70v43q0 45 -11 338v10h-2q0 -2 -6 -10l-147 -221q-170 -254 -289 -379q-211 -222 -395 -222q-35 0 -78 9
q-170 32 -170 245q0 62 12 62q8 0 8 -10v-4q-4 -19 -4 -35q0 -181 222 -181q200 0 401 189q129 121 289 356q84 125 151 244q11 18 11 33v4q-3 12 -3 16q0 21 17 39q31 35 57 43h4q6 0 6 -14v-182q0 -279 -14 -379q74 73 148 141q237 217 518 428q135 100 207 170
q28 27 73 27q29 0 29 -15zM1141 276q-160 -176 -160 -272q0 -35 22 -35q37 0 76 80q49 103 62 227z" />
    <glyph glyph-name="N" unicode="N" horiz-adv-x="1568" 
d="M1806 942q0 -61 -34 -149q-6 -15 -13 -15q-8 0 -8 10q0 7 14.5 43.5t14.5 59.5q0 67 -115 67q-69 0 -235 -20q77 -96 77 -211q0 -186 -219 -485q-88 -119 -186 -207q-137 -123 -240 -123q-125 0 -125 215q0 27 -3 105.5t-3 134.5q2 102 -6 366q-6 94 -57 94
q-33 0 -90 -61q-203 -215 -391 -535q-123 -208 -197 -387q-43 -104 -43 -182v-16q0 -11 -6 -11q-13 0 -31 95q-2 10 -2 18q0 29 16 68q101 243 367 618q225 318 367 459q53 53 90 53q53 0 53 -139q0 -57 -2 -171t-2 -171q0 -129 4 -199q8 -129 22 -184q33 -117 113 -117
q45 0 98 39q121 90 232 264q186 297 186 518q0 93 -43 150q-98 -12 -153 -12q-101 0 -164 37q-33 18 -33 47q0 53 123 53q127 0 215 -86l147 33q86 18 150 18q112 0 112 -84zM1376 971q-65 53 -170 53q-106 0 -104 -37t98 -37q64 0 176 21z" />
    <glyph glyph-name="O" unicode="O" horiz-adv-x="1445" 
d="M1544 838q-2 -70 -16 -125q-64 -234 -342 -498q-142 -133 -318 -217q-196 -94 -370 -92q-150 2 -250 69q-115 80 -115 222q0 194 223 462q58 70 201 195q162 143 217 158q10 4 14 0q2 -4 -2 -13q-84 -45 -213 -170q-118 -112 -184 -202q-147 -203 -150 -391
q0 -130 89 -209q81 -76 215 -80q151 -4 333 86q164 80 287 198q113 109 191 250q102 185 100 348q-2 119 -67.5 198t-180.5 81q-110 2 -194 -53q-97 -64 -97 -170q0 -58 29 -88q-104 2 -104 86q0 35 36 80q146 174 373 174q139 0 218 -80t77 -219zM1255 1141z" />
    <glyph glyph-name="P" unicode="P" horiz-adv-x="1269" 
d="M1313 834q6 -191 -177 -336q-168 -136 -364 -140q-55 -2 -109 17q-67 22 -84 65q-125 -250 -166 -299q-16 -20 -98 -82l209 7q147 4 246 55q8 2 8 -6q0 -11 -8 -13q-90 -61 -172 -79q-45 -11 -254 -29.5t-242 -11.5q-6 2 -6 10q0 39 37 59q10 6 77.5 5t73.5 3
q74 39 291 424l283 512l-238 -49q-149 -31 -239 -33q-187 -6 -191 97q-2 39 58 139q4 2 10 6q4 -2 6 -4q-14 -33 -14 -68q0 -57 84 -84q59 -18 129 -16q211 8 411 37q58 143 119 184q21 15 31 13q16 -3 20 -37q-92 -33 -147 -158q55 8 108 10q301 10 308 -198zM1204 774
q-2 227 -256 230q-14 0 -64 -5l-303 -550q62 53 76 51l37 -49q45 -50 150 -50q143 0 252.5 114t107.5 259z" />
    <glyph glyph-name="Q" unicode="Q" horiz-adv-x="1431" 
d="M1833 -84q-12 -59 -55 -109q-82 -94 -269 -94q-174 0 -444 84q-516 160 -809 160q-66 0 -105 -18q-30 -15 -86 -64q-4 0 -12 8q-4 11 4 21q111 121 248 121q29 0 87 -3.5t87 -3.5q322 0 555 205q242 215 242 533q0 121 -66.5 194.5t-185.5 73.5q-164 0 -336 -106
q-315 -195 -315 -523q0 -262 172 -317l-2 -6h-11q-112 18 -178.5 94t-66.5 188q0 226 208 443q115 121 277 192.5t324 71.5q131 0 210.5 -76t79.5 -207q0 -162 -98 -325q-90 -150 -229 -254q-148 -111 -318 -162q-96 -29 -280 -39q63 -4 252 -39q122 -22 383 -90
q323 -84 479 -84q137 0 190 53q27 27 56 84q4 4 10 4t2 -10z" />
    <glyph glyph-name="R" unicode="R" horiz-adv-x="1476" 
d="M1798 -84q-104 -94 -188 -133q-100 -47 -225 -45q-254 4 -422 287q-123 206 -176 510q479 90 479 329q0 90 -105 140q-82 36 -184 36q-10 0 -57 -4q-207 -418 -498 -860q-33 -49 -76 -78q-4 -2 -88 -49h84q182 0 240 57q4 -4 6 -12q-23 -26 -45 -55q-29 -29 -60 -41
q-22 -4 -77 -10q-31 0 -92.5 6t-92.5 6q-125 0 -215 -35q-12 -4 -12 2t6 10q57 48 107 60q43 4 120 18q39 13 86 60q101 100 302 442q92 158 274 475q-164 -26 -317 -92q-232 -98 -230 -215q0 -14 35 -59q4 -4 2 -9q-2 -6 -8 -4q-117 21 -119 86q0 27 31 66q69 86 289 166
q186 67 333 84l31 53q62 106 64 111q53 75 96 75t51 -55q2 -16 -2 -16q-6 8 -37 14q-47 -6 -86 -47q-14 -14 -57 -82q-4 -6 -29 -51q53 6 82 6q348 0 348 -195q0 -147 -180 -241q-98 -52 -309 -105q204 -739 610 -739q113 0 295 158q20 8 20 -13q0 -6 -4 -12z" />
    <glyph glyph-name="S" unicode="S" horiz-adv-x="1314" 
d="M1498 1151q0 -16 -17 -31q-55 -47 -139 -110q-14 -11 -164 -117v-31q0 -26 10.5 -130.5t10.5 -184.5v-47q0 -162 -41 -260q-140 -332 -500 -332q-109 0 -203 35q-178 65 -205 290q-122 -108 -260 -280q-166 -207 -233 -391q-39 -105 -39 -178q0 -48 20 -89q25 -51 68 -51
q10 0 10 -10v0q0 -10 -8 -10h-2q-66 6 -100 98q-27 72 -27 152q0 75 29 151q94 246 368 490q70 61 172 143q-2 31 -2 29q0 63 19 94q37 72 123 209q6 8 12 8q8 0 8 -8q0 -2 -26.5 -46t-30.5 -52q-31 -74 -31 -148l2 -27q275 218 553 394q143 92 238 155q30 127 120 217
q119 119 205 119q60 0 60 -51zM1410 1110q0 31 -48 31q-36 0 -69 -27q-101 -80 -113 -201q230 160 230 197zM1109 362v29q0 53 -5.5 156.5t-5.5 157.5q0 83 11 139q-119 -82 -224 -148q-258 -161 -561 -401q6 -49 23 -98q86 -267 333 -267q203 0 316 115t113 317z" />
    <glyph glyph-name="T" unicode="T" horiz-adv-x="1337" 
d="M1788 1202q-70 -151 -199 -205q-98 -41 -291 -41q-301 -663 -567 -956q-84 -92 -158 -137q-104 -64 -241 -66q-121 -2 -217.5 79t-100.5 200q-4 108 57 200q11 5 15 3q8 -5 4 -15q-35 -80 -35 -135q0 -119 111 -186q94 -58 219 -56q194 2 338 144q92 92 288 438
q152 268 259 487q-334 0 -463 -28q-267 -58 -353 -258q-28 -68 -28 -142q0 -94 26 -190l-12 -4q-29 31 -70 51q-6 33 -6 90q-2 100 66 213q164 277 358 326q121 30 512 30l72 140q12 10 18 10q17 0 13 -12l-68 -138q135 0 195 13q170 35 237 155q10 5 17 2q4 -2 4 -12z" />
    <glyph glyph-name="U" unicode="U" horiz-adv-x="1794" 
d="M1818 252q-198 -342 -401 -342q-125 0 -125 143q0 129 107 439l-60 -84q-86 -121 -209 -240q-190 -182 -372 -182q-84 0 -140.5 50t-56.5 132q0 141 121 324q94 141 383 430q-203 -13 -309 -25q-179 -20 -304 -63q-235 -80 -299 -302q-2 -8 -10 -8t-8 8q147 476 1014 476
q20 14 35 24q8 6 12 2t4 -8q0 -6 -4 -14q-543 -457 -543 -799q0 -78 49 -125t127 -47q115 0 279 139q61 53 170 182q114 140 139 201q98 240 197 420q61 113 127 113q32 0 30 -35q-2 -33 -12 -53q-92 12 -125 -35q-6 -8 -96 -230q-57 -141 -103 -307q-55 -200 -55 -315
q0 -152 90 -156q142 -6 336 299q8 6 12 4q5 -4 0 -16z" />
    <glyph glyph-name="V" unicode="V" horiz-adv-x="1587" 
d="M1710 932q0 -201 -211 -420q-158 -162 -385 -295l-144 -84q-116 -67 -248 -233l-34 69q94 123 129 199q92 199 84 405q-7 142 -96 239t-228 97q-111 0 -211 -73q-68 -50 -160 -158l-14 6q207 315 455 313q143 -2 231 -95t88 -238q0 -256 -168 -592q76 47 172 96t131 70
q326 188 457 415q68 117 68 209q0 74 -33 125q-37 60 -107 60q-26 0 -75 -13l-9 15q93 55 152 55q72 0 114 -50t42 -122z" />
    <glyph glyph-name="W" unicode="W" horiz-adv-x="2320" 
d="M2466 918q0 -121 -96 -271q-160 -248 -388 -373q-4 -2 -10 -2t-6 4q0 7 8 11q215 123 361 370q96 164 96 279q0 178 -227 221q-131 25 -344 25q-99 0 -183 -6q-4 0 -4 -2q2 -3 6 -3q154 -16 205 -108q55 -100 55 -234q0 -208 -153 -501q-98 -189 -225 -314
q-166 -164 -338 -164q-107 0 -164 74q-49 68 -51 178q0 74 -9 244q-6 90 -61 90q-39 0 -92 -53q-101 -107 -201 -213q-139 -143 -209 -182q-33 -19 -65 -19q-72 0 -72 86q0 105 154 353q98 159 311 428q45 55 80 122q2 3 2 7q-2 4 -8 4h-2q-148 0 -338 -51
q-318 -87 -392 -246q-26 -58 -26 -119q0 -70 35 -131q10 -19 10 -27q0 -24 -31 -24q-16 0 -26 20q-25 53 -25 121q0 92 43 162q223 364 803 379q6 0 15 3t13 3q9 0 9 -12q0 -5 -115 -179q-383 -581 -440 -813q-4 -16 -4 -37q0 -26 18 -26q14 0 41 16q45 29 199 182
q127 127 168 166q100 95 176 156q30 25 55 25q39 0 47 -93q2 -16 2 -118v-7q0 -434 211 -434q203 0 397 344q168 297 168 611q0 282 -184 315q-35 6 -66 6q-8 0 -98 -10q-18 -2 -35 0q-18 2 -18 16q0 47 61 52q84 6 183 6q297 0 516 -47q258 -56 258 -260z" />
    <glyph glyph-name="X" unicode="X" horiz-adv-x="1318" 
d="M1404 1130q-10 -88 -266 -296l-336 -267q-29 -260 -29 -323q0 -215 154 -215q119 0 256 96q4 2 8 -2q6 -8 -12 -19q-178 -131 -342 -131q-72 0 -113 49.5t-41 122.5q0 111 39 363q-293 -213 -352 -264q-242 -203 -238 -328q2 -39 54 -98q-2 -8 -9 -4q-102 65 -108 71
q-37 27 -37 60q0 55 96 149q148 146 596 447q6 69 17 235q8 232 -144 240q-92 6 -239 -80q-2 0 -9 4q-4 4 7 8q178 133 301 133q170 0 170 -231q0 -41 -23 -252q98 76 291 233q203 173 203 279q0 45 -70 94q-2 2 2 6q80 23 107 21q28 -2 49.5 -36t17.5 -65zM825 870z" />
    <glyph glyph-name="Y" unicode="Y" horiz-adv-x="1380" 
d="M1566 1049q2 -19 -37 -70l-344 -371q-94 -100 -244 -323q-252 -375 -252 -609q0 -188 172 -188q23 0 64 12q6 -16 -51 -26q-43 -9 -72 -9q-86 0 -138.5 49.5t-52.5 135.5q0 149 211 495q62 101 244 351q-90 -56 -119 -70q-65 -31 -131 -29q-153 4 -153 244q0 190 -7 244
q-18 159 -124 159q-68 0 -259 -143l-8 -6q-6 -4 -12 2q2 6 8 14q221 187 357 187q73 0 102 -47q20 -35 22 -119q0 -76 5 -230q4 -110 20 -161q29 -99 109 -99q135 0 282 187q131 164 252 309q41 47 72 86q39 35 69 35q15 0 15 -10z" />
    <glyph glyph-name="Z" unicode="Z" horiz-adv-x="1658" 
d="M1673 172q-18 -367 -417 -350q-152 6 -451 98l-461 141q-160 -104 -264 -96q-84 8 -80 62q8 102 225 102q82 0 156 -8q168 86 913 811q-149 -33 -188 -31q-59 4 -203 29q-129 22 -205 22q-303 0 -319 -227q-2 -25 -14 -25q-11 0 -11 15q9 145 144 239q125 88 274 78
q68 -4 202 -34.5t202 -34.5q96 -7 155 12q45 14 127 65q8 2 15 2q14 -2 14 -12q0 -6 -14 -16q-193 -129 -529 -449.5t-528 -449.5q115 -17 454 -115q285 -82 461 -82q307 0 322 234q2 36 8 59q8 0 12 -12v-27zM315 72q-65 20 -133 26q-104 8 -108 -51q-4 -43 55 -47
q70 -6 186 72z" />
    <glyph glyph-name="bracketleft" unicode="[" horiz-adv-x="692" 
d="M929 1020q0 -8 -12 -8h-72q-110 0 -123 -23q-280 -489 -563 -1048q-6 -13 -6 -21q0 -20 29 -20h65q54 0 127 2q17 0 17 -13q0 -10 -17 -10h-28q-29 2 -52 2q-81 2 -172 0q-24 0 -57 -2h-31q-14 0 -14 10q0 21 39 60q350 608 563 1036q2 4 6 29q2 14 15 14q20 0 58 -2
t58 -2q27 0 78 2t78 2h2q12 0 12 -8z" />
    <glyph glyph-name="backslash" unicode="\" horiz-adv-x="753" 
d="M847 -322q0 -14 -14 -14q-12 0 -25 17l-440 1441q0 15 16 15q11 0 25 -21q8 -12 223 -714.5t215 -723.5z" />
    <glyph glyph-name="bracketright" unicode="]" horiz-adv-x="720" 
d="M1078 1018q-12 -19 -38 -60q-287 -509 -543 -1036l-6 -26q-2 -17 -15 -17q-20 0 -63 2t-64 2q-28 0 -86.5 -2t-87.5 -2v0q-12 0 -12 10q0 13 12 13h80q101 0 72 -2q51 4 63 24q281 490 561 1045q7 12 7 20q0 21 -29 21h-25q-36 0 -71 -2l-70 -4q-16 0 -16 10t16 10h57
q41 0 121 2t121 2q16 0 16 -10z" />
    <glyph glyph-name="asciicircum" unicode="^" horiz-adv-x="819" 
d="M400 543h-61l207 411h51l209 -411h-64l-170 338z" />
    <glyph glyph-name="underscore" unicode="_" horiz-adv-x="1024" 
d="M1024 -102h-1024v102h1024v-102z" />
    <glyph glyph-name="grave" unicode="`" horiz-adv-x="471" 
d="M301 528q0 -4 -2 -4q-4 0 -7 4q-65 119 -100 191q-6 12 -6 22q0 13 10 25q4 6 10 6q7 -2 9 -8q30 -70 86 -232v-4z" />
    <glyph glyph-name="a" unicode="a" horiz-adv-x="559" 
d="M684 127q0 -6 -4 -10q-113 -146 -234 -217q-45 -27 -88 -27q-47 0 -77.5 28.5t-30.5 75.5q0 64 69 199q-149 -188 -221 -188q-41 0 -41 43q0 16 6 32q90 242 277 355q32 20 65 20q35 0 62 -20q26 31 43 31q6 0 6 -7q0 -4 -6 -14q-64 -96 -115 -213q-64 -145 -64 -231
q0 -80 64 -80q24 0 45 10q117 57 227 215q2 4 11 4q6 0 6 -6zM413 371q-22 26 -49 26q-35 0 -65 -37q-103 -118 -152 -274q-6 -18 -6 -35q0 -16 10 -16q8 0 19 8q61 47 151 170q55 74 92 158z" />
    <glyph glyph-name="b" unicode="b" horiz-adv-x="524" 
d="M1091 993q0 -26 -25 -55q-133 -150 -614 -494q-4 -2 -9 -8q2 -4 9 -8q94 -59 180 -59h18q31 0 91.5 12t89.5 12q8 0 8 -6t-13 -10q-106 -29 -194 -29q-82 0 -148 17q0 2 -2 2q-10 0 -10 -13v-4q0 -123 -115 -250q-131 -145 -225 -145q-49 0 -49 51v10q0 54 27 107
q237 475 538 758q135 127 277 184q35 14 63 14q35 0 67 -22.5t36 -55.5v-8zM1017 944q0 31 -33 51.5t-65 20.5q-37 0 -78 -19q-158 -71 -303 -268q-101 -162 -213 -338v-2h2q2 0 8 4q41 27 149 96q265 177 492 388q41 36 41 67zM431 334q8 22 -17.5 36.5t-49.5 14.5
q-27 0 -50 -29q-65 -84 -118 -206q-17 -39 -17 -70q0 -21 12.5 -44.5t30.5 -23.5q39 0 119 97q33 38 53 104q11 39 35 115z" />
    <glyph glyph-name="c" unicode="c" horiz-adv-x="403" 
d="M542 168q0 -6 -6 -12q-209 -189 -336 -189q-100 0 -100 99q0 43 27 100q57 125 133 180q55 41 182 82q12 4 14 4q17 0 31 -14.5t14 -30.5q0 -8 -6 -20q-20 -39 -30 -39q-9 0 -17 16q-22 47 -57 47q-25 0 -53 -20q-82 -58 -144 -209q-22 -56 -22 -99q0 -65 61 -65
q49 0 123 43q98 57 174 127q4 4 8 4t4 -4z" />
    <glyph glyph-name="d" unicode="d" horiz-adv-x="475" 
d="M453 344q0 -258 -168 -367q-56 -34 -103 -34h-4q-70 0 -70 92q0 115 99 239q88 113 200 172q9 5 9 15v8q-58 195 -195 457q-100 192 -199 360q-12 21 -18 57v0q0 43 12 43q2 0 6 -4q136 -170 267 -456q164 -357 164 -582zM428 377q0 51 -14 51q-25 0 -72 -51
q-39 -41 -59 -74q-58 -92 -89 -186q-16 -49 -16 -82q0 -62 41 -62q55 0 111 80q41 58 63 127q35 105 35 197z" />
    <glyph glyph-name="e" unicode="e" horiz-adv-x="475" 
d="M638 199q0 -4 -4 -9q-159 -153 -354 -206q-51 -15 -100 -15h-7q-106 0 -106 88q0 52 39 123q90 164 248 234q65 28 102 28h2q45 0 45 -36q0 -117 -330 -238q-26 -59 -26 -90v-4q0 -70 90 -70h4q35 0 66 8q180 49 319 191q4 4 6 4q6 0 6 -8zM425 362v9q0 37 -30 37
q-19 0 -43 -17q-105 -72 -168 -203q229 74 241 174z" />
    <glyph glyph-name="f" unicode="f" horiz-adv-x="354" 
d="M994 991q0 -33 -33 -71l-35 -41q-6 0 -6 8q0 2 10.5 17.5t10.5 27.5q0 10 -9 18q-32 37 -86 37h-2q-159 0 -338 -293q-59 -96 -159 -278q110 4 233 16q21 2 21 -12q0 -17 -23 -17q-80 0 -242 -6q-141 -266 -288 -522q-123 -211 -246 -360q-199 -242 -336 -230
q-51 4 -90 49t-39 97q2 65 18 65q5 -2 7 -8q20 -68 36 -94q43 -70 127 -70q66 0 144 84q110 117 297 459l286 526q-20 0 -62 -6t-65 -6q-28 0 -55 14q-8 4 -8 8q0 7 10 7q56 0 193 4q80 139 123 202q174 258 379 383q77 48 129 48h12q86 0 86 -56z" />
    <glyph glyph-name="g" unicode="g" horiz-adv-x="528" 
d="M709 215q0 -6 -4 -12q-60 -90 -217 -166q-93 -45 -209 -86q-217 -387 -375 -520q-189 -160 -365 -160q-98 0 -176 47q-92 55 -92 145q0 224 545 373q180 49 434 125q8 14 27 51q53 109 96 197q-148 -184 -252 -184q-51 0 -51 51q0 16 12 45q37 88 111 168q77 88 159 123
q52 22 93 22q26 0 40 -8q9 14 33 55q31 51 49 51q13 0 17 -14v-10q0 -33 -39 -100q-62 -113 -240 -410l-14 -23q88 29 190 78q152 74 211 162q6 8 11 8q6 0 6 -8zM473 403q-18 7 -47 7q-45 0 -74 -21q-55 -39 -125 -143q-75 -111 -75 -168q0 -15 14 -15h4q25 0 70 37
q102 84 233 303zM238 -61l-469 -154q-310 -119 -404 -236q-53 -65 -53 -120q0 -64 65 -97q52 -24 123 -24q215 0 439 221q163 166 299 410z" />
    <glyph glyph-name="h" unicode="h" horiz-adv-x="552" 
d="M354 162q39 92 63 176q4 12 4 20q0 15 -12 15q-10 0 -25 -11q-96 -65 -147 -131q-41 -53 -113 -186q-14 -25 -31.5 -36t-29.5 -21q-19 -13 -29 -13q-8 0 -8 7q0 6 2 10q188 360 461 756q119 170 268 327q176 185 324 268q71 41 141 41q109 0 137 -71q6 -37 15 -74v-2
q0 -8 -5 -8q-6 2 -8 6q-35 78 -159 78q-191 0 -410 -234q-104 -110 -285 -393q-157 -246 -237 -387q180 143 209 143q24 0 24 -36q0 -27 -16 -72q-21 -60 -50 -125q-44 -100 -44 -174q0 -92 86 -92q112 0 206 110q5 4 7 4q6 0 6 -8q0 -26 -78 -72q-66 -38 -102 -49
q-52 -14 -97 -14q-114 0 -114 98q0 38 47 150z" />
    <glyph glyph-name="i" unicode="i" horiz-adv-x="382" 
d="M493 645q0 -24 -22.5 -49t-46.5 -25q-25 0 -25 25q0 27 20.5 51.5t47.5 24.5q26 0 26 -27zM606 283q0 -4 -4 -9q-180 -213 -365 -299q-82 -38 -125 -38q-55 0 -55 51q0 43 41 121q31 59 188 315q25 39 37 39q19 0 25 -41v-8q0 -11 -8 -21q-45 -53 -82 -112
q-84 -136 -109 -218q-6 -20 -6 -32q0 -49 43 -49q12 0 25 4q188 59 381 299q4 4 8 4q6 0 6 -6z" />
    <glyph glyph-name="j" unicode="j" horiz-adv-x="423" 
d="M512 725q0 -25 -22.5 -49.5t-46.5 -24.5q-25 0 -25 25q0 26 20.5 51t47.5 25q26 0 26 -27zM703 348q0 -6 -9 -10q-49 -33 -225 -145q-203 -132 -299 -216q-416 -753 -688 -753h-12q-80 0 -137 51q-23 20 -23 53v33q0 115 12 115q8 0 8 -11q0 -2 -2 -4q-4 -22 0 -47
q5 -30 15 -45q41 -61 135 -61q156 0 311 151q174 170 342 486h-2q-6 0 -33 41q-4 6 -4 8q0 8 11 14l81 43q5 12 9 25q67 162 67 233q0 58 -61 58h-10q-84 -7 -234 -115q-2 -2 -8 -4q-8 0 -8 6t6 10q63 47 170 105q131 71 178 71q41 0 41 -43q0 -92 -86 -270q-4 -8 -29 -55
q70 39 240 133q43 24 229 143q6 4 11 4q4 0 4 -4z" />
    <glyph glyph-name="k" unicode="k" horiz-adv-x="526" 
d="M2050 -381q-3 -22 -17 -41q-53 -67 -168 -123q-149 -71 -338 -71q-57 0 -112 8q-301 43 -654 286q-288 199 -544 478q-5 4 -9 16t-8 12t-6 -4q-45 -90 -61 -112q-45 -66 -95 -84h-6q-10 0 -10 8t6 18q363 594 492 766q299 402 514 557q96 70 194 70q82 0 123 -55
q27 -35 27 -60q0 -14 -10 -14q-7 0 -7 6q0 18 -14 29q-51 34 -149 34q-269 0 -633 -573q-215 -338 -258 -424l-6 -12q0 -2 2 -2q6 2 12 8q106 102 182 102h4q31 0 31 -26q0 -33 -43 -90q-23 -31 -109 -76l-122 -62q-9 -4 -9 -8t6 -10q318 -317 854 -592q265 -135 404 -156
q43 -6 86 -6q98 0 195 31q112 33 173.5 96.5t61.5 130.5v11q0 2 -2 6q0 12 6 12q17 -6 17 -70v-14zM456 379q0 22 -18 22q-4 0 -13 -4q-100 -47 -198 -180q-4 -6 -4 -10q0 -6 6 -6q37 0 158 78q69 45 69 100z" />
    <glyph glyph-name="l" unicode="l" horiz-adv-x="462" 
d="M1071 1036q-15 -151 -103 -248q-252 -274 -635 -409q-151 -277 -151 -356q0 -72 67 -72q56 0 138 49q137 82 249 217q5 4 9 4q8 0 8 -6q-2 -4 -6 -10q-275 -291 -457 -291q-86 0 -86 90q0 64 45 164l72 160q0 12 -9.5 21t-9.5 11q0 13 19 15q39 4 57 37q234 393 504 678
q78 81 184 141q29 16 41 16q15 0 27 -18q37 -58 37 -164v-29zM1022 1008v4q0 63 -31 131q-21 45 -45 45q-17 0 -51 -23q-191 -121 -547 -762q362 125 585 375q89 99 89 230z" />
    <glyph glyph-name="m" unicode="m" horiz-adv-x="724" 
d="M954 270q0 -4 -4 -10q-106 -174 -309 -283q-74 -38 -129 -38q-57 0 -57 51q0 30 22 67q66 109 113 209q12 27 12 41q0 19 -16 19q-13 0 -31 -13q-72 -49 -148 -157q-77 -115 -106 -115h-6q-21 4 -21 20q0 11 11 23q90 111 133 225q4 10 4 19q0 12 -10 12q-9 0 -19 -6
q-112 -70 -203 -205q-18 -39 -65 -113q-10 -12 -17 -12q-20 0 -20 35q0 10 4 20q16 45 86 177q115 217 143 217q11 0 29 -29q2 -4 2 -8q0 -8 -4 -15q-18 -24 -108 -182q2 0 4 4q90 101 221 174q18 11 31 11q18 0 18 -21q0 -22 -29.5 -76.5t-29.5 -60.5q2 0 6 4
q78 80 174 117q16 6 24 6q27 0 31 -21v-6q0 -18 -18 -53q-82 -150 -117 -238q-10 -24 -10 -43q0 -39 39 -39q22 0 49 13q198 94 305 278q4 8 10 8t6 -6z" />
    <glyph glyph-name="n" unicode="n" horiz-adv-x="585" 
d="M700 49q0 -26 -78 -72q-66 -38 -103 -49q-51 -14 -96 -14q-115 0 -115 98q0 64 134 336q4 8 4 10q0 9 -9 9q-6 0 -12 -5q-135 -88 -311 -348q-29 -41 -68 -41h-4q-6 2 -6 11q0 8 6 18q74 127 193 385q18 41 80 57q2 2 6 2q6 0 6 -8q0 -10 -8 -24q-56 -101 -119 -244
q96 119 231 225q51 41 76 45h6q31 0 31 -34q0 -9 -4 -15q-68 -115 -86 -151q-60 -119 -60 -205q0 -92 86 -92q113 0 207 110q4 4 6 4q7 0 7 -8z" />
    <glyph glyph-name="o" unicode="o" horiz-adv-x="485" 
d="M782 375q0 -6 -9 -8q-110 -29 -163 -29h-41q-76 0 -127 14q-17 -155 -154 -289q-78 -75 -147 -75q-68 0 -68 63v6q0 144 223 320q29 22 62 39q0 4 6 10q41 29 45 29q12 0 14 -13q15 -80 221 -80q74 0 129 15q2 2 5 2q4 0 4 -4zM368 324v18q0 43 -19 43q-8 0 -28 -14
q-170 -125 -170 -305q0 -52 31 -52q18 0 45 19q141 98 141 291z" />
    <glyph glyph-name="p" unicode="p" horiz-adv-x="536" 
d="M709 233q0 -6 -6 -10q-160 -125 -627 -270q-262 -451 -451 -846q-26 -55 -26 -90q0 -47 61 -47q33 0 88 12q8 2 51 14q37 13 43 13q9 0 9 -10q0 -9 -9 -11l-188 -51q-76 -20 -115 -20q-59 0 -59 45v8q6 67 176 346q178 291 356 618l-112 -34q-17 0 -17 14v8q9 27 68 43
q45 8 88 17q27 49 80 147l104 199q56 102 109 178q12 16 43 16q25 0 25 -14q0 -4 -5 -12q-18 -39 -219 -371q-24 -41 -75 -129l28 8q312 170 312 340q0 14 -8.5 38t-8.5 26q0 8 12 8q5 0 20 -7.5t28 -7.5q45 0 45 -45q0 -104 -131 -204q-103 -80 -199 -132q344 93 495 218
q5 4 9 4q6 0 6 -9z" />
    <glyph glyph-name="q" unicode="q" horiz-adv-x="550" 
d="M688 -8q0 -90 -63 -203q-58 -98 -135 -170q-127 -115 -295 -213q-179 -104 -334 -147q-45 -13 -70 -13h-10q-39 6 -39 37q0 8 10 10q64 11 103 60q100 125 194 295q320 575 320 569v2h-2q-4 0 -9 -6q-69 -88 -120 -139q-82 -82 -146 -82q-41 0 -41 41q0 20 8 41
q37 92 124 185t175 128q60 14 125 41l28 56t67 38q18 0 18 -12q0 -10 -12 -31q-109 -170 -359 -596q-67 -131 -135 -262q-112 -209 -158 -235q-26 -17 -67 -48q-4 -2 -6 -8q2 -4 6 -4q59 0 379 158q297 147 385 362q37 91 37 164q0 115 -86 166q-35 21 -64 21q-6 0 -16 -3.5
t-15 -3.5q-4 0 -4 5q0 22 41 22q17 0 27 -4q139 -51 139 -221zM461 395q0 2 -4 2h-6q-84 -12 -160 -86q-109 -106 -166 -243q-8 -21 -8 -37q0 -13 8 -13q12 0 39 19q80 55 180 182q78 98 115 166q2 4 2 10z" />
    <glyph glyph-name="r" unicode="r" horiz-adv-x="493" 
d="M704 457q0 -11 -8 -27l-29 -57q-4 -8 -6 -8q-6 0 -6 8v2q2 10 2 14q0 43 -43 51q-23 4 -39 4q-182 0 -350 -274q-11 -16 -103 -176q-8 -14 -18 -14q-15 0 -33 43q-2 4 -2 12q0 14 8 28q68 117 160 299q22 46 59 46q17 0 17 -13q0 -6 -64 -141q119 143 262 229
q62 37 113 37q80 0 80 -63z" />
    <glyph glyph-name="s" unicode="s" horiz-adv-x="407" 
d="M513 438q-4 -12 -17 -12q-6 0 -6 10q-2 35 -45 35q-49 0 -88 -37t-49 -88q-43 -201 -80 -297q-61 -166 -168 -252q-96 -78 -205 -78q-53 0 -112 23q-78 29 -78 74q0 8 6 8t10 -10q35 -74 166 -74q117 0 211 117q53 65 78 147q29 102 102 352q15 47 50 72q84 61 157 61
q68 0 68 -47v-4z" />
    <glyph glyph-name="t" unicode="t" horiz-adv-x="466" 
d="M690 381q0 -8 -11 -8q-204 -15 -387 -21q-47 -98 -82 -188q-20 -53 -20 -88q0 -49 53 -49q60 0 148 38.5t77 38.5q9 0 9 -8q0 -6 -7 -10q-53 -35 -133 -61q-86 -31 -143 -31q-84 0 -84 72q0 73 127 286l-117 -2q-10 0 -10 8q0 15 14 15q64 0 127 2q35 53 129 178
q113 152 131 152q9 0 9 -7q-2 -2 -9 -10q-88 -117 -208 -311l374 10q13 -2 13 -6z" />
    <glyph glyph-name="u" unicode="u" horiz-adv-x="548" 
d="M747 209q0 -4 -4 -8q-174 -213 -318 -213q-98 0 -98 94q0 29 10 61q-53 -61 -88 -92q-63 -53 -104 -53q-33 0 -33 37q0 22 14 57q54 133 144 277q8 12 30 47q15 22 72 30q16 -6 16 -10q0 -20 -24 -45q-35 -33 -39 -41q-74 -121 -115 -225q-14 -37 -14 -53q0 -19 12 -19
q31 0 107 101q59 90 178 270q12 18 25 18q24 0 24 -36q0 -17 -12 -35q-139 -201 -139 -297q0 -58 61 -58q18 0 51 9q109 26 232 184q4 6 8 6t4 -6z" />
    <glyph glyph-name="v" unicode="v" horiz-adv-x="509" 
d="M542 373q0 -82 -139 -180q-33 -23 -115 -82q-47 -37 -76 -82q-10 -17 -86 -58q-6 -4 -10 -4q-8 0 -8 8q0 7 22.5 76.5t26.5 85.5q31 148 90 250q17 29 37 37q51 20 60 20q8 0 8 -6t-6 -10q-21 -16 -50 -78q-79 -176 -79 -250v-2q0 -8 6 -8q41 0 86 41l75 70
q105 71 105 135q0 33 -29 51q-4 2 -4 8q0 11 17.5 31t27.5 20q2 0 4 -2q37 -28 37 -71z" />
    <glyph glyph-name="w" unicode="w" horiz-adv-x="630" 
d="M827 385q0 -6 -15 -8q-57 -6 -200 -6h-96q57 -62 57 -107q0 -106 -84 -221q-66 -90 -125 -90q-64 0 -64 98q0 27 9 66q-142 -135 -207 -135q-35 0 -35 38q0 33 27 86q41 64 118 205q19 51 50 109q10 8 18 8h23q16 0 16 -22q0 -23 -14 -48q-86 -143 -134 -252
q-16 -36 -16 -55q0 -18 14 -18q19 0 66 43q63 59 113 135q22 35 55 35q12 0 12 -10q0 -11 -6 -23q-35 -70 -35 -133v-4q0 -70 37 -70q33 0 70 60q53 84 53 176q0 135 -105 135h-24q-12 0 -12 10q0 12 13 24.5t26 12.5q30 0 79 -10q60 -15 78 -17q88 -10 160 -10q-12 0 35 2
h35q8 0 8 -4z" />
    <glyph glyph-name="x" unicode="x" horiz-adv-x="565" 
d="M761 242q0 -6 -4 -11q-250 -272 -431 -272q-63 0 -63 80q0 12 10 111q-125 -105 -231 -218q-262 -280 -262 -485q0 -115 98 -166q43 -22 88 -22q47 0 129 43q4 0 4 -7q0 -8 -4 -10q-98 -55 -197 -55q-22 0 -43 2q-145 14 -145 162q0 219 317 551q105 108 248 227
q6 64 6 98v15q0 65 -39 65h-2q-26 0 -59 -20q-74 -47 -145 -119q-7 -6 -13 -6t-6 8q0 6 6 12q205 183 291 183q47 0 47 -60q0 -6 -16 -123l24 21q177 147 177 225q0 12 -7.5 27.5t-7.5 19.5q0 10 27 10q53 0 53 -49q0 -71 -233 -248q-11 -8 -37 -28q-8 -66 -8 -101
q0 -92 79 -92q72 0 213 115q78 63 121 117q6 6 8 6q7 0 7 -6z" />
    <glyph glyph-name="y" unicode="y" horiz-adv-x="538" 
d="M654 498q0 -21 -25 -49q-86 -97 -299 -353q-313 -397 -449 -680q-110 -231 -110 -372v-13q0 -84 43 -125q22 -20 24 -24q0 -8 -6 -8t-10 4q-35 30 -82 64t-47 102v4q0 71 39 164q72 170 203 372q65 103 245 350q15 19 66 89q-55 -35 -76 -35q-16 0 -16 18q0 -2 41 158
q2 10 43 201q-2 14 12 38q10 7 33 7q35 0 35 -31q0 -12 -4 -25q-64 -186 -80 -284v-11q0 -14 10 -14q12 0 31 12l143 185q174 225 174 276q0 4 -3 9t-3 10q0 8 8 8q6 0 29.5 -14.5t27 -20.5t3.5 -12z" />
    <glyph glyph-name="z" unicode="z" horiz-adv-x="653" 
d="M1234 -213q0 -6 -6 -12q-103 -84 -230 -84q-221 0 -452 157q-131 91 -242 156q-94 -53 -182 -53q-82 0 -137 45q-25 20 -25 49q0 41 51 61q39 17 86 17q101 0 248 -72q33 25 53 43q80 74 183 191q-74 32 -172 32q-80 0 -109 -36q-4 -7 -10 -7q-4 0 -4 7q24 41 57 94
q10 24 51 24q109 0 238 -57q30 37 80 88q2 4 6 4q8 0 8 -8q0 -6 -4 -10q-35 -37 -78 -86q-147 -170 -233 -248q-21 -19 -48 -39q66 -35 189 -111q221 -139 321 -188q74 -37 146 -37q108 0 198 82q5 4 9 4q8 0 8 -6zM286 14q-150 88 -220 88h-8q-45 0 -45 -32q0 -17 21 -37
q53 -56 129 -56q55 0 123 37z" />
    <glyph glyph-name="braceleft" unicode="{" horiz-adv-x="542" 
d="M923 1008q-2 -7 -12 -7q-4 0 -15.5 3.5t-17.5 3.5q-63 0 -143 -90l-180 -238q-117 -152 -213 -186q-9 -2 -9 -9q0 -4 4 -6q48 -24 48 -78q0 -51 -70 -184q-29 -51 -84 -156q-49 -96 -49 -163q0 -88 74 -88q12 0 12 -9q0 -8 -15 -8q-61 2 -104 37t-43 94q0 58 55 148
q31 45 90 137q109 166 109 209q0 45 -66 57h-10q12 0 -41 -8q-26 -4 -33 -4q-24 0 -24 16q0 25 33 25q8 0 26.5 -4t28.5 -4q115 0 229 198l74 127q45 74 84 117q57 63 160 78q45 6 71 6h17q14 -2 14 -10v-4z" />
    <glyph glyph-name="bar" unicode="|" horiz-adv-x="454" 
d="M303 -512v2048h61v-2048h-61z" />
    <glyph glyph-name="braceright" unicode="}" horiz-adv-x="542" 
d="M703 879q0 -60 -96 -211.5t-96 -175.5q0 -21 20 -21q13 0 19 2q26 8 69 12q15 0 15 -16q0 -31 -27 -31q-57 0 -84 -18q-74 -51 -155 -211q-101 -195 -144 -246q-55 -63 -135 -115q-92 -57 -162 -57q-10 0 -10 6t12 8q156 27 299 281q23 41 82 141q84 138 207 209
q8 4 8 10q0 7 -10 11q-43 18 -43 71q0 50 41 119q25 37 70 111q75 127 75 180t-53 61q-14 2 -14 11q0 10 12 10q33 0 64 -37q24 -33 32 -70q4 -18 4 -34z" />
    <glyph glyph-name="asciitilde" unicode="~" horiz-adv-x="819" 
d="M655 356l41 -41q-71 -96 -141 -96q-43 0 -120 39t-124 39q-61 0 -94 -84l-41 41q51 96 141 96q45 0 125 -35q94 -41 115 -41q45 0 98 82z" />
    <glyph glyph-name="dieresis" unicode="&#xa8;" horiz-adv-x="1024" 
 />
    <glyph glyph-name="copyright" unicode="&#xa9;" horiz-adv-x="1529" 
 />
    <glyph glyph-name="registered" unicode="&#xae;" horiz-adv-x="1529" 
 />
    <glyph glyph-name="acute" unicode="&#xb4;" horiz-adv-x="1024" 
 />
    <glyph glyph-name="paragraph" unicode="&#xb6;" horiz-adv-x="1024" 
d="M929 1435v-70h-127v-1365h-82v1365h-166v-1365h-84v738q-174 8 -275.5 102.5t-101.5 245.5q0 157 107.5 253t285.5 96h443z" />
    <glyph glyph-name="onequarter" unicode="&#xbc;" horiz-adv-x="1298" 
 />
    <glyph glyph-name="onehalf" unicode="&#xbd;" horiz-adv-x="1320" 
 />
    <glyph glyph-name="threequarters" unicode="&#xbe;" horiz-adv-x="1288" 
 />
    <glyph glyph-name="Agrave" unicode="&#xc0;" 
d="M1689 72q-37 -37 -110.5 -76t-118.5 -39q-62 2 -72 88q-2 66 -2 133q-2 101 6 197q-84 -8 -221 -10h-82l-6 -7q-121 -125 -238 -219q-233 -190 -436 -186q-123 2 -203 72q-86 73 -92 194q-4 62 32 163t81 134l6 2l6 -2q0 2 -34 -74.5t-34 -126.5q-2 -137 91 -213
q81 -69 223 -71q160 -2 319 104q111 74 256 230q-10 2 -22 6q-4 12 6 20q2 4 41 0q221 256 411 572l48 77q63 107 116 107q41 0 39 -74q-26 21 -43 21q-86 4 -114.5 -141.5t-42.5 -264.5q-23 -182 -23 -383q0 -289 72 -289q26 0 135 70zM1486 918q-200 -322 -381 -529l49 -2
l240 8q16 150 33 250q26 164 59 273zM1695 1220q-4 -1 -8 -1q-116 64 -192 111q-14 8 -19 15q-3 8 1 27q1 9 7 11t12 -2q26 -19 58 -40q93 -68 139 -104l8 -8q2 -1 -6 -9z" />
    <glyph glyph-name="Aacute" unicode="&#xc1;" 
d="M1689 72q-37 -37 -110.5 -76t-118.5 -39q-62 2 -72 88q-2 66 -2 133q-2 101 6 197q-84 -8 -221 -10h-82l-6 -7q-121 -125 -238 -219q-233 -190 -436 -186q-123 2 -203 72q-86 73 -92 194q-4 62 32 163t81 134l6 2l6 -2q0 2 -34 -74.5t-34 -126.5q-2 -137 91 -213
q81 -69 223 -71q160 -2 319 104q111 74 256 230q-10 2 -22 6q-4 12 6 20q2 4 41 0q221 256 411 572l48 77q63 107 116 107q41 0 39 -74q-26 21 -43 21q-86 4 -114.5 -141.5t-42.5 -264.5q-23 -182 -23 -383q0 -289 72 -289q26 0 135 70zM1486 918q-200 -322 -381 -529l49 -2
l240 8q16 150 33 250q26 164 59 273zM1624 1229l8 8q46 36 139 104q32 21 58 40q6 4 12 2t7 -11q4 -19 1 -27q-5 -7 -19 -15q-76 -47 -192 -111q-4 0 -8 1q-8 8 -6 9z" />
    <glyph glyph-name="Acircumflex" unicode="&#xc2;" 
d="M1689 72q-37 -37 -110.5 -76t-118.5 -39q-62 2 -72 88q-2 66 -2 133q-2 101 6 197q-84 -8 -221 -10h-82l-6 -7q-121 -125 -238 -219q-233 -190 -436 -186q-123 2 -203 72q-86 73 -92 194q-4 62 32 163t81 134l6 2l6 -2q0 2 -34 -74.5t-34 -126.5q-2 -137 91 -213
q81 -69 223 -71q160 -2 319 104q111 74 256 230q-10 2 -22 6q-4 12 6 20q2 4 41 0q221 256 411 572l48 77q63 107 116 107q41 0 39 -74q-26 21 -43 21q-86 4 -114.5 -141.5t-42.5 -264.5q-23 -182 -23 -383q0 -289 72 -289q26 0 135 70zM1486 918q-200 -322 -381 -529l49 -2
l240 8q16 150 33 250q26 164 59 273zM1802 1223q0 22 -5.5 66t-5.5 67q0 6 -8 6q-16 4 -20 2q-27 -12 -140 -86q-20 -14 -71 -51q-12 -6 -12 -19q0 -6 8 -6q10 6 102 70q21 14 80 51q6 4 10 4q8 0 8 -8l7 -119q0 -14 6 -14l32 16q9 4 9 21z" />
    <glyph glyph-name="Atilde" unicode="&#xc3;" 
d="M1689 72q-37 -37 -110.5 -76t-118.5 -39q-62 2 -72 88q-2 66 -2 133q-2 101 6 197q-84 -8 -221 -10h-82l-6 -7q-121 -125 -238 -219q-233 -190 -436 -186q-123 2 -203 72q-86 73 -92 194q-4 62 32 163t81 134l6 2l6 -2q0 2 -34 -74.5t-34 -126.5q-2 -137 91 -213
q81 -69 223 -71q160 -2 319 104q111 74 256 230q-10 2 -22 6q-4 12 6 20q2 4 41 0q221 256 411 572l48 77q63 107 116 107q41 0 39 -74q-26 21 -43 21q-86 4 -114.5 -141.5t-42.5 -264.5q-23 -182 -23 -383q0 -289 72 -289q26 0 135 70zM1486 918q-200 -322 -381 -529l49 -2
l240 8q16 150 33 250q26 164 59 273zM1944 1311v3q0 8 -8 8q-10 0 -10 -11q0 -23 -21 -43.5t-52 -20.5q-37 0 -88 38l-37 28q-23 18 -50 18q-32 0 -107 -52q-28 -19 -45 -37q-6 -7 -6 -12q0 -4 6 -4q8 0 13 7q67 68 113 68q27 0 72 -34q62 -47 103 -47q51 0 94 44
q11 12 15 24z" />
    <glyph glyph-name="Egrave" unicode="&#xc8;" horiz-adv-x="1476" 
d="M1449 444q0 -141 -180 -309q-192 -178 -446 -268q-156 -55 -307 -62q-43 -77 -60 -139q-2 -10 -12 -10t-10 10q0 2 2 4q22 68 57 133h-6q-246 0 -359 129q-61 72 -61 162q0 271 424 416q102 35 213 84q43 27 43 61q0 21 -66 138q-22 38 -22 75q0 47 29 82q88 105 299 174
q81 27 163 27h9q90 0 143 -45q25 -21 25 -53q0 -47 -72 -115q-4 -4 -12 -4q-7 0 -7 6q0 4 5 8q20 23 20 45q0 29 -29 54q-67 57 -178 57q-88 0 -170 -35q-135 -57 -135 -156q0 -61 55 -137q37 -51 37 -92q0 -78 -186 -137l-115 -37q-104 -37 -203 -100q-161 -103 -161 -277
q0 -172 151 -248q82 -41 184 -47q101 176 275 351.5t352 281.5q103 61 195 70h18q98 0 98 -97zM1357 369v14q0 102 -90 102q-31 0 -76 -16q-120 -45 -370 -274q-176 -164 -289 -359h16q127 0 267 49q268 95 430 273q112 123 112 211zM1021 1220q-4 -1 -9 -1
q-116 64 -192 111q-14 8 -19 15q-3 8 1 27q2 9 7 11q6 2 12 -2q27 -19 59 -40q93 -68 139 -104l7 -8q3 -1 -5 -9z" />
    <glyph glyph-name="Eacute" unicode="&#xc9;" horiz-adv-x="1476" 
d="M1449 444q0 -141 -180 -309q-192 -178 -446 -268q-156 -55 -307 -62q-43 -77 -60 -139q-2 -10 -12 -10t-10 10q0 2 2 4q22 68 57 133h-6q-246 0 -359 129q-61 72 -61 162q0 271 424 416q102 35 213 84q43 27 43 61q0 21 -66 138q-22 38 -22 75q0 47 29 82q88 105 299 174
q81 27 163 27h9q90 0 143 -45q25 -21 25 -53q0 -47 -72 -115q-4 -4 -12 -4q-7 0 -7 6q0 4 5 8q20 23 20 45q0 29 -29 54q-67 57 -178 57q-88 0 -170 -35q-135 -57 -135 -156q0 -61 55 -137q37 -51 37 -92q0 -78 -186 -137l-115 -37q-104 -37 -203 -100q-161 -103 -161 -277
q0 -172 151 -248q82 -41 184 -47q101 176 275 351.5t352 281.5q103 61 195 70h18q98 0 98 -97zM1357 369v14q0 102 -90 102q-31 0 -76 -16q-120 -45 -370 -274q-176 -164 -289 -359h16q127 0 267 49q268 95 430 273q112 123 112 211zM1098 1229l7 8q46 36 139 104
q32 21 59 40q6 4 12 2q5 -2 6 -11q4 -19 2 -27q-5 -7 -19 -15q-77 -47 -192 -111q-5 0 -9 1q-8 8 -5 9z" />
    <glyph glyph-name="Ecircumflex" unicode="&#xca;" horiz-adv-x="1476" 
d="M1449 444q0 -141 -180 -309q-192 -178 -446 -268q-156 -55 -307 -62q-43 -77 -60 -139q-2 -10 -12 -10t-10 10q0 2 2 4q22 68 57 133h-6q-246 0 -359 129q-61 72 -61 162q0 271 424 416q102 35 213 84q43 27 43 61q0 21 -66 138q-22 38 -22 75q0 47 29 82q88 105 299 174
q81 27 163 27h9q90 0 143 -45q25 -21 25 -53q0 -47 -72 -115q-4 -4 -12 -4q-7 0 -7 6q0 4 5 8q20 23 20 45q0 29 -29 54q-67 57 -178 57q-88 0 -170 -35q-135 -57 -135 -156q0 -61 55 -137q37 -51 37 -92q0 -78 -186 -137l-115 -37q-104 -37 -203 -100q-161 -103 -161 -277
q0 -172 151 -248q82 -41 184 -47q101 176 275 351.5t352 281.5q103 61 195 70h18q98 0 98 -97zM1357 369v14q0 102 -90 102q-31 0 -76 -16q-120 -45 -370 -274q-176 -164 -289 -359h16q127 0 267 49q268 95 430 273q112 123 112 211zM1287 1202l-33 -16q-6 0 -6 14l-6 119
q0 8 -8 8q-4 0 -11 -4q-59 -37 -79 -51q-93 -64 -103 -70q-8 0 -8 6q0 13 12 19q51 37 72 51q113 74 139 86q4 2 21 -2q8 0 8 -6q0 -23 5 -67t5 -66q0 -17 -8 -21z" />
    <glyph glyph-name="Igrave" unicode="&#xcc;" horiz-adv-x="935" 
d="M1126 1110q8 -10 -7 -23q-112 -88 -206 -229q-46 -67 -189 -348l-98 -193q-103 -202 -189 -274q-100 -84 -229 -82q-98 2 -166 51q-6 4 -4 13q2 6 12 0q56 -37 133 -37q160 0 283 211l92 157l264 439q86 129 187 223q-70 -37 -160 -37q-45 0 -132 8t-132 8
q-94 0 -158 -71q-39 -47 -88 -160q-4 -10 -12 -6q-8 6 -4 16q49 131 84 193q71 116 157 116q27 0 179 -30q100 -21 180 -21q43 0 82 10q24 7 100 62q14 10 21 4zM960 1220q-4 -1 -9 -1q-115 64 -192 111q-14 8 -19 15q-2 8 2 27q1 9 6 11q6 2 12 -2q27 -19 59 -40
q93 -68 139 -104l7 -8q3 -1 -5 -9z" />
    <glyph glyph-name="Iacute" unicode="&#xcd;" horiz-adv-x="935" 
d="M1126 1110q8 -10 -7 -23q-112 -88 -206 -229q-46 -67 -189 -348l-98 -193q-103 -202 -189 -274q-100 -84 -229 -82q-98 2 -166 51q-6 4 -4 13q2 6 12 0q56 -37 133 -37q160 0 283 211l92 157l264 439q86 129 187 223q-70 -37 -160 -37q-45 0 -132 8t-132 8
q-94 0 -158 -71q-39 -47 -88 -160q-4 -10 -12 -6q-8 6 -4 16q49 131 84 193q71 116 157 116q27 0 179 -30q100 -21 180 -21q43 0 82 10q24 7 100 62q14 10 21 4zM888 1229l7 8q46 36 139 104q32 21 59 40q6 4 12 2q5 -2 7 -11q4 -19 1 -27q-5 -7 -19 -15q-76 -47 -192 -111
q-5 0 -9 1q-8 8 -5 9z" />
    <glyph glyph-name="Ograve" unicode="&#xd2;" horiz-adv-x="1445" 
d="M1544 838q-2 -70 -16 -125q-64 -234 -342 -498q-142 -133 -318 -217q-196 -94 -370 -92q-150 2 -250 69q-115 80 -115 222q0 194 223 462q58 70 201 195q162 143 217 158q10 4 14 0q2 -4 -2 -13q-84 -45 -213 -170q-118 -112 -184 -202q-147 -203 -150 -391
q0 -130 89 -209q81 -76 215 -80q151 -4 333 86q164 80 287 198q113 109 191 250q102 185 100 348q-2 119 -67.5 198t-180.5 81q-110 2 -194 -53q-97 -64 -97 -170q0 -58 29 -88q-104 2 -104 86q0 35 36 80q146 174 373 174q139 0 218 -80t77 -219zM1255 1141zM1178 1220
q-4 -1 -8 -1q-116 64 -192 111q-14 8 -19 15q-3 8 1 27q1 9 7 11t12 -2q27 -19 59 -40q92 -68 139 -104l7 -8q3 -1 -6 -9z" />
    <glyph glyph-name="Oacute" unicode="&#xd3;" horiz-adv-x="1445" 
d="M1544 838q-2 -70 -16 -125q-64 -234 -342 -498q-142 -133 -318 -217q-196 -94 -370 -92q-150 2 -250 69q-115 80 -115 222q0 194 223 462q58 70 201 195q162 143 217 158q10 4 14 0q2 -4 -2 -13q-84 -45 -213 -170q-118 -112 -184 -202q-147 -203 -150 -391
q0 -130 89 -209q81 -76 215 -80q151 -4 333 86q164 80 287 198q113 109 191 250q102 185 100 348q-2 119 -67.5 198t-180.5 81q-110 2 -194 -53q-97 -64 -97 -170q0 -58 29 -88q-104 2 -104 86q0 35 36 80q146 174 373 174q139 0 218 -80t77 -219zM1255 1141zM1207 1229l7 8
q46 36 139 104q32 21 59 40q6 4 11 2q6 -2 7 -11q4 -19 2 -27q-5 -7 -19 -15q-77 -47 -192 -111q-5 0 -9 1q-8 8 -5 9z" />
    <glyph glyph-name="Ocircumflex" unicode="&#xd4;" horiz-adv-x="1445" 
d="M1544 838q-2 -70 -16 -125q-64 -234 -342 -498q-142 -133 -318 -217q-196 -94 -370 -92q-150 2 -250 69q-115 80 -115 222q0 194 223 462q58 70 201 195q162 143 217 158q10 4 14 0q2 -4 -2 -13q-84 -45 -213 -170q-118 -112 -184 -202q-147 -203 -150 -391
q0 -130 89 -209q81 -76 215 -80q151 -4 333 86q164 80 287 198q113 109 191 250q102 185 100 348q-2 119 -67.5 198t-180.5 81q-110 2 -194 -53q-97 -64 -97 -170q0 -58 29 -88q-104 2 -104 86q0 35 36 80q146 174 373 174q139 0 218 -80t77 -219zM1255 1141zM1465 1232
l-32 -16q-7 0 -7 14l-6 119q0 8 -8 8q-4 0 -10 -4q-60 -37 -80 -51q-92 -64 -102 -70q-9 0 -9 6q0 13 13 19q51 37 71 51q113 74 140 86q4 2 20 -2q8 0 8 -6q0 -23 5.5 -67t5.5 -66q0 -17 -9 -21z" />
    <glyph glyph-name="Otilde" unicode="&#xd5;" horiz-adv-x="1445" 
d="M1544 838q-2 -70 -16 -125q-64 -234 -342 -498q-142 -133 -318 -217q-196 -94 -370 -92q-150 2 -250 69q-115 80 -115 222q0 194 223 462q58 70 201 195q162 143 217 158q10 4 14 0q2 -4 -2 -13q-84 -45 -213 -170q-118 -112 -184 -202q-147 -203 -150 -391
q0 -130 89 -209q81 -76 215 -80q151 -4 333 86q164 80 287 198q113 109 191 250q102 185 100 348q-2 119 -67.5 198t-180.5 81q-110 2 -194 -53q-97 -64 -97 -170q0 -58 29 -88q-104 2 -104 86q0 35 36 80q146 174 373 174q139 0 218 -80t77 -219zM1255 1141zM1468 1331v3
q0 8 -7 8q-10 0 -10 -11q0 -23 -21.5 -43.5t-52.5 -20.5q-37 0 -88 38l-37 28q-23 18 -50 18q-31 0 -107 -52q-27 -19 -45 -37q-6 -7 -6 -12q0 -4 6 -4q8 0 14 7q66 68 113 68q27 0 72 -34q62 -47 103 -47q50 0 93 44q12 12 16 24z" />
    <glyph glyph-name="Ugrave" unicode="&#xd9;" horiz-adv-x="1794" 
d="M1818 252q-198 -342 -401 -342q-125 0 -125 143q0 129 107 439l-60 -84q-86 -121 -209 -240q-190 -182 -372 -182q-84 0 -140.5 50t-56.5 132q0 141 121 324q94 141 383 430q-203 -13 -309 -25q-179 -20 -304 -63q-235 -80 -299 -302q-2 -8 -10 -8t-8 8q147 476 1014 476
q20 14 35 24q8 6 12 2t4 -8q0 -6 -4 -14q-543 -457 -543 -799q0 -78 49 -125t127 -47q115 0 279 139q61 53 170 182q114 140 139 201q98 240 197 420q61 113 127 113q32 0 30 -35q-2 -33 -12 -53q-92 12 -125 -35q-6 -8 -96 -230q-57 -141 -103 -307q-55 -200 -55 -315
q0 -152 90 -156q142 -6 336 299q8 6 12 4q5 -4 0 -16zM1465 1220q-4 -1 -8 -1q-116 64 -192 111q-14 8 -19 15q-3 8 1 27q1 9 7 11t12 -2q27 -19 59 -40q92 -68 138 -104l8 -8q3 -1 -6 -9z" />
    <glyph glyph-name="Uacute" unicode="&#xda;" horiz-adv-x="1794" 
d="M1818 252q-198 -342 -401 -342q-125 0 -125 143q0 129 107 439l-60 -84q-86 -121 -209 -240q-190 -182 -372 -182q-84 0 -140.5 50t-56.5 132q0 141 121 324q94 141 383 430q-203 -13 -309 -25q-179 -20 -304 -63q-235 -80 -299 -302q-2 -8 -10 -8t-8 8q147 476 1014 476
q20 14 35 24q8 6 12 2t4 -8q0 -6 -4 -14q-543 -457 -543 -799q0 -78 49 -125t127 -47q115 0 279 139q61 53 170 182q114 140 139 201q98 240 197 420q61 113 127 113q32 0 30 -35q-2 -33 -12 -53q-92 12 -125 -35q-6 -8 -96 -230q-57 -141 -103 -307q-55 -200 -55 -315
q0 -152 90 -156q142 -6 336 299q8 6 12 4q5 -4 0 -16zM1473 1229l8 8q46 36 139 104q32 21 58 40q6 4 12 2t7 -11q4 -19 1 -27q-4 -7 -18 -15q-77 -47 -192 -111q-5 0 -9 1q-8 8 -6 9z" />
    <glyph glyph-name="Yacute" unicode="&#xdd;" horiz-adv-x="1380" 
d="M1566 1049q2 -19 -37 -70l-344 -371q-94 -100 -244 -323q-252 -375 -252 -609q0 -188 172 -188q23 0 64 12q6 -16 -51 -26q-43 -9 -72 -9q-86 0 -138.5 49.5t-52.5 135.5q0 149 211 495q62 101 244 351q-90 -56 -119 -70q-65 -31 -131 -29q-153 4 -153 244q0 190 -7 244
q-18 159 -124 159q-68 0 -259 -143l-8 -6q-6 -4 -12 2q2 6 8 14q221 187 357 187q73 0 102 -47q20 -35 22 -119q0 -76 5 -230q4 -110 20 -161q29 -99 109 -99q135 0 282 187q131 164 252 309q41 47 72 86q39 35 69 35q15 0 15 -10zM1155 1229l8 8q46 36 139 104q32 21 58 40
q6 4 12 2t7 -11q4 -19 1 -27q-4 -7 -18 -15q-77 -47 -192 -111q-5 0 -9 1q-8 8 -6 9z" />
    <glyph glyph-name="agrave" unicode="&#xe0;" horiz-adv-x="559" 
d="M684 127q0 -6 -4 -10q-113 -146 -234 -217q-45 -27 -88 -27q-47 0 -77.5 28.5t-30.5 75.5q0 64 69 199q-149 -188 -221 -188q-41 0 -41 43q0 16 6 32q90 242 277 355q32 20 65 20q35 0 62 -20q26 31 43 31q6 0 6 -7q0 -4 -6 -14q-64 -96 -115 -213q-64 -145 -64 -231
q0 -80 64 -80q24 0 45 10q117 57 227 215q2 4 11 4q6 0 6 -6zM413 371q-22 26 -49 26q-35 0 -65 -37q-103 -118 -152 -274q-6 -18 -6 -35q0 -16 10 -16q8 0 19 8q61 47 151 170q55 74 92 158zM492 506q-4 -1 -9 -1q-115 64 -192 111q-14 8 -18 15q-3 8 1 27q1 9 7 11t12 -2
q26 -19 58 -40q93 -68 139 -104l8 -8q2 -1 -6 -9z" />
    <glyph glyph-name="aacute" unicode="&#xe1;" horiz-adv-x="559" 
d="M684 127q0 -6 -4 -10q-113 -146 -234 -217q-45 -27 -88 -27q-47 0 -77.5 28.5t-30.5 75.5q0 64 69 199q-149 -188 -221 -188q-41 0 -41 43q0 16 6 32q90 242 277 355q32 20 65 20q35 0 62 -20q26 31 43 31q6 0 6 -7q0 -4 -6 -14q-64 -96 -115 -213q-64 -145 -64 -231
q0 -80 64 -80q24 0 45 10q117 57 227 215q2 4 11 4q6 0 6 -6zM413 371q-22 26 -49 26q-35 0 -65 -37q-103 -118 -152 -274q-6 -18 -6 -35q0 -16 10 -16q8 0 19 8q61 47 151 170q55 74 92 158zM431 515l8 8q46 36 138 104q32 21 59 40q6 4 12 2t7 -11q4 -19 1 -27
q-5 -7 -19 -15q-76 -47 -192 -111q-4 0 -8 1q-9 8 -6 9z" />
    <glyph glyph-name="acircumflex" unicode="&#xe2;" horiz-adv-x="559" 
d="M684 127q0 -6 -4 -10q-113 -146 -234 -217q-45 -27 -88 -27q-47 0 -77.5 28.5t-30.5 75.5q0 64 69 199q-149 -188 -221 -188q-41 0 -41 43q0 16 6 32q90 242 277 355q32 20 65 20q35 0 62 -20q26 31 43 31q6 0 6 -7q0 -4 -6 -14q-64 -96 -115 -213q-64 -145 -64 -231
q0 -80 64 -80q24 0 45 10q117 57 227 215q2 4 11 4q6 0 6 -6zM413 371q-22 26 -49 26q-35 0 -65 -37q-103 -118 -152 -274q-6 -18 -6 -35q0 -16 10 -16q8 0 19 8q61 47 151 170q55 74 92 158zM567 492l-28 -14q-5 0 -5 12l-5 102q0 7 -7 7q-4 0 -9 -4q-51 -31 -68 -44
q-79 -54 -88 -59q-7 0 -7 5q0 11 11 16q43 31 61 44q96 63 119 73q3 2 17 -2q7 0 7 -5q0 -19 4.5 -56.5t4.5 -57.5q0 -14 -7 -17z" />
    <glyph glyph-name="atilde" unicode="&#xe3;" horiz-adv-x="559" 
d="M684 127q0 -6 -4 -10q-113 -146 -234 -217q-45 -27 -88 -27q-47 0 -77.5 28.5t-30.5 75.5q0 64 69 199q-149 -188 -221 -188q-41 0 -41 43q0 16 6 32q90 242 277 355q32 20 65 20q35 0 62 -20q26 31 43 31q6 0 6 -7q0 -4 -6 -14q-64 -96 -115 -213q-64 -145 -64 -231
q0 -80 64 -80q24 0 45 10q117 57 227 215q2 4 11 4q6 0 6 -6zM413 371q-22 26 -49 26q-35 0 -65 -37q-103 -118 -152 -274q-6 -18 -6 -35q0 -16 10 -16q8 0 19 8q61 47 151 170q55 74 92 158zM713 617v3q0 8 -8 8q-10 0 -10 -11q0 -23 -21 -43.5t-52 -20.5q-37 0 -88 38
l-37 28q-23 18 -50 18q-32 0 -107 -52q-28 -19 -45 -37q-6 -7 -6 -12q0 -4 6 -4q8 0 13 7q67 68 113 68q27 0 72 -34q62 -47 103 -47q51 0 94 44q11 12 15 24z" />
    <glyph glyph-name="egrave" unicode="&#xe8;" horiz-adv-x="475" 
d="M638 199q0 -4 -4 -9q-159 -153 -354 -206q-51 -15 -100 -15h-7q-106 0 -106 88q0 52 39 123q90 164 248 234q65 28 102 28h2q45 0 45 -36q0 -117 -330 -238q-26 -59 -26 -90v-4q0 -70 90 -70h4q35 0 66 8q180 49 319 191q4 4 6 4q6 0 6 -8zM425 362v9q0 37 -30 37
q-19 0 -43 -17q-105 -72 -168 -203q229 74 241 174zM491 506q-4 -1 -9 -1q-115 64 -192 111q-14 8 -18 15q-3 8 1 27q1 9 7 11t12 -2q26 -19 58 -40q93 -68 139 -104l8 -8q2 -1 -6 -9z" />
    <glyph glyph-name="eacute" unicode="&#xe9;" horiz-adv-x="475" 
d="M638 199q0 -4 -4 -9q-159 -153 -354 -206q-51 -15 -100 -15h-7q-106 0 -106 88q0 52 39 123q90 164 248 234q65 28 102 28h2q45 0 45 -36q0 -117 -330 -238q-26 -59 -26 -90v-4q0 -70 90 -70h4q35 0 66 8q180 49 319 191q4 4 6 4q6 0 6 -8zM425 362v9q0 37 -30 37
q-19 0 -43 -17q-105 -72 -168 -203q229 74 241 174zM430 515l8 8q46 36 138 104q32 21 59 40q6 4 12 2t7 -11q4 -19 1 -27q-5 -7 -19 -15q-76 -47 -192 -111q-4 0 -8 1q-9 8 -6 9z" />
    <glyph glyph-name="ecircumflex" unicode="&#xea;" horiz-adv-x="475" 
d="M638 199q0 -4 -4 -9q-159 -153 -354 -206q-51 -15 -100 -15h-7q-106 0 -106 88q0 52 39 123q90 164 248 234q65 28 102 28h2q45 0 45 -36q0 -117 -330 -238q-26 -59 -26 -90v-4q0 -70 90 -70h4q35 0 66 8q180 49 319 191q4 4 6 4q6 0 6 -8zM425 362v9q0 37 -30 37
q-19 0 -43 -17q-105 -72 -168 -203q229 74 241 174zM566 492l-28 -14q-5 0 -5 12l-5 102q0 7 -7 7q-4 0 -9 -4q-51 -31 -68 -44q-79 -54 -88 -59q-7 0 -7 5q0 11 11 16q43 31 61 44q96 63 119 73q3 2 17 -2q7 0 7 -5q0 -19 4.5 -56.5t4.5 -57.5q0 -14 -7 -17z" />
    <glyph glyph-name="igrave" unicode="&#xec;" horiz-adv-x="382" 
d="M606 283q0 -4 -4 -9q-180 -213 -365 -299q-82 -38 -125 -38q-55 0 -55 51q0 43 41 121q31 59 188 315q25 39 37 39q19 0 25 -41v-8q0 -11 -8 -21q-45 -53 -82 -112q-84 -136 -109 -218q-6 -20 -6 -32q0 -49 43 -49q12 0 25 4q188 59 381 299q4 4 8 4q6 0 6 -6zM431 516
q-4 -1 -9 -1q-115 64 -192 111q-14 8 -18 15q-3 8 1 27q1 9 7 11t12 -2q26 -19 58 -40q93 -68 139 -104l8 -8q2 -1 -6 -9z" />
    <glyph glyph-name="iacute" unicode="&#xed;" horiz-adv-x="382" 
d="M606 283q0 -4 -4 -9q-180 -213 -365 -299q-82 -38 -125 -38q-55 0 -55 51q0 43 41 121q31 59 188 315q25 39 37 39q19 0 25 -41v-8q0 -11 -8 -21q-45 -53 -82 -112q-84 -136 -109 -218q-6 -20 -6 -32q0 -49 43 -49q12 0 25 4q188 59 381 299q4 4 8 4q6 0 6 -6zM340 544
l8 8q46 36 138 104q32 21 59 40q6 4 12 2t7 -11q4 -19 1 -27q-5 -7 -19 -15q-76 -47 -192 -111q-4 0 -8 1q-9 8 -6 9z" />
    <glyph glyph-name="ograve" unicode="&#xf2;" horiz-adv-x="485" 
d="M782 375q0 -6 -9 -8q-110 -29 -163 -29h-41q-76 0 -127 14q-17 -155 -154 -289q-78 -75 -147 -75q-68 0 -68 63v6q0 144 223 320q29 22 62 39q0 4 6 10q41 29 45 29q12 0 14 -13q15 -80 221 -80q74 0 129 15q2 2 5 2q4 0 4 -4zM368 324v18q0 43 -19 43q-8 0 -28 -14
q-170 -125 -170 -305q0 -52 31 -52q18 0 45 19q141 98 141 291zM491 506q-4 -1 -9 -1q-115 64 -192 111q-14 8 -18 15q-3 8 1 27q1 9 7 11t12 -2q26 -19 58 -40q93 -68 139 -104l8 -8q2 -1 -6 -9z" />
    <glyph glyph-name="oacute" unicode="&#xf3;" horiz-adv-x="485" 
d="M782 375q0 -6 -9 -8q-110 -29 -163 -29h-41q-76 0 -127 14q-17 -155 -154 -289q-78 -75 -147 -75q-68 0 -68 63v6q0 144 223 320q29 22 62 39q0 4 6 10q41 29 45 29q12 0 14 -13q15 -80 221 -80q74 0 129 15q2 2 5 2q4 0 4 -4zM368 324v18q0 43 -19 43q-8 0 -28 -14
q-170 -125 -170 -305q0 -52 31 -52q18 0 45 19q141 98 141 291zM390 515l8 8q46 36 138 104q32 21 59 40q6 4 12 2t7 -11q4 -19 1 -27q-5 -7 -19 -15q-76 -47 -192 -111q-4 0 -8 1q-9 8 -6 9z" />
    <glyph glyph-name="ocircumflex" unicode="&#xf4;" horiz-adv-x="485" 
d="M782 375q0 -6 -9 -8q-110 -29 -163 -29h-41q-76 0 -127 14q-17 -155 -154 -289q-78 -75 -147 -75q-68 0 -68 63v6q0 144 223 320q29 22 62 39q0 4 6 10q41 29 45 29q12 0 14 -13q15 -80 221 -80q74 0 129 15q2 2 5 2q4 0 4 -4zM368 324v18q0 43 -19 43q-8 0 -28 -14
q-170 -125 -170 -305q0 -52 31 -52q18 0 45 19q141 98 141 291zM530 492l-28 -14q-5 0 -5 12l-5 102q0 7 -7 7q-4 0 -9 -4q-51 -31 -68 -44q-79 -54 -88 -59q-7 0 -7 5q0 11 11 16q43 31 61 44q96 63 119 73q3 2 17 -2q7 0 7 -5q0 -19 4.5 -56.5t4.5 -57.5q0 -14 -7 -17z
" />
    <glyph glyph-name="otilde" unicode="&#xf5;" horiz-adv-x="485" 
d="M782 375q0 -6 -9 -8q-110 -29 -163 -29h-41q-76 0 -127 14q-17 -155 -154 -289q-78 -75 -147 -75q-68 0 -68 63v6q0 144 223 320q29 22 62 39q0 4 6 10q41 29 45 29q12 0 14 -13q15 -80 221 -80q74 0 129 15q2 2 5 2q4 0 4 -4zM368 324v18q0 43 -19 43q-8 0 -28 -14
q-170 -125 -170 -305q0 -52 31 -52q18 0 45 19q141 98 141 291zM712 617v3q0 8 -8 8q-10 0 -10 -11q0 -23 -21 -43.5t-52 -20.5q-37 0 -88 38l-37 28q-23 18 -50 18q-32 0 -107 -52q-28 -19 -45 -37q-6 -7 -6 -12q0 -4 6 -4q8 0 13 7q67 68 113 68q27 0 72 -34
q62 -47 103 -47q51 0 94 44q11 12 15 24z" />
    <glyph glyph-name="divide" unicode="&#xf7;" horiz-adv-x="1706" 
 />
    <glyph glyph-name="glyph216" unicode="&#xf9;" horiz-adv-x="548" 
d="M747 209q0 -4 -4 -8q-174 -213 -318 -213q-98 0 -98 94q0 29 10 61q-53 -61 -88 -92q-63 -53 -104 -53q-33 0 -33 37q0 22 14 57q54 133 144 277q8 12 30 47q15 22 72 30q16 -6 16 -10q0 -20 -24 -45q-35 -33 -39 -41q-74 -121 -115 -225q-14 -37 -14 -53q0 -19 12 -19
q31 0 107 101q59 90 178 270q12 18 25 18q24 0 24 -36q0 -17 -12 -35q-139 -201 -139 -297q0 -58 61 -58q18 0 51 9q109 26 232 184q4 6 8 6t4 -6zM490 506q-4 -1 -9 -1q-115 64 -192 111q-14 8 -18 15q-3 8 1 27q1 9 7 11t12 -2q26 -19 58 -40q93 -68 139 -104l8 -8
q2 -1 -6 -9z" />
    <glyph glyph-name="glyph217" unicode="&#xfa;" horiz-adv-x="548" 
d="M747 209q0 -4 -4 -8q-174 -213 -318 -213q-98 0 -98 94q0 29 10 61q-53 -61 -88 -92q-63 -53 -104 -53q-33 0 -33 37q0 22 14 57q54 133 144 277q8 12 30 47q15 22 72 30q16 -6 16 -10q0 -20 -24 -45q-35 -33 -39 -41q-74 -121 -115 -225q-14 -37 -14 -53q0 -19 12 -19
q31 0 107 101q59 90 178 270q12 18 25 18q24 0 24 -36q0 -17 -12 -35q-139 -201 -139 -297q0 -58 61 -58q18 0 51 9q109 26 232 184q4 6 8 6t4 -6zM448 515l8 8q46 36 138 104q32 21 59 40q6 4 12 2t7 -11q4 -19 1 -27q-5 -7 -19 -15q-76 -47 -192 -111q-4 0 -8 1q-9 8 -6 9
z" />
    <glyph glyph-name="glyph234" unicode="&#xfd;" horiz-adv-x="538" 
d="M654 498q0 -21 -25 -49q-86 -97 -299 -353q-313 -397 -449 -680q-110 -231 -110 -372v-13q0 -84 43 -125q22 -20 24 -24q0 -8 -6 -8t-10 4q-35 30 -82 64t-47 102v4q0 71 39 164q72 170 203 372q65 103 245 350q15 19 66 89q-55 -35 -76 -35q-16 0 -16 18q0 -2 41 158
q2 10 43 201q-2 14 12 38q10 7 33 7q35 0 35 -31q0 -12 -4 -25q-64 -186 -80 -284v-11q0 -14 10 -14q12 0 31 12l143 185q174 225 174 276q0 4 -3 9t-3 10q0 8 8 8q6 0 29.5 -14.5t27 -20.5t3.5 -12zM424 515l8 8q46 36 138 104q32 21 59 40q6 4 12 2t7 -11q4 -19 1 -27
q-5 -7 -19 -15q-76 -47 -192 -111q-4 0 -8 1q-9 8 -6 9z" />
    <glyph glyph-name="Abreve" unicode="&#x102;" 
d="M1689 72q-37 -37 -110.5 -76t-118.5 -39q-62 2 -72 88q-2 66 -2 133q-2 101 6 197q-84 -8 -221 -10h-82l-6 -7q-121 -125 -238 -219q-233 -190 -436 -186q-123 2 -203 72q-86 73 -92 194q-4 62 32 163t81 134l6 2l6 -2q0 2 -34 -74.5t-34 -126.5q-2 -137 91 -213
q81 -69 223 -71q160 -2 319 104q111 74 256 230q-10 2 -22 6q-4 12 6 20q2 4 41 0q221 256 411 572l48 77q63 107 116 107q41 0 39 -74q-26 21 -43 21q-86 4 -114.5 -141.5t-42.5 -264.5q-23 -182 -23 -383q0 -289 72 -289q26 0 135 70zM1486 918q-200 -322 -381 -529l49 -2
l240 8q16 150 33 250q26 164 59 273zM1867 1364h21q-23 -37 -84 -84q-72 -55 -146 -55q-45 0 -67 24q-8 0 -27 56q-10 32 12 84h17q-8 -23 -8 -33q2 -23 2 -13q0 -71 92 -71q65 0 108 28q9 7 80 64z" />
    <glyph glyph-name="abreve" unicode="&#x103;" horiz-adv-x="559" 
d="M684 127q0 -6 -4 -10q-113 -146 -234 -217q-45 -27 -88 -27q-47 0 -77.5 28.5t-30.5 75.5q0 64 69 199q-149 -188 -221 -188q-41 0 -41 43q0 16 6 32q90 242 277 355q32 20 65 20q35 0 62 -20q26 31 43 31q6 0 6 -7q0 -4 -6 -14q-64 -96 -115 -213q-64 -145 -64 -231
q0 -80 64 -80q24 0 45 10q117 57 227 215q2 4 11 4q6 0 6 -6zM413 371q-22 26 -49 26q-35 0 -65 -37q-103 -118 -152 -274q-6 -18 -6 -35q0 -16 10 -16q8 0 19 8q61 47 151 170q55 74 92 158zM624 607h16q-18 -30 -68 -68q-57 -44 -117 -44q-36 0 -55 19q-19 15 -24.5 43
t13.5 70h13q-7 -18 -7 -33q2 -61 76 -61q66 -5 153 74z" />
    <glyph glyph-name="Ccaron" unicode="&#x10c;" horiz-adv-x="1274" 
 />
    <glyph glyph-name="ccaron" unicode="&#x10d;" horiz-adv-x="922" 
 />
    <glyph glyph-name="Dslash" unicode="&#x110;" horiz-adv-x="1779" 
d="M1746 514q0 -201 -161 -367q-150 -155 -355 -202q-114 -27 -243 -27q-258 0 -469 98q-138 -84 -252 -84q-160 0 -160 150q0 68 41 170q18 49 37 96q6 19 18 19q13 0 25 -15q155 -188 332 -286q122 92 256 301q-119 -7 -189 -7q-33 0 -33 33q0 6 11 6q6 0 17 -2t15 -2
q62 -2 103 -2q16 0 94 4q66 111 90 158q2 2 187 379h-33q-234 0 -387 -84q-66 -35 -140 -115q-86 -94 -86 -153q0 -4 9 -21q0 -6 -9 -6l-30 18q-41 25 -41 43q0 7 4 17q37 100 151 178q207 139 527 139h43q69 144 114 197q74 88 189 123h4q6 0 6 -4q0 -6 -8 -9
q-70 -14 -121 -112q-25 -47 -102 -201q182 -18 317 -90q168 -88 215 -236q14 -45 14 -104zM1677 543q0 209 -215 313q-115 55 -271 72q-34 -62 -122 -226q-101 -184 -181 -303l31 2q31 2 143 2h43q19 -2 19 -26q0 -10 -8 -10q-11 0 -31.5 2t-32.5 2t-76 2q-53 2 -77 0
l-31 -2q-107 -154 -205 -244q-41 -37 -86 -70q223 -118 449 -118q309 0 493 208q68 78 113 187.5t45 208.5zM499 25q-178 86 -311 235q-4 4 -8 4q-8 0 -13 -8q-26 -59 -26 -104q0 -80 78 -142q47 -37 114 -37q80 0 166 52z" />
    <glyph glyph-name="dcroat" unicode="&#x111;" horiz-adv-x="565" 
d="M435 330q-80 -154 -219 -285q-39 -37 -51 -27q-6 5 -6 17q0 31 39 121q67 161 155 252q21 20 43 18q49 -6 49 -59q0 -17 -10 -37zM488 436q-12 17 -28 21q-17 4 -33 0q-76 -11 -127 -54q-119 -100 -190 -278q-27 -68 -27 -105q0 -49 35 -49q57 0 153 105l54 57
q-45 -82 -82 -176q-29 -72 -13 -88q7 -6 17 -6q43 0 182 96q188 131 322 274q10 13 6 19q-6 6 -17 -4q-174 -189 -329 -277q-68 -39 -82 -26q-17 12 16 84q202 443 464 864q52 2 73 2q98 0 111 -4h5q2 0 3 -2t3 -2q6 -2 9 8l2 6q2 14 -15 21l-7 2q-45 2 -90 2q-35 0 -75 -3
q87 139 181 275q-25 -27 -41 -27q-6 0 -16.5 8.5t-16.5 8.5q-16 0 -49 -53q-66 -108 -129 -215q-27 -2 -86 -5h-72q-13 -2 -21 0l-18 5q-4 -5 -6 -13l4 -8q9 -14 20 -18q2 -2 17 0q27 2 145 10q-132 -227 -252 -455z" />
    <glyph glyph-name="Itilde" unicode="&#x128;" horiz-adv-x="935" 
d="M1126 1110q8 -10 -7 -23q-112 -88 -206 -229q-46 -67 -189 -348l-98 -193q-103 -202 -189 -274q-100 -84 -229 -82q-98 2 -166 51q-6 4 -4 13q2 6 12 0q56 -37 133 -37q160 0 283 211l92 157l264 439q86 129 187 223q-70 -37 -160 -37q-45 0 -132 8t-132 8
q-94 0 -158 -71q-39 -47 -88 -160q-4 -10 -12 -6q-8 6 -4 16q49 131 84 193q71 116 157 116q27 0 179 -30q100 -21 180 -21q43 0 82 10q24 7 100 62q14 10 21 4zM1180 1311v3q0 8 -8 8q-10 0 -10 -11q0 -23 -21.5 -43.5t-52.5 -20.5q-37 0 -87 38l-37 28q-24 18 -51 18
q-31 0 -107 -52q-27 -19 -45 -37q-5 -7 -5 -12q0 -4 5 -4q8 0 14 7q66 68 113 68q27 0 72 -34q62 -47 103 -47q50 0 93 44q12 12 16 24z" />
    <glyph glyph-name="itilde" unicode="&#x129;" horiz-adv-x="382" 
d="M606 283q0 -4 -4 -9q-180 -213 -365 -299q-82 -38 -125 -38q-55 0 -55 51q0 43 41 121q31 59 188 315q25 39 37 39q19 0 25 -41v-8q0 -11 -8 -21q-45 -53 -82 -112q-84 -136 -109 -218q-6 -20 -6 -32q0 -49 43 -49q12 0 25 4q188 59 381 299q4 4 8 4q6 0 6 -6zM613 617v3
q0 8 -8 8q-10 0 -10 -11q0 -23 -21 -43.5t-52 -20.5q-37 0 -88 38l-37 28q-23 18 -50 18q-32 0 -107 -52q-28 -19 -45 -37q-6 -7 -6 -12q0 -4 6 -4q8 0 13 7q67 68 113 68q27 0 72 -34q62 -47 103 -47q51 0 94 44q11 12 15 24z" />
    <glyph glyph-name="Utilde" unicode="&#x168;" horiz-adv-x="1794" 
d="M1818 252q-198 -342 -401 -342q-125 0 -125 143q0 129 107 439l-60 -84q-86 -121 -209 -240q-190 -182 -372 -182q-84 0 -140.5 50t-56.5 132q0 141 121 324q94 141 383 430q-203 -13 -309 -25q-179 -20 -304 -63q-235 -80 -299 -302q-2 -8 -10 -8t-8 8q147 476 1014 476
q20 14 35 24q8 6 12 2t4 -8q0 -6 -4 -14q-543 -457 -543 -799q0 -78 49 -125t127 -47q115 0 279 139q61 53 170 182q114 140 139 201q98 240 197 420q61 113 127 113q32 0 30 -35q-2 -33 -12 -53q-92 12 -125 -35q-6 -8 -96 -230q-57 -141 -103 -307q-55 -200 -55 -315
q0 -152 90 -156q142 -6 336 299q8 6 12 4q5 -4 0 -16zM1756 1331v3q0 8 -8 8q-9 0 -9 -11q0 -23 -21.5 -43.5t-52.5 -20.5q-37 0 -88 38l-37 28q-23 18 -50 18q-31 0 -107 -52q-28 -19 -45 -37q-6 -7 -6 -12q0 -4 6 -4q8 0 14 7q66 68 112 68q28 0 72 -34q63 -47 103 -47
q51 0 94 44q11 12 15 24z" />
    <glyph glyph-name="utilde" unicode="&#x169;" horiz-adv-x="548" 
d="M747 209q0 -4 -4 -8q-174 -213 -318 -213q-98 0 -98 94q0 29 10 61q-53 -61 -88 -92q-63 -53 -104 -53q-33 0 -33 37q0 22 14 57q54 133 144 277q8 12 30 47q15 22 72 30q16 -6 16 -10q0 -20 -24 -45q-35 -33 -39 -41q-74 -121 -115 -225q-14 -37 -14 -53q0 -19 12 -19
q31 0 107 101q59 90 178 270q12 18 25 18q24 0 24 -36q0 -17 -12 -35q-139 -201 -139 -297q0 -58 61 -58q18 0 51 9q109 26 232 184q4 6 8 6t4 -6zM711 617v3q0 8 -8 8q-10 0 -10 -11q0 -23 -21 -43.5t-52 -20.5q-37 0 -88 38l-37 28q-23 18 -50 18q-32 0 -107 -52
q-28 -19 -45 -37q-6 -7 -6 -12q0 -4 6 -4q8 0 13 7q67 68 113 68q27 0 72 -34q62 -47 103 -47q51 0 94 44q11 12 15 24z" />
    <glyph glyph-name="Ohorn" unicode="&#x1a0;" horiz-adv-x="1445" 
d="M1544 838q-2 -70 -16 -125q-64 -234 -342 -498q-142 -133 -318 -217q-196 -94 -370 -92q-150 2 -250 69q-115 80 -115 222q0 194 223 462q58 70 201 195q162 143 217 158q10 4 14 0q2 -4 -2 -13q-84 -45 -213 -170q-118 -112 -184 -202q-147 -203 -150 -391
q0 -130 89 -209q81 -76 215 -80q151 -4 333 86q164 80 287 198q113 109 191 250q102 185 100 348q-2 119 -67.5 198t-180.5 81q-110 2 -194 -53q-97 -64 -97 -170q0 -58 29 -88q-104 2 -104 86q0 35 36 80q146 174 373 174q139 0 218 -80t77 -219zM1255 1141zM1577 998.5
q34 17.5 54.5 47.5t-6 44.5t-9.5 31.5t46 20t44 -22.5t-6 -59.5q-59 -82 -204 -112l7 20q40 13 74 30.5z" />
    <glyph glyph-name="ohorn" unicode="&#x1a1;" horiz-adv-x="485" 
d="M368 324v18q0 43 -19 43q-8 0 -28 -14q-170 -125 -170 -305q0 -52 30 -52q19 0 45 19q142 98 142 291zM496 379q54 -17 148 -17q74 0 129 15q2 2 4 2q4 0 4 -4q0 -6 -8 -8q-110 -29 -164 -29h-41q-75 0 -127 14q-16 -155 -153 -289q-78 -75 -148 -75q-67 0 -67 63v6
q0 144 223 320q29 22 61 39q0 4 7 10q41 29 45 29q12 0 14 -13q6 -34 46 -53q3 1 6 3q28 14 44.5 38.5t-5.5 36.5t-8 26t38 16t36 -18.5t-5 -48.5q-28 -39 -79 -63z" />
    <glyph glyph-name="Uhorn" unicode="&#x1af;" horiz-adv-x="1794" 
d="M1633 954q-11 -20 -95 -211q-57 -141 -103 -307q-55 -200 -55 -315q0 -152 90 -156q142 -6 336 299q8 6 12 4q5 -4 0 -16q-198 -342 -401 -342q-125 0 -125 143q0 129 107 439l-60 -84q-86 -121 -209 -240q-190 -182 -372 -182q-84 0 -140.5 50t-56.5 132q0 141 121 324
q94 141 383 430q-203 -13 -309 -25q-179 -20 -304 -63q-235 -80 -299 -302q-2 -8 -10 -8t-8 8q147 476 1014 476q20 14 35 24q8 6 12 2t4 -8q0 -6 -4 -14q-543 -457 -543 -799q0 -78 49 -125t127 -47q115 0 279 139q61 53 170 182q114 140 139 201q98 240 197 420
q42 84 84 72q-29 -36 -52 -76q23 9 43 20q34 17 54 47t-6.5 44.5t-9.5 31.5t46 20t44 -22.5t-6 -59.5q-54 -75 -178 -106z" />
    <glyph glyph-name="uhorn" unicode="&#x1b0;" horiz-adv-x="548" 
d="M522 361q-132 -193 -132 -287q0 -58 62 -58q18 0 51 9q108 26 231 184q4 6 8 6q5 0 5 -6q0 -4 -5 -8q-174 -213 -317 -213q-98 0 -98 94q0 29 10 61q-53 -61 -88 -92q-64 -53 -105 -53q-32 0 -32 37q0 22 14 57q53 133 143 277q9 12 31 47q14 22 72 30q16 -6 16 -10
q0 -20 -24 -45q-35 -33 -39 -41q-74 -121 -115 -225q-14 -37 -14 -53q0 -19 12 -19q31 0 106 101q60 90 179 270q12 18 24 18q25 0 25 -36q0 -9 -4 -19q5 2 9 5q28 14 44.5 38.5t-5.5 36.5t-8 26t38 16t36 -18.5t-5 -48.5q-39 -54 -125 -81z" />
    <glyph glyph-name="uni1EA0" unicode="&#x1ea0;" 
d="M1689 72q-37 -37 -110.5 -76t-118.5 -39q-62 2 -72 88q-2 66 -2 133q-2 101 6 197q-84 -8 -221 -10h-82l-6 -7q-121 -125 -238 -219q-233 -190 -436 -186q-123 2 -203 72q-86 73 -92 194q-4 62 32 163t81 134l6 2l6 -2q0 2 -34 -74.5t-34 -126.5q-2 -137 91 -213
q81 -69 223 -71q160 -2 319 104q111 74 256 230q-10 2 -22 6q-4 12 6 20q2 4 41 0q221 256 411 572l48 77q63 107 116 107q41 0 39 -74q-26 21 -43 21q-86 4 -114.5 -141.5t-42.5 -264.5q-23 -182 -23 -383q0 -289 72 -289q26 0 135 70zM1486 918q-200 -322 -381 -529l49 -2
l240 8q16 150 33 250q26 164 59 273zM1038 -107q-37 -7 -52 -52q-3 -8 0 -23q2 -12 15 -22q20 -15 42.5 1t27.5 41q5 23 -2.5 41.5t-30.5 13.5z" />
    <glyph glyph-name="uni1EA1" unicode="&#x1ea1;" horiz-adv-x="559" 
d="M684 127q0 -6 -4 -10q-113 -146 -234 -217q-45 -27 -88 -27q-47 0 -77.5 28.5t-30.5 75.5q0 64 69 199q-149 -188 -221 -188q-41 0 -41 43q0 16 6 32q90 242 277 355q32 20 65 20q35 0 62 -20q26 31 43 31q6 0 6 -7q0 -4 -6 -14q-64 -96 -115 -213q-64 -145 -64 -231
q0 -80 64 -80q24 0 45 10q117 57 227 215q2 4 11 4q6 0 6 -6zM413 371q-22 26 -49 26q-35 0 -65 -37q-103 -118 -152 -274q-6 -18 -6 -35q0 -16 10 -16q8 0 19 8q61 47 151 170q55 74 92 158zM134 -137q-37 -7 -52 -52q-3 -8 0 -23q2 -12 15 -22q20 -15 42.5 1t27.5 41
q5 23 -2.5 41.5t-30.5 13.5z" />
    <glyph glyph-name="uni1EA2" unicode="&#x1ea2;" 
d="M1689 72q-37 -37 -110.5 -76t-118.5 -39q-62 2 -72 88q-2 66 -2 133q-2 101 6 197q-84 -8 -221 -10h-82l-6 -7q-121 -125 -238 -219q-233 -190 -436 -186q-123 2 -203 72q-86 73 -92 194q-4 62 32 163t81 134l6 2l6 -2q0 2 -34 -74.5t-34 -126.5q-2 -137 91 -213
q81 -69 223 -71q160 -2 319 104q111 74 256 230q-10 2 -22 6q-4 12 6 20q2 4 41 0q221 256 411 572l48 77q63 107 116 107q41 0 39 -74q-26 21 -43 21q-86 4 -114.5 -141.5t-42.5 -264.5q-23 -182 -23 -383q0 -289 72 -289q26 0 135 70zM1486 918q-200 -322 -381 -529l49 -2
l240 8q16 150 33 250q26 164 59 273zM1667 1258q-2 4 -2 7t2 8q18 27 79 67q79 51 88 59q35 29 35 63q0 48 -60 48q-28 0 -61 -16t-54 -36q0 -4 -9 -4h-9q14 40 12 35t11 5q43 32 101 32q95 0 95 -71q0 -57 -92 -122q-20 -14 -70 -51q-30 -23 -30 -63l1 -16l-21 10
q-5 27 -16 45z" />
    <glyph glyph-name="uni1EA3" unicode="&#x1ea3;" horiz-adv-x="559" 
d="M684 127q0 -6 -4 -10q-113 -146 -234 -217q-45 -27 -88 -27q-47 0 -77.5 28.5t-30.5 75.5q0 64 69 199q-149 -188 -221 -188q-41 0 -41 43q0 16 6 32q90 242 277 355q32 20 65 20q35 0 62 -20q26 31 43 31q6 0 6 -7q0 -4 -6 -14q-64 -96 -115 -213q-64 -145 -64 -231
q0 -80 64 -80q24 0 45 10q117 57 227 215q2 4 11 4q6 0 6 -6zM413 371q-22 26 -49 26q-35 0 -65 -37q-103 -118 -152 -274q-6 -18 -6 -35q0 -16 10 -16q8 0 19 8q61 47 151 170q55 74 92 158zM436 554q-2 4 -2 7t2 8q18 27 79 67q79 51 88 59q35 29 35 63q0 48 -60 48
q-28 0 -61 -16t-54 -36q0 -4 -9 -4h-9q14 40 12 35t11 5q43 32 101 32q95 0 95 -71q0 -57 -92 -122q-20 -14 -70 -51q-30 -23 -30 -63l1 -16l-21 10q-5 27 -16 45z" />
    <glyph glyph-name="uni1EA4" unicode="&#x1ea4;" 
d="M1689 72q-37 -37 -110.5 -76t-118.5 -39q-62 2 -72 88q-2 66 -2 133q-2 101 6 197q-84 -8 -221 -10h-82l-6 -7q-121 -125 -238 -219q-233 -190 -436 -186q-123 2 -203 72q-86 73 -92 194q-4 62 32 163t81 134l6 2l6 -2q0 2 -34 -74.5t-34 -126.5q-2 -137 91 -213
q81 -69 223 -71q160 -2 319 104q111 74 256 230q-10 2 -22 6q-4 12 6 20q2 4 41 0q221 256 411 572l48 77q63 107 116 107q41 0 39 -74q-26 21 -43 21q-86 4 -114.5 -141.5t-42.5 -264.5q-23 -182 -23 -383q0 -289 72 -289q26 0 135 70zM1486 918q-200 -322 -381 -529l49 -2
l240 8q16 150 33 250q26 164 59 273zM1829 1307l8 8q46 36 139 104q32 21 58 40q6 4 12 2t7 -11q4 -19 1 -27q-5 -7 -19 -15q-76 -47 -192 -111q-4 0 -8 1q-8 8 -6 9zM1794 1202l-33 -16q-6 0 -6 14l-6 119q0 8 -8 8q-4 0 -10 -4q-60 -37 -80 -51q-92 -64 -103 -70
q-8 0 -8 6q0 13 12 19q52 37 72 51q113 74 139 86q4 2 21 -2q8 0 8 -6q0 -23 5 -67t5 -66q0 -17 -8 -21z" />
    <glyph glyph-name="uni1EA5" unicode="&#x1ea5;" horiz-adv-x="559" 
d="M684 127q0 -6 -4 -10q-113 -146 -234 -217q-45 -27 -88 -27q-47 0 -77.5 28.5t-30.5 75.5q0 64 69 199q-149 -188 -221 -188q-41 0 -41 43q0 16 6 32q90 242 277 355q32 20 65 20q35 0 62 -20q26 31 43 31q6 0 6 -7q0 -4 -6 -14q-64 -96 -115 -213q-64 -145 -64 -231
q0 -80 64 -80q24 0 45 10q117 57 227 215q2 4 11 4q6 0 6 -6zM413 371q-22 26 -49 26q-35 0 -65 -37q-103 -118 -152 -274q-6 -18 -6 -35q0 -16 10 -16q8 0 19 8q61 47 151 170q55 74 92 158zM591 592l8 8q46 36 138 104q32 21 59 40q6 4 12 2t7 -11q4 -19 1 -27
q-5 -7 -19 -15q-76 -47 -192 -111q-4 0 -8 1q-9 8 -6 9zM567 492l-28 -14q-5 0 -5 12l-5 102q0 7 -7 7q-4 0 -9 -4q-51 -31 -68 -44q-79 -54 -88 -59q-7 0 -7 5q0 11 11 16q43 31 61 44q96 63 119 73q3 2 17 -2q7 0 7 -5q0 -19 4.5 -56.5t4.5 -57.5q0 -14 -7 -17z" />
    <glyph glyph-name="uni1EA6" unicode="&#x1ea6;" 
d="M1689 72q-37 -37 -110.5 -76t-118.5 -39q-62 2 -72 88q-2 66 -2 133q-2 101 6 197q-84 -8 -221 -10h-82l-6 -7q-121 -125 -238 -219q-233 -190 -436 -186q-123 2 -203 72q-86 73 -92 194q-4 62 32 163t81 134l6 2l6 -2q0 2 -34 -74.5t-34 -126.5q-2 -137 91 -213
q81 -69 223 -71q160 -2 319 104q111 74 256 230q-10 2 -22 6q-4 12 6 20q2 4 41 0q221 256 411 572l48 77q63 107 116 107q41 0 39 -74q-26 21 -43 21q-86 4 -114.5 -141.5t-42.5 -264.5q-23 -182 -23 -383q0 -289 72 -289q26 0 135 70zM1486 918q-200 -322 -381 -529l49 -2
l240 8q16 150 33 250q26 164 59 273zM1845 1370q-4 -1 -8 -1q-116 64 -192 111q-14 8 -19 15q-3 8 1 27q1 9 7 11t12 -2q26 -19 58 -40q93 -68 139 -104l8 -8q2 -1 -6 -9zM1794 1202l-33 -16q-6 0 -6 14l-6 119q0 8 -8 8q-4 0 -10 -4q-60 -37 -80 -51q-92 -64 -103 -70
q-8 0 -8 6q0 13 12 19q52 37 72 51q113 74 139 86q4 2 21 -2q8 0 8 -6q0 -23 5 -67t5 -66q0 -17 -8 -21z" />
    <glyph glyph-name="uni1EA7" unicode="&#x1ea7;" horiz-adv-x="559" 
d="M684 127q0 -6 -4 -10q-113 -146 -234 -217q-45 -27 -88 -27q-47 0 -77.5 28.5t-30.5 75.5q0 64 69 199q-149 -188 -221 -188q-41 0 -41 43q0 16 6 32q90 242 277 355q32 20 65 20q35 0 62 -20q26 31 43 31q6 0 6 -7q0 -4 -6 -14q-64 -96 -115 -213q-64 -145 -64 -231
q0 -80 64 -80q24 0 45 10q117 57 227 215q2 4 11 4q6 0 6 -6zM413 371q-22 26 -49 26q-35 0 -65 -37q-103 -118 -152 -274q-6 -18 -6 -35q0 -16 10 -16q8 0 19 8q61 47 151 170q55 74 92 158zM627 617q-4 -1 -9 -1q-115 64 -192 111q-14 8 -18 15q-3 8 1 27q1 9 7 11t12 -2
q26 -19 58 -40q93 -68 139 -104l8 -8q2 -1 -6 -9zM567 492l-28 -14q-5 0 -5 12l-5 102q0 7 -7 7q-4 0 -9 -4q-51 -31 -68 -44q-79 -54 -88 -59q-7 0 -7 5q0 11 11 16q43 31 61 44q96 63 119 73q3 2 17 -2q7 0 7 -5q0 -19 4.5 -56.5t4.5 -57.5q0 -14 -7 -17z" />
    <glyph glyph-name="uni1EA8" unicode="&#x1ea8;" 
d="M1689 72q-37 -37 -110.5 -76t-118.5 -39q-62 2 -72 88q-2 66 -2 133q-2 101 6 197q-84 -8 -221 -10h-82l-6 -7q-121 -125 -238 -219q-233 -190 -436 -186q-123 2 -203 72q-86 73 -92 194q-4 62 32 163t81 134l6 2l6 -2q0 2 -34 -74.5t-34 -126.5q-2 -137 91 -213
q81 -69 223 -71q160 -2 319 104q111 74 256 230q-10 2 -22 6q-4 12 6 20q2 4 41 0q221 256 411 572l48 77q63 107 116 107q41 0 39 -74q-26 21 -43 21q-86 4 -114.5 -141.5t-42.5 -264.5q-23 -182 -23 -383q0 -289 72 -289q26 0 135 70zM1486 918q-200 -322 -381 -529l49 -2
l240 8q16 150 33 250q26 164 59 273zM1830 1318q-2 4 -2 7t2 8q18 27 79 67q79 51 88 59q35 29 35 63q0 48 -60 48q-28 0 -61 -16t-54 -36q0 -4 -9 -4h-9q14 40 12 35t11 5q43 32 101 32q95 0 95 -71q0 -57 -92 -122q-20 -14 -70 -51q-30 -23 -30 -63l1 -16l-21 10
q-5 27 -16 45zM1794 1202l-33 -16q-6 0 -6 14l-6 119q0 8 -8 8q-4 0 -10 -4q-60 -37 -80 -51q-92 -64 -103 -70q-8 0 -8 6q0 13 12 19q52 37 72 51q113 74 139 86q4 2 21 -2q8 0 8 -6q0 -23 5 -67t5 -66q0 -17 -8 -21z" />
    <glyph glyph-name="uni1EA9" unicode="&#x1ea9;" horiz-adv-x="559" 
d="M684 127q0 -6 -4 -10q-113 -146 -234 -217q-45 -27 -88 -27q-47 0 -77.5 28.5t-30.5 75.5q0 64 69 199q-149 -188 -221 -188q-41 0 -41 43q0 16 6 32q90 242 277 355q32 20 65 20q35 0 62 -20q26 31 43 31q6 0 6 -7q0 -4 -6 -14q-64 -96 -115 -213q-64 -145 -64 -231
q0 -80 64 -80q24 0 45 10q117 57 227 215q2 4 11 4q6 0 6 -6zM413 371q-22 26 -49 26q-35 0 -65 -37q-103 -118 -152 -274q-6 -18 -6 -35q0 -16 10 -16q8 0 19 8q61 47 151 170q55 74 92 158zM594 535q-2 4 -2 7t2 8q18 27 79 67q79 51 88 59q35 29 35 63q0 48 -60 48
q-28 0 -61 -16t-54 -36q0 -4 -9 -4h-9q14 40 12 35t11 5q43 32 101 32q95 0 95 -71q0 -57 -92 -122q-20 -14 -70 -51q-30 -23 -30 -63l1 -16l-21 10q-5 27 -16 45zM567 492l-28 -14q-5 0 -5 12l-5 102q0 7 -7 7q-4 0 -9 -4q-51 -31 -68 -44q-79 -54 -88 -59q-7 0 -7 5
q0 11 11 16q43 31 61 44q96 63 119 73q3 2 17 -2q7 0 7 -5q0 -19 4.5 -56.5t4.5 -57.5q0 -14 -7 -17z" />
    <glyph glyph-name="uni1EAA" unicode="&#x1eaa;" 
d="M1689 72q-37 -37 -110.5 -76t-118.5 -39q-62 2 -72 88q-2 66 -2 133q-2 101 6 197q-84 -8 -221 -10h-82l-6 -7q-121 -125 -238 -219q-233 -190 -436 -186q-123 2 -203 72q-86 73 -92 194q-4 62 32 163t81 134l6 2l6 -2q0 2 -34 -74.5t-34 -126.5q-2 -137 91 -213
q81 -69 223 -71q160 -2 319 104q111 74 256 230q-10 2 -22 6q-4 12 6 20q2 4 41 0q221 256 411 572l48 77q63 107 116 107q41 0 39 -74q-26 21 -43 21q-86 4 -114.5 -141.5t-42.5 -264.5q-23 -182 -23 -383q0 -289 72 -289q26 0 135 70zM1486 918q-200 -322 -381 -529l49 -2
l240 8q16 150 33 250q26 164 59 273zM2022 1425q-4 -12 -15 -24q-43 -44 -94 -44q-41 0 -103 47q-45 34 -72 34q-46 0 -113 -68q-5 -7 -13 -7q-6 0 -6 4q0 5 6 12q17 18 45 37q75 52 107 52q27 0 50 -18l37 -28q51 -38 88 -38q31 0 52 20.5t21 43.5q0 11 10 11q8 0 8 -8v-3z
M1794 1202l-33 -16q-6 0 -6 14l-6 119q0 8 -8 8q-4 0 -10 -4q-60 -37 -80 -51q-92 -64 -103 -70q-8 0 -8 6q0 13 12 19q52 37 72 51q113 74 139 86q4 2 21 -2q8 0 8 -6q0 -23 5 -67t5 -66q0 -17 -8 -21z" />
    <glyph glyph-name="uni1EAB" unicode="&#x1eab;" horiz-adv-x="559" 
d="M684 127q0 -6 -4 -10q-113 -146 -234 -217q-45 -27 -88 -27q-47 0 -77.5 28.5t-30.5 75.5q0 64 69 199q-149 -188 -221 -188q-41 0 -41 43q0 16 6 32q90 242 277 355q32 20 65 20q35 0 62 -20q26 31 43 31q6 0 6 -7q0 -4 -6 -14q-64 -96 -115 -213q-64 -145 -64 -231
q0 -80 64 -80q24 0 45 10q117 57 227 215q2 4 11 4q6 0 6 -6zM413 371q-22 26 -49 26q-35 0 -65 -37q-103 -118 -152 -274q-6 -18 -6 -35q0 -16 10 -16q8 0 19 8q61 47 151 170q55 74 92 158zM803 685q-4 -12 -15 -24q-43 -44 -94 -44q-41 0 -103 47q-45 34 -72 34
q-46 0 -113 -68q-5 -7 -13 -7q-6 0 -6 4q0 5 6 12q17 18 45 37q75 52 107 52q27 0 50 -18l37 -28q51 -38 88 -38q31 0 52 20.5t21 43.5q0 11 10 11q8 0 8 -8v-3zM567 492l-28 -14q-5 0 -5 12l-5 102q0 7 -7 7q-4 0 -9 -4q-51 -31 -68 -44q-79 -54 -88 -59q-7 0 -7 5
q0 11 11 16q43 31 61 44q96 63 119 73q3 2 17 -2q7 0 7 -5q0 -19 4.5 -56.5t4.5 -57.5q0 -14 -7 -17z" />
    <glyph glyph-name="uni1EAC" unicode="&#x1eac;" 
d="M1689 72q-37 -37 -110.5 -76t-118.5 -39q-62 2 -72 88q-2 66 -2 133q-2 101 6 197q-84 -8 -221 -10h-82l-6 -7q-121 -125 -238 -219q-233 -190 -436 -186q-123 2 -203 72q-86 73 -92 194q-4 62 32 163t81 134l6 2l6 -2q0 2 -34 -74.5t-34 -126.5q-2 -137 91 -213
q81 -69 223 -71q160 -2 319 104q111 74 256 230q-10 2 -22 6q-4 12 6 20q2 4 41 0q221 256 411 572l48 77q63 107 116 107q41 0 39 -74q-26 21 -43 21q-86 4 -114.5 -141.5t-42.5 -264.5q-23 -182 -23 -383q0 -289 72 -289q26 0 135 70zM1486 918q-200 -322 -381 -529l49 -2
l240 8q16 150 33 250q26 164 59 273zM1038 -107q-37 -7 -52 -52q-3 -8 0 -23q2 -12 15 -22q20 -15 42.5 1t27.5 41q5 23 -2.5 41.5t-30.5 13.5zM1802 1223q0 22 -5 66t-5 67q0 6 -8 6q-17 4 -21 2q-26 -12 -139 -86q-20 -14 -72 -51q-12 -6 -12 -19q0 -6 8 -6q11 6 103 70
q20 14 80 51q6 4 10 4q8 0 8 -8l6 -119q0 -14 6 -14l33 16q8 4 8 21z" />
    <glyph glyph-name="uni1EAD" unicode="&#x1ead;" horiz-adv-x="559" 
d="M684 127q0 -6 -4 -10q-113 -146 -234 -217q-45 -27 -88 -27q-47 0 -77.5 28.5t-30.5 75.5q0 64 69 199q-149 -188 -221 -188q-41 0 -41 43q0 16 6 32q90 242 277 355q32 20 65 20q35 0 62 -20q26 31 43 31q6 0 6 -7q0 -4 -6 -14q-64 -96 -115 -213q-64 -145 -64 -231
q0 -80 64 -80q24 0 45 10q117 57 227 215q2 4 11 4q6 0 6 -6zM413 371q-22 26 -49 26q-35 0 -65 -37q-103 -118 -152 -274q-6 -18 -6 -35q0 -16 10 -16q8 0 19 8q61 47 151 170q55 74 92 158zM134 -137q-37 -7 -52 -52q-3 -8 0 -23q2 -12 15 -22q20 -15 42.5 1t27.5 41
q5 23 -2.5 41.5t-30.5 13.5zM567 492l-28 -14q-5 0 -5 12l-5 102q0 7 -7 7q-4 0 -9 -4q-51 -31 -68 -44q-79 -54 -88 -59q-7 0 -7 5q0 11 11 16q43 31 61 44q96 63 119 73q3 2 17 -2q7 0 7 -5q0 -19 4.5 -56.5t4.5 -57.5q0 -14 -7 -17z" />
    <glyph glyph-name="uni1EAE" unicode="&#x1eae;" 
d="M1689 72q-37 -37 -110.5 -76t-118.5 -39q-62 2 -72 88q-2 66 -2 133q-2 101 6 197q-84 -8 -221 -10h-82l-6 -7q-121 -125 -238 -219q-233 -190 -436 -186q-123 2 -203 72q-86 73 -92 194q-4 62 32 163t81 134l6 2l6 -2q0 2 -34 -74.5t-34 -126.5q-2 -137 91 -213
q81 -69 223 -71q160 -2 319 104q111 74 256 230q-10 2 -22 6q-4 12 6 20q2 4 41 0q221 256 411 572l48 77q63 107 116 107q41 0 39 -74q-26 21 -43 21q-86 4 -114.5 -141.5t-42.5 -264.5q-23 -182 -23 -383q0 -289 72 -289q26 0 135 70zM1486 918q-200 -322 -381 -529l49 -2
l240 8q16 150 33 250q26 164 59 273zM1677 1346l8 8q46 36 139 104q32 21 58 40q6 4 12 2t7 -11q4 -19 1 -27q-5 -7 -19 -15q-76 -47 -192 -111q-4 0 -8 1q-8 8 -6 9zM1868 1364h20q-22 -37 -84 -84q-71 -55 -145 -55q-45 0 -68 24q-8 0 -26 56q-11 32 12 84h16
q-8 -23 -8 -33q2 -23 2 -13q0 -71 92 -71q66 0 109 28q8 7 80 64z" />
    <glyph glyph-name="uni1EAF" unicode="&#x1eaf;" horiz-adv-x="559" 
d="M684 127q0 -6 -4 -10q-113 -146 -234 -217q-45 -27 -88 -27q-47 0 -77.5 28.5t-30.5 75.5q0 64 69 199q-149 -188 -221 -188q-41 0 -41 43q0 16 6 32q90 242 277 355q32 20 65 20q35 0 62 -20q26 31 43 31q6 0 6 -7q0 -4 -6 -14q-64 -96 -115 -213q-64 -145 -64 -231
q0 -80 64 -80q24 0 45 10q117 57 227 215q2 4 11 4q6 0 6 -6zM413 371q-22 26 -49 26q-35 0 -65 -37q-103 -118 -152 -274q-6 -18 -6 -35q0 -16 10 -16q8 0 19 8q61 47 151 170q55 74 92 158zM483 592l8 8q46 36 138 104q32 21 59 40q6 4 12 2t7 -11q4 -19 1 -27
q-5 -7 -19 -15q-76 -47 -192 -111q-4 0 -8 1q-9 8 -6 9zM624 607h16q-18 -30 -68 -68q-57 -44 -117 -44q-36 0 -55 19q-19 15 -24.5 43t13.5 70h13q-7 -18 -7 -33q2 -61 76 -61q66 -5 153 74z" />
    <glyph glyph-name="uni1EB0" unicode="&#x1eb0;" 
d="M1689 72q-37 -37 -110.5 -76t-118.5 -39q-62 2 -72 88q-2 66 -2 133q-2 101 6 197q-84 -8 -221 -10h-82l-6 -7q-121 -125 -238 -219q-233 -190 -436 -186q-123 2 -203 72q-86 73 -92 194q-4 62 32 163t81 134l6 2l6 -2q0 2 -34 -74.5t-34 -126.5q-2 -137 91 -213
q81 -69 223 -71q160 -2 319 104q111 74 256 230q-10 2 -22 6q-4 12 6 20q2 4 41 0q221 256 411 572l48 77q63 107 116 107q41 0 39 -74q-26 21 -43 21q-86 4 -114.5 -141.5t-42.5 -264.5q-23 -182 -23 -383q0 -289 72 -289q26 0 135 70zM1486 918q-200 -322 -381 -529l49 -2
l240 8q16 150 33 250q26 164 59 273zM1746 1370q-4 -1 -8 -1q-116 64 -192 111q-14 8 -19 15q-3 8 1 27q1 9 7 11t12 -2q26 -19 58 -40q93 -68 139 -104l8 -8q2 -1 -6 -9zM1868 1364h20q-22 -37 -84 -84q-71 -55 -145 -55q-45 0 -68 24q-8 0 -26 56q-11 32 12 84h16
q-8 -23 -8 -33q2 -23 2 -13q0 -71 92 -71q66 0 109 28q8 7 80 64z" />
    <glyph glyph-name="uni1EB1" unicode="&#x1eb1;" horiz-adv-x="559" 
d="M684 127q0 -6 -4 -10q-113 -146 -234 -217q-45 -27 -88 -27q-47 0 -77.5 28.5t-30.5 75.5q0 64 69 199q-149 -188 -221 -188q-41 0 -41 43q0 16 6 32q90 242 277 355q32 20 65 20q35 0 62 -20q26 31 43 31q6 0 6 -7q0 -4 -6 -14q-64 -96 -115 -213q-64 -145 -64 -231
q0 -80 64 -80q24 0 45 10q117 57 227 215q2 4 11 4q6 0 6 -6zM413 371q-22 26 -49 26q-35 0 -65 -37q-103 -118 -152 -274q-6 -18 -6 -35q0 -16 10 -16q8 0 19 8q61 47 151 170q55 74 92 158zM549 617q-4 -1 -9 -1q-115 64 -192 111q-14 8 -18 15q-3 8 1 27q1 9 7 11t12 -2
q26 -19 58 -40q93 -68 139 -104l8 -8q2 -1 -6 -9zM624 607h16q-18 -30 -68 -68q-57 -44 -117 -44q-36 0 -55 19q-19 15 -24.5 43t13.5 70h13q-7 -18 -7 -33q2 -61 76 -61q66 -5 153 74z" />
    <glyph glyph-name="uni1EB2" unicode="&#x1eb2;" 
d="M1689 72q-37 -37 -110.5 -76t-118.5 -39q-62 2 -72 88q-2 66 -2 133q-2 101 6 197q-84 -8 -221 -10h-82l-6 -7q-121 -125 -238 -219q-233 -190 -436 -186q-123 2 -203 72q-86 73 -92 194q-4 62 32 163t81 134l6 2l6 -2q0 2 -34 -74.5t-34 -126.5q-2 -137 91 -213
q81 -69 223 -71q160 -2 319 104q111 74 256 230q-10 2 -22 6q-4 12 6 20q2 4 41 0q221 256 411 572l48 77q63 107 116 107q41 0 39 -74q-26 21 -43 21q-86 4 -114.5 -141.5t-42.5 -264.5q-23 -182 -23 -383q0 -289 72 -289q26 0 135 70zM1486 918q-200 -322 -381 -529l49 -2
l240 8q16 150 33 250q26 164 59 273zM1700 1387q-2 4 -2 7t2 8q18 27 79 67q79 51 88 59q35 29 35 63q0 48 -60 48q-28 0 -61 -16t-54 -36q0 -4 -9 -4h-9q14 40 12 35t11 5q43 32 101 32q95 0 95 -71q0 -57 -92 -122q-20 -14 -70 -51q-30 -23 -30 -63l1 -16l-21 10
q-5 27 -16 45zM1868 1364h20q-22 -37 -84 -84q-71 -55 -145 -55q-45 0 -68 24q-8 0 -26 56q-11 32 12 84h16q-8 -23 -8 -33q2 -23 2 -13q0 -71 92 -71q66 0 109 28q8 7 80 64z" />
    <glyph glyph-name="uni1EB3" unicode="&#x1eb3;" horiz-adv-x="559" 
d="M684 127q0 -6 -4 -10q-113 -146 -234 -217q-45 -27 -88 -27q-47 0 -77.5 28.5t-30.5 75.5q0 64 69 199q-149 -188 -221 -188q-41 0 -41 43q0 16 6 32q90 242 277 355q32 20 65 20q35 0 62 -20q26 31 43 31q6 0 6 -7q0 -4 -6 -14q-64 -96 -115 -213q-64 -145 -64 -231
q0 -80 64 -80q24 0 45 10q117 57 227 215q2 4 11 4q6 0 6 -6zM413 371q-22 26 -49 26q-35 0 -65 -37q-103 -118 -152 -274q-6 -18 -6 -35q0 -16 10 -16q8 0 19 8q61 47 151 170q55 74 92 158zM468 613q-2 4 -2 7t2 8q18 27 79 67q79 51 88 59q35 29 35 63q0 48 -60 48
q-28 0 -61 -16t-54 -36q0 -4 -9 -4h-9q14 40 12 35t11 5q43 32 101 32q95 0 95 -71q0 -57 -92 -122q-20 -14 -70 -51q-30 -23 -30 -63l1 -16l-21 10q-5 27 -16 45zM624 607h16q-18 -30 -68 -68q-57 -44 -117 -44q-36 0 -55 19q-19 15 -24.5 43t13.5 70h13q-7 -18 -7 -33
q2 -61 76 -61q66 -5 153 74z" />
    <glyph glyph-name="uni1EB4" unicode="&#x1eb4;" 
d="M1689 72q-37 -37 -110.5 -76t-118.5 -39q-62 2 -72 88q-2 66 -2 133q-2 101 6 197q-84 -8 -221 -10h-82l-6 -7q-121 -125 -238 -219q-233 -190 -436 -186q-123 2 -203 72q-86 73 -92 194q-4 62 32 163t81 134l6 2l6 -2q0 2 -34 -74.5t-34 -126.5q-2 -137 91 -213
q81 -69 223 -71q160 -2 319 104q111 74 256 230q-10 2 -22 6q-4 12 6 20q2 4 41 0q221 256 411 572l48 77q63 107 116 107q41 0 39 -74q-26 21 -43 21q-86 4 -114.5 -141.5t-42.5 -264.5q-23 -182 -23 -383q0 -289 72 -289q26 0 135 70zM1486 918q-200 -322 -381 -529l49 -2
l240 8q16 150 33 250q26 164 59 273zM2030 1441q-4 -12 -15 -24q-43 -44 -94 -44q-41 0 -103 47q-45 34 -72 34q-46 0 -113 -68q-5 -7 -13 -7q-6 0 -6 4q0 5 6 12q17 18 45 37q75 52 107 52q27 0 50 -18l37 -28q51 -38 88 -38q31 0 52 20.5t21 43.5q0 11 10 11q8 0 8 -8v-3z
M1868 1364h20q-22 -37 -84 -84q-71 -55 -145 -55q-45 0 -68 24q-8 0 -26 56q-11 32 12 84h16q-8 -23 -8 -33q2 -23 2 -13q0 -71 92 -71q66 0 109 28q8 7 80 64z" />
    <glyph glyph-name="uni1EB5" unicode="&#x1eb5;" horiz-adv-x="559" 
d="M684 127q0 -6 -4 -10q-113 -146 -234 -217q-45 -27 -88 -27q-47 0 -77.5 28.5t-30.5 75.5q0 64 69 199q-149 -188 -221 -188q-41 0 -41 43q0 16 6 32q90 242 277 355q32 20 65 20q35 0 62 -20q26 31 43 31q6 0 6 -7q0 -4 -6 -14q-64 -96 -115 -213q-64 -145 -64 -231
q0 -80 64 -80q24 0 45 10q117 57 227 215q2 4 11 4q6 0 6 -6zM413 371q-22 26 -49 26q-35 0 -65 -37q-103 -118 -152 -274q-6 -18 -6 -35q0 -16 10 -16q8 0 19 8q61 47 151 170q55 74 92 158zM827 685q-4 -12 -15 -24q-43 -44 -94 -44q-41 0 -103 47q-45 34 -72 34
q-46 0 -113 -68q-5 -7 -13 -7q-6 0 -6 4q0 5 6 12q17 18 45 37q75 52 107 52q27 0 50 -18l37 -28q51 -38 88 -38q31 0 52 20.5t21 43.5q0 11 10 11q8 0 8 -8v-3zM624 607h16q-18 -30 -68 -68q-57 -44 -117 -44q-36 0 -55 19q-19 15 -24.5 43t13.5 70h13q-7 -18 -7 -33
q2 -61 76 -61q66 -5 153 74z" />
    <glyph glyph-name="uni1EB6" unicode="&#x1eb6;" 
d="M1689 72q-37 -37 -110.5 -76t-118.5 -39q-62 2 -72 88q-2 66 -2 133q-2 101 6 197q-84 -8 -221 -10h-82l-6 -7q-121 -125 -238 -219q-233 -190 -436 -186q-123 2 -203 72q-86 73 -92 194q-4 62 32 163t81 134l6 2l6 -2q0 2 -34 -74.5t-34 -126.5q-2 -137 91 -213
q81 -69 223 -71q160 -2 319 104q111 74 256 230q-10 2 -22 6q-4 12 6 20q2 4 41 0q221 256 411 572l48 77q63 107 116 107q41 0 39 -74q-26 21 -43 21q-86 4 -114.5 -141.5t-42.5 -264.5q-23 -182 -23 -383q0 -289 72 -289q26 0 135 70zM1486 918q-200 -322 -381 -529l49 -2
l240 8q16 150 33 250q26 164 59 273zM1038 -107q-37 -7 -52 -52q-3 -8 0 -23q2 -12 15 -22q20 -15 42.5 1t27.5 41q5 23 -2.5 41.5t-30.5 13.5zM1868 1364h20q-22 -37 -84 -84q-71 -55 -145 -55q-45 0 -68 24q-8 0 -26 56q-11 32 12 84h16q-8 -23 -8 -33q2 -23 2 -13
q0 -71 92 -71q66 0 109 28q8 7 80 64z" />
    <glyph glyph-name="uni1EB7" unicode="&#x1eb7;" horiz-adv-x="559" 
d="M684 127q0 -6 -4 -10q-113 -146 -234 -217q-45 -27 -88 -27q-47 0 -77.5 28.5t-30.5 75.5q0 64 69 199q-149 -188 -221 -188q-41 0 -41 43q0 16 6 32q90 242 277 355q32 20 65 20q35 0 62 -20q26 31 43 31q6 0 6 -7q0 -4 -6 -14q-64 -96 -115 -213q-64 -145 -64 -231
q0 -80 64 -80q24 0 45 10q117 57 227 215q2 4 11 4q6 0 6 -6zM413 371q-22 26 -49 26q-35 0 -65 -37q-103 -118 -152 -274q-6 -18 -6 -35q0 -16 10 -16q8 0 19 8q61 47 151 170q55 74 92 158zM134 -137q-37 -7 -52 -52q-3 -8 0 -23q2 -12 15 -22q20 -15 42.5 1t27.5 41
q5 23 -2.5 41.5t-30.5 13.5zM624 607h16q-18 -30 -68 -68q-57 -44 -117 -44q-36 0 -55 19q-19 15 -24.5 43t13.5 70h13q-7 -18 -7 -33q2 -61 76 -61q66 -5 153 74z" />
    <glyph glyph-name="uni1EB8" unicode="&#x1eb8;" horiz-adv-x="1476" 
d="M1449 444q0 -141 -180 -309q-192 -178 -446 -268q-156 -55 -307 -62q-43 -77 -60 -139q-2 -10 -12 -10t-10 10q0 2 2 4q22 68 57 133h-6q-246 0 -359 129q-61 72 -61 162q0 271 424 416q102 35 213 84q43 27 43 61q0 21 -66 138q-22 38 -22 75q0 47 29 82q88 105 299 174
q81 27 163 27h9q90 0 143 -45q25 -21 25 -53q0 -47 -72 -115q-4 -4 -12 -4q-7 0 -7 6q0 4 5 8q20 23 20 45q0 29 -29 54q-67 57 -178 57q-88 0 -170 -35q-135 -57 -135 -156q0 -61 55 -137q37 -51 37 -92q0 -78 -186 -137l-115 -37q-104 -37 -203 -100q-161 -103 -161 -277
q0 -172 151 -248q82 -41 184 -47q101 176 275 351.5t352 281.5q103 61 195 70h18q98 0 98 -97zM1357 369v14q0 102 -90 102q-31 0 -76 -16q-120 -45 -370 -274q-176 -164 -289 -359h16q127 0 267 49q268 95 430 273q112 123 112 211zM1038 -107q-38 -7 -53 -52q-2 -8 0 -23
q3 -12 15 -22q20 -15 42.5 1t27.5 41q5 23 -2.5 41.5t-29.5 13.5z" />
    <glyph glyph-name="uni1EB9" unicode="&#x1eb9;" horiz-adv-x="475" 
d="M638 199q0 -4 -4 -9q-159 -153 -354 -206q-51 -15 -100 -15h-7q-106 0 -106 88q0 52 39 123q90 164 248 234q65 28 102 28h2q45 0 45 -36q0 -117 -330 -238q-26 -59 -26 -90v-4q0 -70 90 -70h4q35 0 66 8q180 49 319 191q4 4 6 4q6 0 6 -8zM425 362v9q0 37 -30 37
q-19 0 -43 -17q-105 -72 -168 -203q229 74 241 174zM133 -137q-37 -7 -52 -52q-3 -8 0 -23q2 -12 15 -22q20 -15 42.5 1t27.5 41q5 23 -2.5 41.5t-30.5 13.5z" />
    <glyph glyph-name="uni1EBA" unicode="&#x1eba;" horiz-adv-x="1476" 
d="M1449 444q0 -141 -180 -309q-192 -178 -446 -268q-156 -55 -307 -62q-43 -77 -60 -139q-2 -10 -12 -10t-10 10q0 2 2 4q22 68 57 133h-6q-246 0 -359 129q-61 72 -61 162q0 271 424 416q102 35 213 84q43 27 43 61q0 21 -66 138q-22 38 -22 75q0 47 29 82q88 105 299 174
q81 27 163 27h9q90 0 143 -45q25 -21 25 -53q0 -47 -72 -115q-4 -4 -12 -4q-7 0 -7 6q0 4 5 8q20 23 20 45q0 29 -29 54q-67 57 -178 57q-88 0 -170 -35q-135 -57 -135 -156q0 -61 55 -137q37 -51 37 -92q0 -78 -186 -137l-115 -37q-104 -37 -203 -100q-161 -103 -161 -277
q0 -172 151 -248q82 -41 184 -47q101 176 275 351.5t352 281.5q103 61 195 70h18q98 0 98 -97zM1357 369v14q0 102 -90 102q-31 0 -76 -16q-120 -45 -370 -274q-176 -164 -289 -359h16q127 0 267 49q268 95 430 273q112 123 112 211zM1052 1258q-3 4 -3 7t3 8q17 27 78 67
q79 51 89 59q34 29 34 63q0 48 -60 48q-27 0 -60 -16t-55 -36q0 -4 -9 -4h-9q14 40 12.5 35t10.5 5q43 32 101 32q95 0 95 -71q0 -57 -91 -122q-20 -14 -70 -51q-31 -23 -31 -63l1 -16l-21 10q-4 27 -15 45z" />
    <glyph glyph-name="uni1EBB" unicode="&#x1ebb;" horiz-adv-x="475" 
d="M638 199q0 -4 -4 -9q-159 -153 -354 -206q-51 -15 -100 -15h-7q-106 0 -106 88q0 52 39 123q90 164 248 234q65 28 102 28h2q45 0 45 -36q0 -117 -330 -238q-26 -59 -26 -90v-4q0 -70 90 -70h4q35 0 66 8q180 49 319 191q4 4 6 4q6 0 6 -8zM425 362v9q0 37 -30 37
q-19 0 -43 -17q-105 -72 -168 -203q229 74 241 174zM435 554q-2 4 -2 7t2 8q18 27 79 67q79 51 88 59q35 29 35 63q0 48 -60 48q-28 0 -61 -16t-54 -36q0 -4 -9 -4h-9q14 40 12 35t11 5q43 32 101 32q95 0 95 -71q0 -57 -92 -122q-20 -14 -70 -51q-30 -23 -30 -63l1 -16
l-21 10q-5 27 -16 45z" />
    <glyph glyph-name="uni1EBC" unicode="&#x1ebc;" horiz-adv-x="1476" 
d="M1449 444q0 -141 -180 -309q-192 -178 -446 -268q-156 -55 -307 -62q-43 -77 -60 -139q-2 -10 -12 -10t-10 10q0 2 2 4q22 68 57 133h-6q-246 0 -359 129q-61 72 -61 162q0 271 424 416q102 35 213 84q43 27 43 61q0 21 -66 138q-22 38 -22 75q0 47 29 82q88 105 299 174
q81 27 163 27h9q90 0 143 -45q25 -21 25 -53q0 -47 -72 -115q-4 -4 -12 -4q-7 0 -7 6q0 4 5 8q20 23 20 45q0 29 -29 54q-67 57 -178 57q-88 0 -170 -35q-135 -57 -135 -156q0 -61 55 -137q37 -51 37 -92q0 -78 -186 -137l-115 -37q-104 -37 -203 -100q-161 -103 -161 -277
q0 -172 151 -248q82 -41 184 -47q101 176 275 351.5t352 281.5q103 61 195 70h18q98 0 98 -97zM1357 369v14q0 102 -90 102q-31 0 -76 -16q-120 -45 -370 -274q-176 -164 -289 -359h16q127 0 267 49q268 95 430 273q112 123 112 211zM1418 1311v3q0 8 -7 8q-10 0 -10 -11
q0 -23 -21.5 -43.5t-52.5 -20.5q-37 0 -88 38l-36 28q-24 18 -51 18q-31 0 -107 -52q-27 -19 -45 -37q-6 -7 -6 -12q0 -4 6 -4q8 0 14 7q66 68 113 68q27 0 72 -34q62 -47 103 -47q50 0 93 44q12 12 16 24z" />
    <glyph glyph-name="uni1EBD" unicode="&#x1ebd;" horiz-adv-x="475" 
d="M638 199q0 -4 -4 -9q-159 -153 -354 -206q-51 -15 -100 -15h-7q-106 0 -106 88q0 52 39 123q90 164 248 234q65 28 102 28h2q45 0 45 -36q0 -117 -330 -238q-26 -59 -26 -90v-4q0 -70 90 -70h4q35 0 66 8q180 49 319 191q4 4 6 4q6 0 6 -8zM425 362v9q0 37 -30 37
q-19 0 -43 -17q-105 -72 -168 -203q229 74 241 174zM712 617v3q0 8 -8 8q-10 0 -10 -11q0 -23 -21 -43.5t-52 -20.5q-37 0 -88 38l-37 28q-23 18 -50 18q-32 0 -107 -52q-28 -19 -45 -37q-6 -7 -6 -12q0 -4 6 -4q8 0 13 7q67 68 113 68q27 0 72 -34q62 -47 103 -47
q51 0 94 44q11 12 15 24z" />
    <glyph glyph-name="uni1EBE" unicode="&#x1ebe;" horiz-adv-x="1476" 
d="M1449 444q0 -141 -180 -309q-192 -178 -446 -268q-156 -55 -307 -62q-43 -77 -60 -139q-2 -10 -12 -10t-10 10q0 2 2 4q22 68 57 133h-6q-246 0 -359 129q-61 72 -61 162q0 271 424 416q102 35 213 84q43 27 43 61q0 21 -66 138q-22 38 -22 75q0 47 29 82q88 105 299 174
q81 27 163 27h9q90 0 143 -45q25 -21 25 -53q0 -47 -72 -115q-4 -4 -12 -4q-7 0 -7 6q0 4 5 8q20 23 20 45q0 29 -29 54q-67 57 -178 57q-88 0 -170 -35q-135 -57 -135 -156q0 -61 55 -137q37 -51 37 -92q0 -78 -186 -137l-115 -37q-104 -37 -203 -100q-161 -103 -161 -277
q0 -172 151 -248q82 -41 184 -47q101 176 275 351.5t352 281.5q103 61 195 70h18q98 0 98 -97zM1357 369v14q0 102 -90 102q-31 0 -76 -16q-120 -45 -370 -274q-176 -164 -289 -359h16q127 0 267 49q268 95 430 273q112 123 112 211zM1318 1298l7 8q46 36 139 104
q32 21 59 40q6 4 12 2q5 -2 6 -11q4 -19 2 -27q-5 -7 -19 -15q-77 -47 -192 -111q-5 0 -9 1q-8 8 -5 9zM1287 1202l-32 -16q-6 0 -6 14l-7 119q0 8 -8 8q-4 0 -10 -4q-59 -37 -80 -51q-92 -64 -102 -70q-8 0 -8 6q0 13 12 19q51 37 71 51q113 74 140 86q4 2 20 -2q8 0 8 -6
q0 -23 5.5 -67t5.5 -66q0 -17 -9 -21z" />
    <glyph glyph-name="uni1EBF" unicode="&#x1ebf;" horiz-adv-x="475" 
d="M638 199q0 -4 -4 -9q-159 -153 -354 -206q-51 -15 -100 -15h-7q-106 0 -106 88q0 52 39 123q90 164 248 234q65 28 102 28h2q45 0 45 -36q0 -117 -330 -238q-26 -59 -26 -90v-4q0 -70 90 -70h4q35 0 66 8q180 49 319 191q4 4 6 4q6 0 6 -8zM425 362v9q0 37 -30 37
q-19 0 -43 -17q-105 -72 -168 -203q229 74 241 174zM587 580l8 8q46 36 138 104q32 21 59 40q6 4 12 2t7 -11q4 -19 1 -27q-5 -7 -19 -15q-76 -47 -192 -111q-4 0 -8 1q-9 8 -6 9zM567 492l-28 -14q-5 0 -5 12l-5 102q0 7 -7 7q-4 0 -9 -4q-51 -31 -68 -44q-79 -54 -88 -59
q-7 0 -7 5q0 11 11 16q43 31 61 44q96 63 119 73q3 2 17 -2q7 0 7 -5q0 -19 4.5 -56.5t4.5 -57.5q0 -14 -7 -17z" />
    <glyph glyph-name="uni1EC0" unicode="&#x1ec0;" horiz-adv-x="1476" 
d="M1449 444q0 -141 -180 -309q-192 -178 -446 -268q-156 -55 -307 -62q-43 -77 -60 -139q-2 -10 -12 -10t-10 10q0 2 2 4q22 68 57 133h-6q-246 0 -359 129q-61 72 -61 162q0 271 424 416q102 35 213 84q43 27 43 61q0 21 -66 138q-22 38 -22 75q0 47 29 82q88 105 299 174
q81 27 163 27h9q90 0 143 -45q25 -21 25 -53q0 -47 -72 -115q-4 -4 -12 -4q-7 0 -7 6q0 4 5 8q20 23 20 45q0 29 -29 54q-67 57 -178 57q-88 0 -170 -35q-135 -57 -135 -156q0 -61 55 -137q37 -51 37 -92q0 -78 -186 -137l-115 -37q-104 -37 -203 -100q-161 -103 -161 -277
q0 -172 151 -248q82 -41 184 -47q101 176 275 351.5t352 281.5q103 61 195 70h18q98 0 98 -97zM1357 369v14q0 102 -90 102q-31 0 -76 -16q-120 -45 -370 -274q-176 -164 -289 -359h16q127 0 267 49q268 95 430 273q112 123 112 211zM1355 1365q-4 -1 -9 -1
q-116 64 -192 111q-14 8 -19 15q-3 8 1 27q2 9 7 11q6 2 12 -2q27 -19 59 -40q93 -68 139 -104l7 -8q3 -1 -5 -9zM1287 1202l-32 -16q-6 0 -6 14l-7 119q0 8 -8 8q-4 0 -10 -4q-59 -37 -80 -51q-92 -64 -102 -70q-8 0 -8 6q0 13 12 19q51 37 71 51q113 74 140 86q4 2 20 -2
q8 0 8 -6q0 -23 5.5 -67t5.5 -66q0 -17 -9 -21z" />
    <glyph glyph-name="uni1EC1" unicode="&#x1ec1;" horiz-adv-x="475" 
d="M638 199q0 -4 -4 -9q-159 -153 -354 -206q-51 -15 -100 -15h-7q-106 0 -106 88q0 52 39 123q90 164 248 234q65 28 102 28h2q45 0 45 -36q0 -117 -330 -238q-26 -59 -26 -90v-4q0 -70 90 -70h4q35 0 66 8q180 49 319 191q4 4 6 4q6 0 6 -8zM425 362v9q0 37 -30 37
q-19 0 -43 -17q-105 -72 -168 -203q229 74 241 174zM642 611q-4 -1 -9 -1q-115 64 -192 111q-14 8 -18 15q-3 8 1 27q1 9 7 11t12 -2q26 -19 58 -40q93 -68 139 -104l8 -8q2 -1 -6 -9zM567 492l-28 -14q-5 0 -5 12l-5 102q0 7 -7 7q-4 0 -9 -4q-51 -31 -68 -44
q-79 -54 -88 -59q-7 0 -7 5q0 11 11 16q43 31 61 44q96 63 119 73q3 2 17 -2q7 0 7 -5q0 -19 4.5 -56.5t4.5 -57.5q0 -14 -7 -17z" />
    <glyph glyph-name="uni1EC2" unicode="&#x1ec2;" horiz-adv-x="1476" 
d="M1449 444q0 -141 -180 -309q-192 -178 -446 -268q-156 -55 -307 -62q-43 -77 -60 -139q-2 -10 -12 -10t-10 10q0 2 2 4q22 68 57 133h-6q-246 0 -359 129q-61 72 -61 162q0 271 424 416q102 35 213 84q43 27 43 61q0 21 -66 138q-22 38 -22 75q0 47 29 82q88 105 299 174
q81 27 163 27h9q90 0 143 -45q25 -21 25 -53q0 -47 -72 -115q-4 -4 -12 -4q-7 0 -7 6q0 4 5 8q20 23 20 45q0 29 -29 54q-67 57 -178 57q-88 0 -170 -35q-135 -57 -135 -156q0 -61 55 -137q37 -51 37 -92q0 -78 -186 -137l-115 -37q-104 -37 -203 -100q-161 -103 -161 -277
q0 -172 151 -248q82 -41 184 -47q101 176 275 351.5t352 281.5q103 61 195 70h18q98 0 98 -97zM1357 369v14q0 102 -90 102q-31 0 -76 -16q-120 -45 -370 -274q-176 -164 -289 -359h16q127 0 267 49q268 95 430 273q112 123 112 211zM1310 1308q-3 4 -3 7t3 8q17 27 78 67
q79 51 89 59q34 29 34 63q0 48 -60 48q-27 0 -60 -16t-55 -36q0 -4 -9 -4h-9q14 40 12.5 35t10.5 5q43 32 101 32q95 0 95 -71q0 -57 -91 -122q-20 -14 -70 -51q-31 -23 -31 -63l1 -16l-21 10q-4 27 -15 45zM1287 1202l-32 -16q-6 0 -6 14l-7 119q0 8 -8 8q-4 0 -10 -4
q-59 -37 -80 -51q-92 -64 -102 -70q-8 0 -8 6q0 13 12 19q51 37 71 51q113 74 140 86q4 2 20 -2q8 0 8 -6q0 -23 5.5 -67t5.5 -66q0 -17 -9 -21z" />
    <glyph glyph-name="uni1EC3" unicode="&#x1ec3;" horiz-adv-x="475" 
d="M638 199q0 -4 -4 -9q-159 -153 -354 -206q-51 -15 -100 -15h-7q-106 0 -106 88q0 52 39 123q90 164 248 234q65 28 102 28h2q45 0 45 -36q0 -117 -330 -238q-26 -59 -26 -90v-4q0 -70 90 -70h4q35 0 66 8q180 49 319 191q4 4 6 4q6 0 6 -8zM425 362v9q0 37 -30 37
q-19 0 -43 -17q-105 -72 -168 -203q229 74 241 174zM592 574q-2 4 -2 7t2 8q18 27 79 67q79 51 88 59q35 29 35 63q0 48 -60 48q-28 0 -61 -16t-54 -36q0 -4 -9 -4h-9q14 40 12 35t11 5q43 32 101 32q95 0 95 -71q0 -57 -92 -122q-20 -14 -70 -51q-30 -23 -30 -63l1 -16
l-21 10q-5 27 -16 45zM567 492l-28 -14q-5 0 -5 12l-5 102q0 7 -7 7q-4 0 -9 -4q-51 -31 -68 -44q-79 -54 -88 -59q-7 0 -7 5q0 11 11 16q43 31 61 44q96 63 119 73q3 2 17 -2q7 0 7 -5q0 -19 4.5 -56.5t4.5 -57.5q0 -14 -7 -17z" />
    <glyph glyph-name="uni1EC4" unicode="&#x1ec4;" horiz-adv-x="1476" 
d="M1449 444q0 -141 -180 -309q-192 -178 -446 -268q-156 -55 -307 -62q-43 -77 -60 -139q-2 -10 -12 -10t-10 10q0 2 2 4q22 68 57 133h-6q-246 0 -359 129q-61 72 -61 162q0 271 424 416q102 35 213 84q43 27 43 61q0 21 -66 138q-22 38 -22 75q0 47 29 82q88 105 299 174
q81 27 163 27h9q90 0 143 -45q25 -21 25 -53q0 -47 -72 -115q-4 -4 -12 -4q-7 0 -7 6q0 4 5 8q20 23 20 45q0 29 -29 54q-67 57 -178 57q-88 0 -170 -35q-135 -57 -135 -156q0 -61 55 -137q37 -51 37 -92q0 -78 -186 -137l-115 -37q-104 -37 -203 -100q-161 -103 -161 -277
q0 -172 151 -248q82 -41 184 -47q101 176 275 351.5t352 281.5q103 61 195 70h18q98 0 98 -97zM1357 369v14q0 102 -90 102q-31 0 -76 -16q-120 -45 -370 -274q-176 -164 -289 -359h16q127 0 267 49q268 95 430 273q112 123 112 211zM1525 1462v3q0 8 -7 8q-10 0 -10 -11
q0 -23 -21.5 -43.5t-52.5 -20.5q-37 0 -88 38l-36 28q-24 18 -51 18q-31 0 -107 -52q-27 -19 -45 -37q-6 -7 -6 -12q0 -4 6 -4q8 0 14 7q66 68 113 68q27 0 72 -34q62 -47 103 -47q50 0 93 44q12 12 16 24zM1287 1202l-32 -16q-6 0 -6 14l-7 119q0 8 -8 8q-4 0 -10 -4
q-59 -37 -80 -51q-92 -64 -102 -70q-8 0 -8 6q0 13 12 19q51 37 71 51q113 74 140 86q4 2 20 -2q8 0 8 -6q0 -23 5.5 -67t5.5 -66q0 -17 -9 -21z" />
    <glyph glyph-name="uni1EC5" unicode="&#x1ec5;" horiz-adv-x="475" 
d="M638 199q0 -4 -4 -9q-159 -153 -354 -206q-51 -15 -100 -15h-7q-106 0 -106 88q0 52 39 123q90 164 248 234q65 28 102 28h2q45 0 45 -36q0 -117 -330 -238q-26 -59 -26 -90v-4q0 -70 90 -70h4q35 0 66 8q180 49 319 191q4 4 6 4q6 0 6 -8zM425 362v9q0 37 -30 37
q-19 0 -43 -17q-105 -72 -168 -203q229 74 241 174zM804 696v3q0 8 -8 8q-10 0 -10 -11q0 -23 -21 -43.5t-52 -20.5q-37 0 -88 38l-37 28q-23 18 -50 18q-32 0 -107 -52q-28 -19 -45 -37q-6 -7 -6 -12q0 -4 6 -4q8 0 13 7q67 68 113 68q27 0 72 -34q62 -47 103 -47
q51 0 94 44q11 12 15 24zM567 492l-28 -14q-5 0 -5 12l-5 102q0 7 -7 7q-4 0 -9 -4q-51 -31 -68 -44q-79 -54 -88 -59q-7 0 -7 5q0 11 11 16q43 31 61 44q96 63 119 73q3 2 17 -2q7 0 7 -5q0 -19 4.5 -56.5t4.5 -57.5q0 -14 -7 -17z" />
    <glyph glyph-name="uni1EC6" unicode="&#x1ec6;" horiz-adv-x="1476" 
d="M1449 444q0 -141 -180 -309q-192 -178 -446 -268q-156 -55 -307 -62q-43 -77 -60 -139q-2 -10 -12 -10t-10 10q0 2 2 4q22 68 57 133h-6q-246 0 -359 129q-61 72 -61 162q0 271 424 416q102 35 213 84q43 27 43 61q0 21 -66 138q-22 38 -22 75q0 47 29 82q88 105 299 174
q81 27 163 27h9q90 0 143 -45q25 -21 25 -53q0 -47 -72 -115q-4 -4 -12 -4q-7 0 -7 6q0 4 5 8q20 23 20 45q0 29 -29 54q-67 57 -178 57q-88 0 -170 -35q-135 -57 -135 -156q0 -61 55 -137q37 -51 37 -92q0 -78 -186 -137l-115 -37q-104 -37 -203 -100q-161 -103 -161 -277
q0 -172 151 -248q82 -41 184 -47q101 176 275 351.5t352 281.5q103 61 195 70h18q98 0 98 -97zM1357 369v14q0 102 -90 102q-31 0 -76 -16q-120 -45 -370 -274q-176 -164 -289 -359h16q127 0 267 49q268 95 430 273q112 123 112 211zM1038 -107q-38 -7 -53 -52q-2 -8 0 -23
q3 -12 15 -22q20 -15 42.5 1t27.5 41q5 23 -2.5 41.5t-29.5 13.5zM1287 1202l-32 -16q-6 0 -6 14l-7 119q0 8 -8 8q-4 0 -10 -4q-59 -37 -80 -51q-92 -64 -102 -70q-8 0 -8 6q0 13 12 19q51 37 71 51q113 74 140 86q4 2 20 -2q8 0 8 -6q0 -23 5.5 -67t5.5 -66q0 -17 -9 -21z
" />
    <glyph glyph-name="uni1EC7" unicode="&#x1ec7;" horiz-adv-x="475" 
d="M638 199q0 -4 -4 -9q-159 -153 -354 -206q-51 -15 -100 -15h-7q-106 0 -106 88q0 52 39 123q90 164 248 234q65 28 102 28h2q45 0 45 -36q0 -117 -330 -238q-26 -59 -26 -90v-4q0 -70 90 -70h4q35 0 66 8q180 49 319 191q4 4 6 4q6 0 6 -8zM425 362v9q0 37 -30 37
q-19 0 -43 -17q-105 -72 -168 -203q229 74 241 174zM133 -137q-37 -7 -52 -52q-3 -8 0 -23q2 -12 15 -22q20 -15 42.5 1t27.5 41q5 23 -2.5 41.5t-30.5 13.5zM567 492l-28 -14q-5 0 -5 12l-5 102q0 7 -7 7q-4 0 -9 -4q-51 -31 -68 -44q-79 -54 -88 -59q-7 0 -7 5q0 11 11 16
q43 31 61 44q96 63 119 73q3 2 17 -2q7 0 7 -5q0 -19 4.5 -56.5t4.5 -57.5q0 -14 -7 -17z" />
    <glyph glyph-name="uni1EC8" unicode="&#x1ec8;" horiz-adv-x="935" 
d="M1126 1110q8 -10 -7 -23q-112 -88 -206 -229q-46 -67 -189 -348l-98 -193q-103 -202 -189 -274q-100 -84 -229 -82q-98 2 -166 51q-6 4 -4 13q2 6 12 0q56 -37 133 -37q160 0 283 211l92 157l264 439q86 129 187 223q-70 -37 -160 -37q-45 0 -132 8t-132 8
q-94 0 -158 -71q-39 -47 -88 -160q-4 -10 -12 -6q-8 6 -4 16q49 131 84 193q71 116 157 116q27 0 179 -30q100 -21 180 -21q43 0 82 10q24 7 100 62q14 10 21 4zM912 1258q-2 4 -2 7t2 8q18 27 79 67q78 51 88 59q35 29 35 63q0 48 -60 48q-28 0 -61 -16t-54 -36q0 -4 -9 -4
h-9q14 40 12 35t10 5q43 32 102 32q95 0 95 -71q0 -57 -92 -122q-20 -14 -70 -51q-30 -23 -30 -63v-16l-21 10q-4 27 -15 45z" />
    <glyph glyph-name="uni1EC9" unicode="&#x1ec9;" horiz-adv-x="382" 
d="M606 283q0 -4 -4 -9q-180 -213 -365 -299q-82 -38 -125 -38q-55 0 -55 51q0 43 41 121q31 59 188 315q25 39 37 39q19 0 25 -41v-8q0 -11 -8 -21q-45 -53 -82 -112q-84 -136 -109 -218q-6 -20 -6 -32q0 -49 43 -49q12 0 25 4q188 59 381 299q4 4 8 4q6 0 6 -6zM385 554
q-2 4 -2 7t2 8q18 27 79 67q79 51 88 59q35 29 35 63q0 48 -60 48q-28 0 -61 -16t-54 -36q0 -4 -9 -4h-9q14 40 12 35t11 5q43 32 101 32q95 0 95 -71q0 -57 -92 -122q-20 -14 -70 -51q-30 -23 -30 -63l1 -16l-21 10q-5 27 -16 45z" />
    <glyph glyph-name="uni1ECA" unicode="&#x1eca;" horiz-adv-x="935" 
d="M1126 1110q8 -10 -7 -23q-112 -88 -206 -229q-46 -67 -189 -348l-98 -193q-103 -202 -189 -274q-100 -84 -229 -82q-98 2 -166 51q-6 4 -4 13q2 6 12 0q56 -37 133 -37q160 0 283 211l92 157l264 439q86 129 187 223q-70 -37 -160 -37q-45 0 -132 8t-132 8
q-94 0 -158 -71q-39 -47 -88 -160q-4 -10 -12 -6q-8 6 -4 16q49 131 84 193q71 116 157 116q27 0 179 -30q100 -21 180 -21q43 0 82 10q24 7 100 62q14 10 21 4zM433 -107q-38 -7 -53 -52q-2 -8 0 -23q3 -12 15 -22q20 -15 42.5 1t27.5 41q5 23 -2.5 41.5t-29.5 13.5z" />
    <glyph glyph-name="uni1ECB" unicode="&#x1ecb;" horiz-adv-x="382" 
d="M493 645q0 -24 -22.5 -49t-46.5 -25q-25 0 -25 25q0 27 20.5 51.5t47.5 24.5q26 0 26 -27zM606 283q0 -4 -4 -9q-181 -213 -365 -299q-82 -38 -125 -38q-55 0 -55 51q0 43 41 121q31 59 188 315q25 39 37 39q19 0 25 -41v-8q0 -11 -8 -21q-46 -53 -82 -112
q-84 -136 -109 -218q-6 -20 -6 -32q0 -49 43 -49q12 0 25 4q188 59 380 299q5 4 9 4q6 0 6 -6zM73 -137q-37 -7 -52 -52q-3 -8 0 -23q2 -12 15 -22q20 -15 42.5 1t27.5 41q5 23 -2.5 41.5t-30.5 13.5z" />
    <glyph glyph-name="uni1ECC" unicode="&#x1ecc;" horiz-adv-x="1445" 
d="M1544 838q-2 -70 -16 -125q-64 -234 -342 -498q-142 -133 -318 -217q-196 -94 -370 -92q-150 2 -250 69q-115 80 -115 222q0 194 223 462q58 70 201 195q162 143 217 158q10 4 14 0q2 -4 -2 -13q-84 -45 -213 -170q-118 -112 -184 -202q-147 -203 -150 -391
q0 -130 89 -209q81 -76 215 -80q151 -4 333 86q164 80 287 198q113 109 191 250q102 185 100 348q-2 119 -67.5 198t-180.5 81q-110 2 -194 -53q-97 -64 -97 -170q0 -58 29 -88q-104 2 -104 86q0 35 36 80q146 174 373 174q139 0 218 -80t77 -219zM1255 1141zM354 -196
q-38 -7 -53 -52q-2 -8 0 -23q3 -12 15 -22q20 -15 42.5 1t27.5 41q5 23 -2.5 41.5t-29.5 13.5z" />
    <glyph glyph-name="uni1ECD" unicode="&#x1ecd;" horiz-adv-x="485" 
d="M781 375q0 -6 -8 -8q-111 -29 -164 -29h-41q-76 0 -127 14q-16 -155 -154 -289q-77 -75 -147 -75q-68 0 -68 63v6q0 144 224 320q28 22 61 39q0 4 6 10q41 29 45 29q12 0 15 -13q14 -80 221 -80q73 0 129 15q2 2 4 2q4 0 4 -4zM367 324v18q0 43 -18 43q-8 0 -29 -14
q-170 -125 -170 -305q0 -52 31 -52q18 0 45 19q141 98 141 291zM92 -137q-37 -7 -52 -52q-3 -8 0 -23q2 -12 15 -22q20 -15 42.5 1t27.5 41q5 23 -2.5 41.5t-30.5 13.5z" />
    <glyph glyph-name="uni1ECE" unicode="&#x1ece;" horiz-adv-x="1445" 
d="M1544 838q-2 -70 -16 -125q-64 -234 -342 -498q-142 -133 -318 -217q-196 -94 -370 -92q-150 2 -250 69q-115 80 -115 222q0 194 223 462q58 70 201 195q162 143 217 158q10 4 14 0q2 -4 -2 -13q-84 -45 -213 -170q-118 -112 -184 -202q-147 -203 -150 -391
q0 -130 89 -209q81 -76 215 -80q151 -4 333 86q164 80 287 198q113 109 191 250q102 185 100 348q-2 119 -67.5 198t-180.5 81q-110 2 -194 -53q-97 -64 -97 -170q0 -58 29 -88q-104 2 -104 86q0 35 36 80q146 174 373 174q139 0 218 -80t77 -219zM1255 1141zM1191 1258
q-3 4 -3 7t3 8q17 27 78 67q79 51 89 59q34 29 34 63q0 48 -60 48q-28 0 -61 -16t-54 -36q0 -4 -9 -4h-9q14 40 12.5 35t10.5 5q43 32 101 32q95 0 95 -71q0 -57 -92 -122q-19 -14 -69 -51q-31 -23 -31 -63l1 -16l-21 10q-4 27 -15 45z" />
    <glyph glyph-name="uni1ECF" unicode="&#x1ecf;" horiz-adv-x="485" 
d="M782 375q0 -6 -9 -8q-110 -29 -163 -29h-41q-76 0 -127 14q-17 -155 -154 -289q-78 -75 -147 -75q-68 0 -68 63v6q0 144 223 320q29 22 62 39q0 4 6 10q41 29 45 29q12 0 14 -13q15 -80 221 -80q74 0 129 15q2 2 5 2q4 0 4 -4zM368 324v18q0 43 -19 43q-8 0 -28 -14
q-170 -125 -170 -305q0 -52 31 -52q18 0 45 19q141 98 141 291zM435 554q-2 4 -2 7t2 8q18 27 79 67q79 51 88 59q35 29 35 63q0 48 -60 48q-28 0 -61 -16t-54 -36q0 -4 -9 -4h-9q14 40 12 35t11 5q43 32 101 32q95 0 95 -71q0 -57 -92 -122q-20 -14 -70 -51
q-30 -23 -30 -63l1 -16l-21 10q-5 27 -16 45z" />
    <glyph glyph-name="uni1ED0" unicode="&#x1ed0;" horiz-adv-x="1445" 
d="M1544 838q-2 -70 -16 -125q-64 -234 -342 -498q-142 -133 -318 -217q-196 -94 -370 -92q-150 2 -250 69q-115 80 -115 222q0 194 223 462q58 70 201 195q162 143 217 158q10 4 14 0q2 -4 -2 -13q-84 -45 -213 -170q-118 -112 -184 -202q-147 -203 -150 -391
q0 -130 89 -209q81 -76 215 -80q151 -4 333 86q164 80 287 198q113 109 191 250q102 185 100 348q-2 119 -67.5 198t-180.5 81q-110 2 -194 -53q-97 -64 -97 -170q0 -58 29 -88q-104 2 -104 86q0 35 36 80q146 174 373 174q139 0 218 -80t77 -219zM1255 1141zM1494 1328l7 8
q46 36 139 104q32 21 59 40q6 4 11 2q6 -2 7 -11q4 -19 2 -27q-5 -7 -19 -15q-77 -47 -192 -111q-5 0 -9 1q-8 8 -5 9zM1465 1232l-32 -16q-7 0 -7 14l-6 119q0 8 -8 8q-4 0 -10 -4q-60 -37 -80 -51q-92 -64 -102 -70q-9 0 -9 6q0 13 13 19q51 37 71 51q113 74 140 86
q4 2 20 -2q8 0 8 -6q0 -23 5.5 -67t5.5 -66q0 -17 -9 -21z" />
    <glyph glyph-name="uni1ED1" unicode="&#x1ed1;" horiz-adv-x="485" 
d="M782 375q0 -6 -9 -8q-110 -29 -163 -29h-41q-76 0 -127 14q-17 -155 -154 -289q-78 -75 -147 -75q-68 0 -68 63v6q0 144 223 320q29 22 62 39q0 4 6 10q41 29 45 29q12 0 14 -13q15 -80 221 -80q74 0 129 15q2 2 5 2q4 0 4 -4zM368 324v18q0 43 -19 43q-8 0 -28 -14
q-170 -125 -170 -305q0 -52 31 -52q18 0 45 19q141 98 141 291zM559 587l8 8q46 36 138 104q32 21 59 40q6 4 12 2t7 -11q4 -19 1 -27q-5 -7 -19 -15q-76 -47 -192 -111q-4 0 -8 1q-9 8 -6 9zM531 492l-28 -14q-5 0 -5 12l-5 102q0 7 -7 7q-4 0 -9 -4q-51 -31 -68 -44
q-79 -54 -88 -59q-7 0 -7 5q0 11 11 16q43 31 61 44q96 63 119 73q3 2 17 -2q7 0 7 -5q0 -19 4.5 -56.5t4.5 -57.5q0 -14 -7 -17z" />
    <glyph glyph-name="uni1ED2" unicode="&#x1ed2;" horiz-adv-x="1445" 
d="M1544 838q-2 -70 -16 -125q-64 -234 -342 -498q-142 -133 -318 -217q-196 -94 -370 -92q-150 2 -250 69q-115 80 -115 222q0 194 223 462q58 70 201 195q162 143 217 158q10 4 14 0q2 -4 -2 -13q-84 -45 -213 -170q-118 -112 -184 -202q-147 -203 -150 -391
q0 -130 89 -209q81 -76 215 -80q151 -4 333 86q164 80 287 198q113 109 191 250q102 185 100 348q-2 119 -67.5 198t-180.5 81q-110 2 -194 -53q-97 -64 -97 -170q0 -58 29 -88q-104 2 -104 86q0 35 36 80q146 174 373 174q139 0 218 -80t77 -219zM1255 1141zM1545 1418
q-4 -1 -8 -1q-116 64 -192 111q-14 8 -19 15q-3 8 1 27q1 9 7 11t12 -2q27 -19 59 -40q92 -68 139 -104l7 -8q3 -1 -6 -9zM1465 1232l-32 -16q-7 0 -7 14l-6 119q0 8 -8 8q-4 0 -10 -4q-60 -37 -80 -51q-92 -64 -102 -70q-9 0 -9 6q0 13 13 19q51 37 71 51q113 74 140 86
q4 2 20 -2q8 0 8 -6q0 -23 5.5 -67t5.5 -66q0 -17 -9 -21z" />
    <glyph glyph-name="uni1ED3" unicode="&#x1ed3;" horiz-adv-x="485" 
d="M782 375q0 -6 -9 -8q-110 -29 -163 -29h-41q-76 0 -127 14q-17 -155 -154 -289q-78 -75 -147 -75q-68 0 -68 63v6q0 144 223 320q29 22 62 39q0 4 6 10q41 29 45 29q12 0 14 -13q15 -80 221 -80q74 0 129 15q2 2 5 2q4 0 4 -4zM368 324v18q0 43 -19 43q-8 0 -28 -14
q-170 -125 -170 -305q0 -52 31 -52q18 0 45 19q141 98 141 291zM582 617q-4 -1 -9 -1q-115 64 -192 111q-14 8 -18 15q-3 8 1 27q1 9 7 11t12 -2q26 -19 58 -40q93 -68 139 -104l8 -8q2 -1 -6 -9zM531 492l-28 -14q-5 0 -5 12l-5 102q0 7 -7 7q-4 0 -9 -4q-51 -31 -68 -44
q-79 -54 -88 -59q-7 0 -7 5q0 11 11 16q43 31 61 44q96 63 119 73q3 2 17 -2q7 0 7 -5q0 -19 4.5 -56.5t4.5 -57.5q0 -14 -7 -17z" />
    <glyph glyph-name="uni1ED4" unicode="&#x1ed4;" horiz-adv-x="1445" 
d="M1544 838q-2 -70 -16 -125q-64 -234 -342 -498q-142 -133 -318 -217q-196 -94 -370 -92q-150 2 -250 69q-115 80 -115 222q0 194 223 462q58 70 201 195q162 143 217 158q10 4 14 0q2 -4 -2 -13q-84 -45 -213 -170q-118 -112 -184 -202q-147 -203 -150 -391
q0 -130 89 -209q81 -76 215 -80q151 -4 333 86q164 80 287 198q113 109 191 250q102 185 100 348q-2 119 -67.5 198t-180.5 81q-110 2 -194 -53q-97 -64 -97 -170q0 -58 29 -88q-104 2 -104 86q0 35 36 80q146 174 373 174q139 0 218 -80t77 -219zM1255 1141zM1499 1308
q-3 4 -3 7t3 8q17 27 78 67q79 51 89 59q34 29 34 63q0 48 -60 48q-28 0 -61 -16t-54 -36q0 -4 -9 -4h-9q14 40 12.5 35t10.5 5q43 32 101 32q95 0 95 -71q0 -57 -92 -122q-19 -14 -69 -51q-31 -23 -31 -63l1 -16l-21 10q-4 27 -15 45zM1465 1232l-32 -16q-7 0 -7 14l-6 119
q0 8 -8 8q-4 0 -10 -4q-60 -37 -80 -51q-92 -64 -102 -70q-9 0 -9 6q0 13 13 19q51 37 71 51q113 74 140 86q4 2 20 -2q8 0 8 -6q0 -23 5.5 -67t5.5 -66q0 -17 -9 -21z" />
    <glyph glyph-name="uni1ED5" unicode="&#x1ed5;" horiz-adv-x="485" 
d="M782 375q0 -6 -9 -8q-110 -29 -163 -29h-41q-76 0 -127 14q-17 -155 -154 -289q-78 -75 -147 -75q-68 0 -68 63v6q0 144 223 320q29 22 62 39q0 4 6 10q41 29 45 29q12 0 14 -13q15 -80 221 -80q74 0 129 15q2 2 5 2q4 0 4 -4zM368 324v18q0 43 -19 43q-8 0 -28 -14
q-170 -125 -170 -305q0 -52 31 -52q18 0 45 19q141 98 141 291zM552 606q-2 4 -2 7t2 8q18 27 79 67q79 51 88 59q35 29 35 63q0 48 -60 48q-28 0 -61 -16t-54 -36q0 -4 -9 -4h-9q14 40 12 35t11 5q43 32 101 32q95 0 95 -71q0 -57 -92 -122q-20 -14 -70 -51
q-30 -23 -30 -63l1 -16l-21 10q-5 27 -16 45zM531 492l-28 -14q-5 0 -5 12l-5 102q0 7 -7 7q-4 0 -9 -4q-51 -31 -68 -44q-79 -54 -88 -59q-7 0 -7 5q0 11 11 16q43 31 61 44q96 63 119 73q3 2 17 -2q7 0 7 -5q0 -19 4.5 -56.5t4.5 -57.5q0 -14 -7 -17z" />
    <glyph glyph-name="uni1ED6" unicode="&#x1ed6;" horiz-adv-x="1445" 
d="M1544 838q-2 -70 -16 -125q-64 -234 -342 -498q-142 -133 -318 -217q-196 -94 -370 -92q-150 2 -250 69q-115 80 -115 222q0 194 223 462q58 70 201 195q162 143 217 158q10 4 14 0q2 -4 -2 -13q-84 -45 -213 -170q-118 -112 -184 -202q-147 -203 -150 -391
q0 -130 89 -209q81 -76 215 -80q151 -4 333 86q164 80 287 198q113 109 191 250q102 185 100 348q-2 119 -67.5 198t-180.5 81q-110 2 -194 -53q-97 -64 -97 -170q0 -58 29 -88q-104 2 -104 86q0 35 36 80q146 174 373 174q139 0 218 -80t77 -219zM1255 1141zM1726 1490v3
q0 8 -7 8q-10 0 -10 -11q0 -23 -21.5 -43.5t-52.5 -20.5q-37 0 -88 38l-37 28q-23 18 -50 18q-31 0 -107 -52q-27 -19 -45 -37q-6 -7 -6 -12q0 -4 6 -4q8 0 14 7q66 68 113 68q27 0 72 -34q62 -47 103 -47q50 0 93 44q12 12 16 24zM1465 1232l-32 -16q-7 0 -7 14l-6 119
q0 8 -8 8q-4 0 -10 -4q-60 -37 -80 -51q-92 -64 -102 -70q-9 0 -9 6q0 13 13 19q51 37 71 51q113 74 140 86q4 2 20 -2q8 0 8 -6q0 -23 5.5 -67t5.5 -66q0 -17 -9 -21z" />
    <glyph glyph-name="uni1ED7" unicode="&#x1ed7;" horiz-adv-x="485" 
d="M782 375q0 -6 -9 -8q-110 -29 -163 -29h-41q-76 0 -127 14q-17 -155 -154 -289q-78 -75 -147 -75q-68 0 -68 63v6q0 144 223 320q29 22 62 39q0 4 6 10q41 29 45 29q12 0 14 -13q15 -80 221 -80q74 0 129 15q2 2 5 2q4 0 4 -4zM368 324v18q0 43 -19 43q-8 0 -28 -14
q-170 -125 -170 -305q0 -52 31 -52q18 0 45 19q141 98 141 291zM771 688q-4 -12 -15 -24q-43 -44 -94 -44q-41 0 -103 47q-45 34 -72 34q-46 0 -113 -68q-5 -7 -13 -7q-6 0 -6 4q0 5 6 12q17 18 45 37q75 52 107 52q27 0 50 -18l37 -28q51 -38 88 -38q31 0 52 20.5t21 43.5
q0 11 10 11q8 0 8 -8v-3zM531 492l-28 -14q-5 0 -5 12l-5 102q0 7 -7 7q-4 0 -9 -4q-51 -31 -68 -44q-79 -54 -88 -59q-7 0 -7 5q0 11 11 16q43 31 61 44q96 63 119 73q3 2 17 -2q7 0 7 -5q0 -19 4.5 -56.5t4.5 -57.5q0 -14 -7 -17z" />
    <glyph glyph-name="uni1ED8" unicode="&#x1ed8;" horiz-adv-x="1445" 
d="M1544 838q-2 -70 -16 -125q-64 -234 -342 -498q-142 -133 -318 -217q-196 -94 -370 -92q-150 2 -250 69q-115 80 -115 222q0 194 223 462q58 70 201 195q162 143 217 158q10 4 14 0q2 -4 -2 -13q-84 -45 -213 -170q-118 -112 -184 -202q-147 -203 -150 -391
q0 -130 89 -209q81 -76 215 -80q151 -4 333 86q164 80 287 198q113 109 191 250q102 185 100 348q-2 119 -67.5 198t-180.5 81q-110 2 -194 -53q-97 -64 -97 -170q0 -58 29 -88q-104 2 -104 86q0 35 36 80q146 174 373 174q139 0 218 -80t77 -219zM1255 1141zM354 -196
q-38 -7 -53 -52q-2 -8 0 -23q3 -12 15 -22q20 -15 42.5 1t27.5 41q5 23 -2.5 41.5t-29.5 13.5zM1465 1232l-32 -16q-7 0 -7 14l-6 119q0 8 -8 8q-4 0 -10 -4q-60 -37 -80 -51q-92 -64 -102 -70q-9 0 -9 6q0 13 13 19q51 37 71 51q113 74 140 86q4 2 20 -2q8 0 8 -6
q0 -23 5.5 -67t5.5 -66q0 -17 -9 -21z" />
    <glyph glyph-name="uni1ED9" unicode="&#x1ed9;" horiz-adv-x="485" 
d="M781 375q0 -6 -8 -8q-111 -29 -164 -29h-41q-76 0 -127 14q-16 -155 -154 -289q-77 -75 -147 -75q-68 0 -68 63v6q0 144 224 320q28 22 61 39q0 4 6 10q41 29 45 29q12 0 15 -13q14 -80 221 -80q73 0 129 15q2 2 4 2q4 0 4 -4zM367 324v18q0 43 -18 43q-8 0 -29 -14
q-170 -125 -170 -305q0 -52 31 -52q18 0 45 19q141 98 141 291zM92 -137q-37 -7 -52 -52q-3 -8 0 -23q2 -12 15 -22q20 -15 42.5 1t27.5 41q5 23 -2.5 41.5t-30.5 13.5zM531 492l-28 -14q-5 0 -5 12l-5 102q0 7 -7 7q-4 0 -9 -4q-51 -31 -68 -44q-79 -54 -88 -59q-7 0 -7 5
q0 11 11 16q43 31 61 44q96 63 119 73q3 2 17 -2q7 0 7 -5q0 -19 4.5 -56.5t4.5 -57.5q0 -14 -7 -17z" />
    <glyph glyph-name="uni1EDA" unicode="&#x1eda;" horiz-adv-x="1445" 
d="M1255 1141zM1207 1229l7 8q46 36 139 104q32 21 59 40q6 4 11 2q6 -2 7 -11q4 -19 2 -27q-5 -7 -19 -15q-77 -47 -192 -111q-5 0 -9 1q-8 8 -5 9zM1528 956q17 -53 16 -118q-2 -70 -16 -125q-64 -234 -342 -498q-142 -133 -318 -217q-196 -94 -370 -92q-150 2 -250 69
q-115 80 -115 222q0 194 223 462q58 70 201 195q162 143 217 158q10 4 14 0q2 -4 -2 -13q-84 -45 -213 -170q-118 -112 -184 -202q-147 -203 -150 -391q0 -130 89 -209q81 -76 215 -80q151 -4 333 86q164 80 287 198q113 109 191 250q102 185 100 348q-2 119 -67.5 198
t-180.5 81q-110 2 -194 -53q-97 -64 -97 -170q0 -58 29 -88q-104 2 -104 86q0 35 36 80q146 174 373 174q139 0 218 -80q35 -36 54 -83q31 11 57 25q34 17 54 47t-6.5 44.5t-9.5 31.5t46 20t44 -22.5t-6 -59.5q-52 -73 -172 -104z" />
    <glyph glyph-name="uni1EDB" unicode="&#x1edb;" horiz-adv-x="485" 
d="M368 324v18q0 43 -19 43q-8 0 -28 -14q-170 -125 -170 -305q0 -52 31 -52q18 0 45 19q141 98 141 291zM390 515l8 8q46 36 138 104q32 21 59 40q6 4 12 2t7 -11q4 -19 1 -27q-5 -7 -19 -15q-76 -47 -192 -111q-4 0 -8 1q-9 8 -6 9zM496 378q55 -16 148 -16q74 0 129 15
q2 2 5 2q4 0 4 -4q0 -6 -9 -8q-110 -29 -163 -29h-41q-76 0 -127 14q-17 -155 -154 -289q-78 -75 -147 -75q-68 0 -68 63v6q0 144 223 320q29 22 62 39q0 4 6 10q41 29 45 29q12 0 14 -13q6 -34 47 -53q3 1 6 3q28 14 44.5 38.5t-5.5 36.5t-8 26t38 16t36 -18.5t-5 -48.5
q-28 -39 -80 -64z" />
    <glyph glyph-name="uni1EDC" unicode="&#x1edc;" horiz-adv-x="1445" 
d="M1255 1141zM1178 1220q-4 -1 -8 -1q-116 64 -192 111q-14 8 -19 15q-3 8 1 27q1 9 7 11t12 -2q27 -19 59 -40q92 -68 139 -104l7 -8q3 -1 -6 -9zM1528 956q17 -53 16 -118q-2 -70 -16 -125q-64 -234 -342 -498q-142 -133 -318 -217q-196 -94 -370 -92q-150 2 -250 69
q-115 80 -115 222q0 194 223 462q58 70 201 195q162 143 217 158q10 4 14 0q2 -4 -2 -13q-84 -45 -213 -170q-118 -112 -184 -202q-147 -203 -150 -391q0 -130 89 -209q81 -76 215 -80q151 -4 333 86q164 80 287 198q113 109 191 250q102 185 100 348q-2 119 -67.5 198
t-180.5 81q-110 2 -194 -53q-97 -64 -97 -170q0 -58 29 -88q-104 2 -104 86q0 35 36 80q146 174 373 174q139 0 218 -80q35 -36 54 -83q31 11 57 25q34 17 54 47t-6.5 44.5t-9.5 31.5t46 20t44 -22.5t-6 -59.5q-52 -73 -172 -104z" />
    <glyph glyph-name="uni1EDD" unicode="&#x1edd;" horiz-adv-x="485" 
d="M368 324v18q0 43 -19 43q-8 0 -28 -14q-170 -125 -170 -305q0 -52 31 -52q18 0 45 19q141 98 141 291zM491 506q-4 -1 -9 -1q-115 64 -192 111q-14 8 -18 15q-3 8 1 27q1 9 7 11t12 -2q26 -19 58 -40q93 -68 139 -104l8 -8q2 -1 -6 -9zM496 378q55 -16 148 -16
q74 0 129 15q2 2 5 2q4 0 4 -4q0 -6 -9 -8q-110 -29 -163 -29h-41q-76 0 -127 14q-17 -155 -154 -289q-78 -75 -147 -75q-68 0 -68 63v6q0 144 223 320q29 22 62 39q0 4 6 10q41 29 45 29q12 0 14 -13q6 -34 47 -53q3 1 6 3q28 14 44.5 38.5t-5.5 36.5t-8 26t38 16t36 -18.5
t-5 -48.5q-28 -39 -80 -64z" />
    <glyph glyph-name="uni1EDE" unicode="&#x1ede;" horiz-adv-x="1445" 
d="M1255 1141zM1191 1258q-3 4 -3 7t3 8q17 27 78 67q79 51 89 59q34 29 34 63q0 48 -60 48q-28 0 -61 -16t-54 -36q0 -4 -9 -4h-9q14 40 12.5 35t10.5 5q43 32 101 32q95 0 95 -71q0 -57 -92 -122q-19 -14 -69 -51q-31 -23 -31 -63l1 -16l-21 10q-4 27 -15 45zM1528 956
q17 -53 16 -118q-2 -70 -16 -125q-64 -234 -342 -498q-142 -133 -318 -217q-196 -94 -370 -92q-150 2 -250 69q-115 80 -115 222q0 194 223 462q58 70 201 195q162 143 217 158q10 4 14 0q2 -4 -2 -13q-84 -45 -213 -170q-118 -112 -184 -202q-147 -203 -150 -391
q0 -130 89 -209q81 -76 215 -80q151 -4 333 86q164 80 287 198q113 109 191 250q102 185 100 348q-2 119 -67.5 198t-180.5 81q-110 2 -194 -53q-97 -64 -97 -170q0 -58 29 -88q-104 2 -104 86q0 35 36 80q146 174 373 174q139 0 218 -80q35 -36 54 -83q31 11 57 25
q34 17 54 47t-6.5 44.5t-9.5 31.5t46 20t44 -22.5t-6 -59.5q-52 -73 -172 -104z" />
    <glyph glyph-name="uni1EDF" unicode="&#x1edf;" horiz-adv-x="485" 
d="M368 324v18q0 43 -19 43q-8 0 -28 -14q-170 -125 -170 -305q0 -52 31 -52q18 0 45 19q141 98 141 291zM435 554q-2 4 -2 7t2 8q18 27 79 67q79 51 88 59q35 29 35 63q0 48 -60 48q-28 0 -61 -16t-54 -36q0 -4 -9 -4h-9q14 40 12 35t11 5q43 32 101 32q95 0 95 -71
q0 -57 -92 -122q-20 -14 -70 -51q-30 -23 -30 -63l1 -16l-21 10q-5 27 -16 45zM496 378q55 -16 148 -16q74 0 129 15q2 2 5 2q4 0 4 -4q0 -6 -9 -8q-110 -29 -163 -29h-41q-76 0 -127 14q-17 -155 -154 -289q-78 -75 -147 -75q-68 0 -68 63v6q0 144 223 320q29 22 62 39
q0 4 6 10q41 29 45 29q12 0 14 -13q6 -34 47 -53q3 1 6 3q28 14 44.5 38.5t-5.5 36.5t-8 26t38 16t36 -18.5t-5 -48.5q-28 -39 -80 -64z" />
    <glyph glyph-name="uni1EE0" unicode="&#x1ee0;" horiz-adv-x="1445" 
d="M1255 1141zM1468 1331v3q0 8 -7 8q-10 0 -10 -11q0 -23 -21.5 -43.5t-52.5 -20.5q-37 0 -88 38l-37 28q-23 18 -50 18q-31 0 -107 -52q-27 -19 -45 -37q-6 -7 -6 -12q0 -4 6 -4q8 0 14 7q66 68 113 68q27 0 72 -34q62 -47 103 -47q50 0 93 44q12 12 16 24zM1528 956
q17 -53 16 -118q-2 -70 -16 -125q-64 -234 -342 -498q-142 -133 -318 -217q-196 -94 -370 -92q-150 2 -250 69q-115 80 -115 222q0 194 223 462q58 70 201 195q162 143 217 158q10 4 14 0q2 -4 -2 -13q-84 -45 -213 -170q-118 -112 -184 -202q-147 -203 -150 -391
q0 -130 89 -209q81 -76 215 -80q151 -4 333 86q164 80 287 198q113 109 191 250q102 185 100 348q-2 119 -67.5 198t-180.5 81q-110 2 -194 -53q-97 -64 -97 -170q0 -58 29 -88q-104 2 -104 86q0 35 36 80q146 174 373 174q139 0 218 -80q35 -36 54 -83q31 11 57 25
q34 17 54 47t-6.5 44.5t-9.5 31.5t46 20t44 -22.5t-6 -59.5q-52 -73 -172 -104z" />
    <glyph glyph-name="uni1EE1" unicode="&#x1ee1;" horiz-adv-x="485" 
d="M368 324v18q0 43 -19 43q-8 0 -28 -14q-170 -125 -170 -305q0 -52 31 -52q18 0 45 19q141 98 141 291zM712 617v3q0 8 -8 8q-10 0 -10 -11q0 -23 -21 -43.5t-52 -20.5q-37 0 -88 38l-37 28q-23 18 -50 18q-32 0 -107 -52q-28 -19 -45 -37q-6 -7 -6 -12q0 -4 6 -4
q8 0 13 7q67 68 113 68q27 0 72 -34q62 -47 103 -47q51 0 94 44q11 12 15 24zM496 378q55 -16 148 -16q74 0 129 15q2 2 5 2q4 0 4 -4q0 -6 -9 -8q-110 -29 -163 -29h-41q-76 0 -127 14q-17 -155 -154 -289q-78 -75 -147 -75q-68 0 -68 63v6q0 144 223 320q29 22 62 39
q0 4 6 10q41 29 45 29q12 0 14 -13q6 -34 47 -53q3 1 6 3q28 14 44.5 38.5t-5.5 36.5t-8 26t38 16t36 -18.5t-5 -48.5q-28 -39 -80 -64z" />
    <glyph glyph-name="uni1EE2" unicode="&#x1ee2;" horiz-adv-x="1445" 
d="M1255 1141zM354 -196q-38 -7 -53 -52q-2 -8 0 -23q3 -12 15 -22q20 -15 42.5 1t27.5 41q5 23 -2.5 41.5t-29.5 13.5zM1528 956q17 -53 16 -118q-2 -70 -16 -125q-64 -234 -342 -498q-142 -133 -318 -217q-196 -94 -370 -92q-150 2 -250 69q-115 80 -115 222
q0 194 223 462q58 70 201 195q162 143 217 158q10 4 14 0q2 -4 -2 -13q-84 -45 -213 -170q-118 -112 -184 -202q-147 -203 -150 -391q0 -130 89 -209q81 -76 215 -80q151 -4 333 86q164 80 287 198q113 109 191 250q102 185 100 348q-2 119 -67.5 198t-180.5 81
q-110 2 -194 -53q-97 -64 -97 -170q0 -58 29 -88q-104 2 -104 86q0 35 36 80q146 174 373 174q139 0 218 -80q35 -36 54 -83q31 11 57 25q34 17 54 47t-6.5 44.5t-9.5 31.5t46 20t44 -22.5t-6 -59.5q-52 -73 -172 -104z" />
    <glyph glyph-name="uni1EE3" unicode="&#x1ee3;" horiz-adv-x="485" 
d="M367 324v18q0 43 -18 43q-8 0 -29 -14q-170 -125 -170 -305q0 -52 31 -52q18 0 45 19q141 98 141 291zM92 -137q-37 -7 -52 -52q-3 -8 0 -23q2 -12 15 -22q20 -15 42.5 1t27.5 41q5 23 -2.5 41.5t-30.5 13.5zM496 378q54 -16 148 -16q73 0 129 15q2 2 4 2q4 0 4 -4
q0 -6 -8 -8q-111 -29 -164 -29h-41q-76 0 -127 14q-16 -155 -154 -289q-77 -75 -147 -75q-68 0 -68 63v6q0 144 224 320q28 22 61 39q0 4 6 10q41 29 45 29q12 0 15 -13q6 -34 47 -54l6 4q28 14 44.5 38.5t-5.5 36.5t-8 26t38 16t36 -18.5t-5 -48.5q-28 -39 -80 -64z" />
    <glyph glyph-name="uni1EE4" unicode="&#x1ee4;" horiz-adv-x="1794" 
d="M1818 252q-198 -342 -401 -342q-125 0 -125 143q0 129 107 439l-60 -84q-86 -121 -209 -240q-190 -182 -372 -182q-84 0 -140.5 50t-56.5 132q0 141 121 324q94 141 383 430q-203 -13 -309 -25q-179 -20 -304 -63q-235 -80 -299 -302q-2 -8 -10 -8t-8 8q147 476 1014 476
q20 14 35 24q8 6 12 2t4 -8q0 -6 -4 -14q-543 -457 -543 -799q0 -78 49 -125t127 -47q115 0 279 139q61 53 170 182q114 140 139 201q98 240 197 420q61 113 127 113q32 0 30 -35q-2 -33 -12 -53q-92 12 -125 -35q-6 -8 -96 -230q-57 -141 -103 -307q-55 -200 -55 -315
q0 -152 90 -156q142 -6 336 299q8 6 12 4q5 -4 0 -16zM862 -196q-37 -7 -52 -52q-3 -8 0 -23q2 -12 15 -22q20 -15 42.5 1t27.5 41q5 23 -2.5 41.5t-30.5 13.5z" />
    <glyph glyph-name="uni1EE5" unicode="&#x1ee5;" horiz-adv-x="548" 
d="M747 209q0 -4 -4 -8q-174 -213 -318 -213q-98 0 -98 94q0 29 10 61q-53 -61 -88 -92q-63 -53 -104 -53q-33 0 -33 37q0 22 14 57q54 133 144 277q8 12 30 47q15 22 72 30q16 -6 16 -10q0 -20 -24 -45q-35 -33 -39 -41q-74 -121 -115 -225q-14 -37 -14 -53q0 -19 12 -19
q31 0 107 101q59 90 178 270q12 18 25 18q24 0 24 -36q0 -17 -12 -35q-139 -201 -139 -297q0 -58 61 -58q18 0 51 9q109 26 232 184q4 6 8 6t4 -6zM238 -100q-37 -7 -52 -52q-3 -8 0 -23q2 -12 15 -22q20 -15 42.5 1t27.5 41q5 23 -2.5 41.5t-30.5 13.5z" />
    <glyph glyph-name="uni1EE6" unicode="&#x1ee6;" horiz-adv-x="1794" 
d="M1818 252q-198 -342 -401 -342q-125 0 -125 143q0 129 107 439l-60 -84q-86 -121 -209 -240q-190 -182 -372 -182q-84 0 -140.5 50t-56.5 132q0 141 121 324q94 141 383 430q-203 -13 -309 -25q-179 -20 -304 -63q-235 -80 -299 -302q-2 -8 -10 -8t-8 8q147 476 1014 476
q20 14 35 24q8 6 12 2t4 -8q0 -6 -4 -14q-543 -457 -543 -799q0 -78 49 -125t127 -47q115 0 279 139q61 53 170 182q114 140 139 201q98 240 197 420q61 113 127 113q32 0 30 -35q-2 -33 -12 -53q-92 12 -125 -35q-6 -8 -96 -230q-57 -141 -103 -307q-55 -200 -55 -315
q0 -152 90 -156q142 -6 336 299q8 6 12 4q5 -4 0 -16zM1399 1228q-3 4 -3 7t2 8q18 27 79 67q79 51 89 59q34 29 34 63q0 48 -60 48q-28 0 -61 -16t-54 -36q0 -4 -9 -4h-9q14 40 12 35t11 5q43 32 101 32q95 0 95 -71q0 -57 -92 -122q-20 -14 -70 -51q-30 -23 -30 -63l1 -16
l-21 10q-4 27 -15 45z" />
    <glyph glyph-name="uni1EE7" unicode="&#x1ee7;" horiz-adv-x="548" 
d="M747 209q0 -4 -4 -8q-174 -213 -318 -213q-98 0 -98 94q0 29 10 61q-53 -61 -88 -92q-63 -53 -104 -53q-33 0 -33 37q0 22 14 57q54 133 144 277q8 12 30 47q15 22 72 30q16 -6 16 -10q0 -20 -24 -45q-35 -33 -39 -41q-74 -121 -115 -225q-14 -37 -14 -53q0 -19 12 -19
q31 0 107 101q59 90 178 270q12 18 25 18q24 0 24 -36q0 -17 -12 -35q-139 -201 -139 -297q0 -58 61 -58q18 0 51 9q109 26 232 184q4 6 8 6t4 -6zM444 554q-2 4 -2 7t2 8q18 27 79 67q79 51 88 59q35 29 35 63q0 48 -60 48q-28 0 -61 -16t-54 -36q0 -4 -9 -4h-9
q14 40 12 35t11 5q43 32 101 32q95 0 95 -71q0 -57 -92 -122q-20 -14 -70 -51q-30 -23 -30 -63l1 -16l-21 10q-5 27 -16 45z" />
    <glyph glyph-name="uni1EE8" unicode="&#x1ee8;" horiz-adv-x="1794" 
d="M1473 1229l8 8q46 36 139 104q32 21 58 40q6 4 12 2t7 -11q4 -19 1 -27q-4 -7 -18 -15q-77 -47 -192 -111q-5 0 -9 1q-8 8 -6 9zM1633 954q-11 -20 -95 -211q-57 -141 -103 -307q-55 -200 -55 -315q0 -152 90 -156q142 -6 336 299q8 6 12 4q5 -4 0 -16
q-198 -342 -401 -342q-125 0 -125 143q0 129 107 439l-60 -84q-86 -121 -209 -240q-190 -182 -372 -182q-84 0 -140.5 50t-56.5 132q0 141 121 324q94 141 383 430q-203 -13 -309 -25q-179 -20 -304 -63q-235 -80 -299 -302q-2 -8 -10 -8t-8 8q147 476 1014 476q20 14 35 24
q8 6 12 2t4 -8q0 -6 -4 -14q-543 -457 -543 -799q0 -78 49 -125t127 -47q115 0 279 139q61 53 170 182q114 140 139 201q98 240 197 420q42 84 84 72q-29 -36 -52 -76q23 9 43 20q34 17 54 47t-6.5 44.5t-9.5 31.5t46 20t44 -22.5t-6 -59.5q-54 -75 -178 -106z" />
    <glyph glyph-name="uni1EE9" unicode="&#x1ee9;" horiz-adv-x="548" 
d="M448 515l8 8q46 36 138 104q32 21 59 40q6 4 12 2t7 -11q4 -19 1 -27q-5 -7 -19 -15q-76 -47 -192 -111q-4 0 -8 1q-9 8 -6 9zM523 361q-132 -193 -132 -287q0 -58 61 -58q18 0 51 9q109 26 232 184q4 6 8 6t4 -6q0 -4 -4 -8q-174 -213 -318 -213q-98 0 -98 94
q0 29 10 61q-53 -61 -88 -92q-63 -53 -104 -53q-33 0 -33 37q0 22 14 57q54 133 144 277q8 12 30 47q15 22 72 30q16 -6 16 -10q0 -20 -24 -45q-35 -33 -39 -41q-74 -121 -115 -225q-14 -37 -14 -53q0 -19 12 -19q31 0 107 101q59 90 178 270q12 18 25 18q24 0 24 -36
q0 -10 -4 -19q5 2 10 5q28 14 44.5 38.5t-5.5 36.5t-8 26t38 16t36 -18.5t-5 -48.5q-39 -54 -125 -81z" />
    <glyph glyph-name="uni1EEA" unicode="&#x1eea;" horiz-adv-x="1794" 
d="M1465 1220q-4 -1 -8 -1q-116 64 -192 111q-14 8 -19 15q-3 8 1 27q1 9 7 11t12 -2q27 -19 59 -40q92 -68 138 -104l8 -8q3 -1 -6 -9zM1633 954q-11 -20 -95 -211q-57 -141 -103 -307q-55 -200 -55 -315q0 -152 90 -156q142 -6 336 299q8 6 12 4q5 -4 0 -16
q-198 -342 -401 -342q-125 0 -125 143q0 129 107 439l-60 -84q-86 -121 -209 -240q-190 -182 -372 -182q-84 0 -140.5 50t-56.5 132q0 141 121 324q94 141 383 430q-203 -13 -309 -25q-179 -20 -304 -63q-235 -80 -299 -302q-2 -8 -10 -8t-8 8q147 476 1014 476q20 14 35 24
q8 6 12 2t4 -8q0 -6 -4 -14q-543 -457 -543 -799q0 -78 49 -125t127 -47q115 0 279 139q61 53 170 182q114 140 139 201q98 240 197 420q42 84 84 72q-29 -36 -52 -76q23 9 43 20q34 17 54 47t-6.5 44.5t-9.5 31.5t46 20t44 -22.5t-6 -59.5q-54 -75 -178 -106z" />
    <glyph glyph-name="uni1EEB" unicode="&#x1eeb;" horiz-adv-x="548" 
d="M490 506q-4 -1 -9 -1q-115 64 -192 111q-14 8 -18 15q-3 8 1 27q1 9 7 11t12 -2q26 -19 58 -40q93 -68 139 -104l8 -8q2 -1 -6 -9zM523 361q-132 -193 -132 -287q0 -58 61 -58q18 0 51 9q109 26 232 184q4 6 8 6t4 -6q0 -4 -4 -8q-174 -213 -318 -213q-98 0 -98 94
q0 29 10 61q-53 -61 -88 -92q-63 -53 -104 -53q-33 0 -33 37q0 22 14 57q54 133 144 277q8 12 30 47q15 22 72 30q16 -6 16 -10q0 -20 -24 -45q-35 -33 -39 -41q-74 -121 -115 -225q-14 -37 -14 -53q0 -19 12 -19q31 0 107 101q59 90 178 270q12 18 25 18q24 0 24 -36
q0 -10 -4 -19q5 2 10 5q28 14 44.5 38.5t-5.5 36.5t-8 26t38 16t36 -18.5t-5 -48.5q-39 -54 -125 -81z" />
    <glyph glyph-name="uni1EEC" unicode="&#x1eec;" horiz-adv-x="1794" 
d="M1399 1228q-3 4 -3 7t2 8q18 27 79 67q79 51 89 59q34 29 34 63q0 48 -60 48q-28 0 -61 -16t-54 -36q0 -4 -9 -4h-9q14 40 12 35t11 5q43 32 101 32q95 0 95 -71q0 -57 -92 -122q-20 -14 -70 -51q-30 -23 -30 -63l1 -16l-21 10q-4 27 -15 45zM1633 954q-11 -20 -95 -211
q-57 -141 -103 -307q-55 -200 -55 -315q0 -152 90 -156q142 -6 336 299q8 6 12 4q5 -4 0 -16q-198 -342 -401 -342q-125 0 -125 143q0 129 107 439l-60 -84q-86 -121 -209 -240q-190 -182 -372 -182q-84 0 -140.5 50t-56.5 132q0 141 121 324q94 141 383 430
q-203 -13 -309 -25q-179 -20 -304 -63q-235 -80 -299 -302q-2 -8 -10 -8t-8 8q147 476 1014 476q20 14 35 24q8 6 12 2t4 -8q0 -6 -4 -14q-543 -457 -543 -799q0 -78 49 -125t127 -47q115 0 279 139q61 53 170 182q114 140 139 201q98 240 197 420q42 84 84 72
q-29 -36 -52 -76q23 9 43 20q34 17 54 47t-6.5 44.5t-9.5 31.5t46 20t44 -22.5t-6 -59.5q-54 -75 -178 -106z" />
    <glyph glyph-name="uni1EED" unicode="&#x1eed;" horiz-adv-x="548" 
d="M444 554q-2 4 -2 7t2 8q18 27 79 67q79 51 88 59q35 29 35 63q0 48 -60 48q-28 0 -61 -16t-54 -36q0 -4 -9 -4h-9q14 40 12 35t11 5q43 32 101 32q95 0 95 -71q0 -57 -92 -122q-20 -14 -70 -51q-30 -23 -30 -63l1 -16l-21 10q-5 27 -16 45zM523 361q-132 -193 -132 -287
q0 -58 61 -58q18 0 51 9q109 26 232 184q4 6 8 6t4 -6q0 -4 -4 -8q-174 -213 -318 -213q-98 0 -98 94q0 29 10 61q-53 -61 -88 -92q-63 -53 -104 -53q-33 0 -33 37q0 22 14 57q54 133 144 277q8 12 30 47q15 22 72 30q16 -6 16 -10q0 -20 -24 -45q-35 -33 -39 -41
q-74 -121 -115 -225q-14 -37 -14 -53q0 -19 12 -19q31 0 107 101q59 90 178 270q12 18 25 18q24 0 24 -36q0 -10 -4 -19q5 2 10 5q28 14 44.5 38.5t-5.5 36.5t-8 26t38 16t36 -18.5t-5 -48.5q-39 -54 -125 -81z" />
    <glyph glyph-name="uni1EEE" unicode="&#x1eee;" horiz-adv-x="1794" 
d="M1756 1331v3q0 8 -8 8q-9 0 -9 -11q0 -23 -21.5 -43.5t-52.5 -20.5q-37 0 -88 38l-37 28q-23 18 -50 18q-31 0 -107 -52q-28 -19 -45 -37q-6 -7 -6 -12q0 -4 6 -4q8 0 14 7q66 68 112 68q28 0 72 -34q63 -47 103 -47q51 0 94 44q11 12 15 24zM1633 954q-11 -20 -95 -211
q-57 -141 -103 -307q-55 -200 -55 -315q0 -152 90 -156q142 -6 336 299q8 6 12 4q5 -4 0 -16q-198 -342 -401 -342q-125 0 -125 143q0 129 107 439l-60 -84q-86 -121 -209 -240q-190 -182 -372 -182q-84 0 -140.5 50t-56.5 132q0 141 121 324q94 141 383 430
q-203 -13 -309 -25q-179 -20 -304 -63q-235 -80 -299 -302q-2 -8 -10 -8t-8 8q147 476 1014 476q20 14 35 24q8 6 12 2t4 -8q0 -6 -4 -14q-543 -457 -543 -799q0 -78 49 -125t127 -47q115 0 279 139q61 53 170 182q114 140 139 201q98 240 197 420q42 84 84 72
q-29 -36 -52 -76q23 9 43 20q34 17 54 47t-6.5 44.5t-9.5 31.5t46 20t44 -22.5t-6 -59.5q-54 -75 -178 -106z" />
    <glyph glyph-name="uni1EEF" unicode="&#x1eef;" horiz-adv-x="548" 
d="M711 617v3q0 8 -8 8q-10 0 -10 -11q0 -23 -21 -43.5t-52 -20.5q-37 0 -88 38l-37 28q-23 18 -50 18q-32 0 -107 -52q-28 -19 -45 -37q-6 -7 -6 -12q0 -4 6 -4q8 0 13 7q67 68 113 68q27 0 72 -34q62 -47 103 -47q51 0 94 44q11 12 15 24zM523 361q-132 -193 -132 -287
q0 -58 61 -58q18 0 51 9q109 26 232 184q4 6 8 6t4 -6q0 -4 -4 -8q-174 -213 -318 -213q-98 0 -98 94q0 29 10 61q-53 -61 -88 -92q-63 -53 -104 -53q-33 0 -33 37q0 22 14 57q54 133 144 277q8 12 30 47q15 22 72 30q16 -6 16 -10q0 -20 -24 -45q-35 -33 -39 -41
q-74 -121 -115 -225q-14 -37 -14 -53q0 -19 12 -19q31 0 107 101q59 90 178 270q12 18 25 18q24 0 24 -36q0 -10 -4 -19q5 2 10 5q28 14 44.5 38.5t-5.5 36.5t-8 26t38 16t36 -18.5t-5 -48.5q-39 -54 -125 -81z" />
    <glyph glyph-name="uni1EF0" unicode="&#x1ef0;" horiz-adv-x="1794" 
d="M862 -196q-37 -7 -52 -52q-3 -8 0 -23q2 -12 15 -22q20 -15 42.5 1t27.5 41q5 23 -2.5 41.5t-30.5 13.5zM1633 954q-11 -20 -95 -211q-57 -141 -103 -307q-55 -200 -55 -315q0 -152 90 -156q142 -6 336 299q8 6 12 4q5 -4 0 -16q-198 -342 -401 -342q-125 0 -125 143
q0 129 107 439l-60 -84q-86 -121 -209 -240q-190 -182 -372 -182q-84 0 -140.5 50t-56.5 132q0 141 121 324q94 141 383 430q-203 -13 -309 -25q-179 -20 -304 -63q-235 -80 -299 -302q-2 -8 -10 -8t-8 8q147 476 1014 476q20 14 35 24q8 6 12 2t4 -8q0 -6 -4 -14
q-543 -457 -543 -799q0 -78 49 -125t127 -47q115 0 279 139q61 53 170 182q114 140 139 201q98 240 197 420q42 84 84 72q-29 -36 -52 -76q23 9 43 20q34 17 54 47t-6.5 44.5t-9.5 31.5t46 20t44 -22.5t-6 -59.5q-54 -75 -178 -106z" />
    <glyph glyph-name="uni1EF1" unicode="&#x1ef1;" horiz-adv-x="548" 
d="M238 -100q-37 -7 -52 -52q-3 -8 0 -23q2 -12 15 -22q20 -15 42.5 1t27.5 41q5 23 -2.5 41.5t-30.5 13.5zM523 361q-132 -193 -132 -287q0 -58 61 -58q18 0 51 9q109 26 232 184q4 6 8 6t4 -6q0 -4 -4 -8q-174 -213 -318 -213q-98 0 -98 94q0 29 10 61q-53 -61 -88 -92
q-63 -53 -104 -53q-33 0 -33 37q0 22 14 57q54 133 144 277q8 12 30 47q15 22 72 30q16 -6 16 -10q0 -20 -24 -45q-35 -33 -39 -41q-74 -121 -115 -225q-14 -37 -14 -53q0 -19 12 -19q31 0 107 101q59 90 178 270q12 18 25 18q24 0 24 -36q0 -10 -4 -19q5 2 10 5
q28 14 44.5 38.5t-5.5 36.5t-8 26t38 16t36 -18.5t-5 -48.5q-39 -54 -125 -81z" />
    <glyph glyph-name="Ygrave" unicode="&#x1ef2;" horiz-adv-x="1380" 
d="M1566 1049q2 -19 -37 -70l-344 -371q-94 -100 -244 -323q-252 -375 -252 -609q0 -188 172 -188q23 0 64 12q6 -16 -51 -26q-43 -9 -72 -9q-86 0 -138.5 49.5t-52.5 135.5q0 149 211 495q62 101 244 351q-90 -56 -119 -70q-65 -31 -131 -29q-153 4 -153 244q0 190 -7 244
q-18 159 -124 159q-68 0 -259 -143l-8 -6q-6 -4 -12 2q2 6 8 14q221 187 357 187q73 0 102 -47q20 -35 22 -119q0 -76 5 -230q4 -110 20 -161q29 -99 109 -99q135 0 282 187q131 164 252 309q41 47 72 86q39 35 69 35q15 0 15 -10zM1117 1220q-4 -1 -8 -1q-116 64 -192 111
q-14 8 -19 15q-3 8 1 27q1 9 7 11t12 -2q27 -19 59 -40q92 -68 138 -104l8 -8q3 -1 -6 -9z" />
    <glyph glyph-name="ygrave" unicode="&#x1ef3;" horiz-adv-x="538" 
d="M654 498q0 -21 -25 -49q-86 -97 -299 -353q-313 -397 -449 -680q-110 -231 -110 -372v-13q0 -84 43 -125q22 -20 24 -24q0 -8 -6 -8t-10 4q-35 30 -82 64t-47 102v4q0 71 39 164q72 170 203 372q65 103 245 350q15 19 66 89q-55 -35 -76 -35q-16 0 -16 18q0 -2 41 158
q2 10 43 201q-2 14 12 38q10 7 33 7q35 0 35 -31q0 -12 -4 -25q-64 -186 -80 -284v-11q0 -14 10 -14q12 0 31 12l143 185q174 225 174 276q0 4 -3 9t-3 10q0 8 8 8q6 0 29.5 -14.5t27 -20.5t3.5 -12zM490 506q-4 -1 -9 -1q-115 64 -192 111q-14 8 -18 15q-3 8 1 27q1 9 7 11
t12 -2q26 -19 58 -40q93 -68 139 -104l8 -8q2 -1 -6 -9z" />
    <glyph glyph-name="uni1EF4" unicode="&#x1ef4;" horiz-adv-x="1380" 
d="M1566 1049q2 -19 -37 -70l-344 -371q-94 -100 -244 -323q-252 -375 -252 -609q0 -188 172 -188q23 0 64 12q6 -16 -51 -26q-43 -9 -72 -9q-86 0 -138.5 49.5t-52.5 135.5q0 149 211 495q62 101 244 351q-90 -56 -119 -70q-65 -31 -131 -29q-153 4 -153 244q0 190 -7 244
q-18 159 -124 159q-68 0 -259 -143l-8 -6q-6 -4 -12 2q2 6 8 14q221 187 357 187q73 0 102 -47q20 -35 22 -119q0 -76 5 -230q4 -110 20 -161q29 -99 109 -99q135 0 282 187q131 164 252 309q41 47 72 86q39 35 69 35q15 0 15 -10zM889 -196q-38 -7 -53 -52q-2 -8 0 -23
q3 -12 15 -22q20 -15 42.5 1t27.5 41q5 23 -2.5 41.5t-29.5 13.5z" />
    <glyph glyph-name="uni1EF5" unicode="&#x1ef5;" horiz-adv-x="538" 
d="M654 498q0 -21 -25 -49q-86 -97 -299 -353q-313 -397 -449 -680q-110 -231 -110 -372v-13q0 -84 43 -125q22 -20 24 -24q0 -8 -6 -8t-10 4q-35 30 -82 64t-47 102v4q0 71 39 164q72 170 203 372q65 103 245 350q15 19 66 89q-55 -35 -76 -35q-16 0 -16 18q0 -2 41 158
q2 10 43 201q-2 14 12 38q10 7 33 7q35 0 35 -31q0 -12 -4 -25q-64 -186 -80 -284v-11q0 -14 10 -14q12 0 31 12l143 185q174 225 174 276q0 4 -3 9t-3 10q0 8 8 8q6 0 29.5 -14.5t27 -20.5t3.5 -12zM292 -137q-37 -7 -52 -52q-3 -8 0 -23q2 -12 15 -22q20 -15 42.5 1
t27.5 41q5 23 -2.5 41.5t-30.5 13.5z" />
    <glyph glyph-name="uni1EF6" unicode="&#x1ef6;" horiz-adv-x="1380" 
d="M1566 1049q2 -19 -37 -70l-344 -371q-94 -100 -244 -323q-252 -375 -252 -609q0 -188 172 -188q23 0 64 12q6 -16 -51 -26q-43 -9 -72 -9q-86 0 -138.5 49.5t-52.5 135.5q0 149 211 495q62 101 244 351q-90 -56 -119 -70q-65 -31 -131 -29q-153 4 -153 244q0 190 -7 244
q-18 159 -124 159q-68 0 -259 -143l-8 -6q-6 -4 -12 2q2 6 8 14q221 187 357 187q73 0 102 -47q20 -35 22 -119q0 -76 5 -230q4 -110 20 -161q29 -99 109 -99q135 0 282 187q131 164 252 309q41 47 72 86q39 35 69 35q15 0 15 -10zM1110 1258q-3 4 -3 7t3 8q17 27 78 67
q79 51 89 59q34 29 34 63q0 48 -60 48q-27 0 -60.5 -16t-54.5 -36q0 -4 -9 -4h-9q14 40 12.5 35t10.5 5q43 32 101 32q95 0 95 -71q0 -57 -91 -122q-20 -14 -70 -51q-31 -23 -31 -63l1 -16l-21 10q-4 27 -15 45z" />
    <glyph glyph-name="uni1EF7" unicode="&#x1ef7;" horiz-adv-x="538" 
d="M654 498q0 -21 -25 -49q-86 -97 -299 -353q-313 -397 -449 -680q-110 -231 -110 -372v-13q0 -84 43 -125q22 -20 24 -24q0 -8 -6 -8t-10 4q-35 30 -82 64t-47 102v4q0 71 39 164q72 170 203 372q65 103 245 350q15 19 66 89q-55 -35 -76 -35q-16 0 -16 18q0 -2 41 158
q2 10 43 201q-2 14 12 38q10 7 33 7q35 0 35 -31q0 -12 -4 -25q-64 -186 -80 -284v-11q0 -14 10 -14q12 0 31 12l143 185q174 225 174 276q0 4 -3 9t-3 10q0 8 8 8q6 0 29.5 -14.5t27 -20.5t3.5 -12zM414 554q-2 4 -2 7t2 8q18 27 79 67q79 51 88 59q35 29 35 63
q0 48 -60 48q-28 0 -61 -16t-54 -36q0 -4 -9 -4h-9q14 40 12 35t11 5q43 32 101 32q95 0 95 -71q0 -57 -92 -122q-20 -14 -70 -51q-30 -23 -30 -63l1 -16l-21 10q-5 27 -16 45z" />
    <glyph glyph-name="uni1EF8" unicode="&#x1ef8;" horiz-adv-x="1380" 
d="M1566 1049q2 -19 -37 -70l-344 -371q-94 -100 -244 -323q-252 -375 -252 -609q0 -188 172 -188q23 0 64 12q6 -16 -51 -26q-43 -9 -72 -9q-86 0 -138.5 49.5t-52.5 135.5q0 149 211 495q62 101 244 351q-90 -56 -119 -70q-65 -31 -131 -29q-153 4 -153 244q0 190 -7 244
q-18 159 -124 159q-68 0 -259 -143l-8 -6q-6 -4 -12 2q2 6 8 14q221 187 357 187q73 0 102 -47q20 -35 22 -119q0 -76 5 -230q4 -110 20 -161q29 -99 109 -99q135 0 282 187q131 164 252 309q41 47 72 86q39 35 69 35q15 0 15 -10zM1368 1331v3q0 8 -7 8q-10 0 -10 -11
q0 -23 -21.5 -43.5t-52.5 -20.5q-37 0 -88 38l-37 28q-23 18 -50 18q-31 0 -107 -52q-27 -19 -45 -37q-6 -7 -6 -12q0 -4 6 -4q8 0 14 7q66 68 113 68q27 0 72 -34q62 -47 103 -47q50 0 93 44q12 12 16 24z" />
    <glyph glyph-name="uni1EF9" unicode="&#x1ef9;" horiz-adv-x="538" 
d="M654 498q0 -21 -25 -49q-86 -97 -299 -353q-313 -397 -449 -680q-110 -231 -110 -372v-13q0 -84 43 -125q22 -20 24 -24q0 -8 -6 -8t-10 4q-35 30 -82 64t-47 102v4q0 71 39 164q72 170 203 372q65 103 245 350q15 19 66 89q-55 -35 -76 -35q-16 0 -16 18q0 -2 41 158
q2 10 43 201q-2 14 12 38q10 7 33 7q35 0 35 -31q0 -12 -4 -25q-64 -186 -80 -284v-11q0 -14 10 -14q12 0 31 12l143 185q174 225 174 276q0 4 -3 9t-3 10q0 8 8 8q6 0 29.5 -14.5t27 -20.5t3.5 -12zM770 688v3q0 8 -8 8q-10 0 -10 -11q0 -23 -21 -43.5t-52 -20.5
q-37 0 -88 38l-37 28q-23 18 -50 18q-32 0 -107 -52q-28 -19 -45 -37q-6 -7 -6 -12q0 -4 6 -4q8 0 13 7q67 68 113 68q27 0 72 -34q62 -47 103 -47q51 0 94 44q11 12 15 24z" />
    <glyph glyph-name="quoteleft" unicode="&#x2018;" horiz-adv-x="430" 
d="M606 932q0 -4 -5 -8q-174 -156 -174 -299q0 -68 33 -93q6 -4 6 -14q0 -12 -21.5 -36.5t-33.5 -24.5q-6 0 -10 6q-31 39 -31 96q0 158 215 377q4 4 10 4q11 0 11 -8z" />
    <glyph glyph-name="quoteright" unicode="&#x2019;" horiz-adv-x="430" 
d="M555 838q0 -158 -216 -377q-4 -4 -10 -4q-10 0 -10 8q0 4 4 8q94 84 146 182q26 52 26 117q0 70 -31 92q-8 6 -8 15q0 12 43 55q6 6 13 6q8 0 12 -6q31 -39 31 -96z" />
    <glyph glyph-name="quotedblleft" unicode="&#x201c;" horiz-adv-x="528" 
d="M702 911q0 -4 -5 -8q-176 -158 -176 -303q0 -61 35 -88q6 -4 6 -14q0 -13 -21.5 -37.5t-33.5 -24.5q-6 0 -10 6q-31 39 -31 97q0 157 215 376q4 5 10 5q11 0 11 -9zM532 911q0 -4 -5 -8q-174 -155 -174 -303q0 -63 33 -88q6 -4 6 -14q0 -13 -21.5 -37.5t-33.5 -24.5
q-6 0 -10 6q-31 39 -31 97q0 157 215 376q4 5 10 5q11 0 11 -9z" />
    <glyph glyph-name="quotedblright" unicode="&#x201d;" horiz-adv-x="528" 
d="M686 838q0 -158 -216 -377q-4 -4 -10 -4q-10 0 -10 8q0 4 4 8q174 160 174 301q0 66 -33 90q-8 6 -8 15q0 12 43 55q6 6 12 6q9 0 13 -6q31 -39 31 -96zM516 838q0 -158 -216 -377q-4 -4 -10 -4q-10 0 -10 8q0 4 4 8q174 168 174 303q0 64 -33 88q-8 6 -8 15q0 12 43 55
q6 6 13 6q8 0 12 -6q31 -39 31 -96z" />
    <glyph glyph-name="ellipsis" unicode="&#x2026;" horiz-adv-x="1185" 
d="M1034 90q0 -29 -30.5 -64.5t-59.5 -35.5q-37 0 -37 30v7q0 36 26.5 67t63.5 31t37 -35zM667 90q0 -29 -30.5 -64.5t-59.5 -35.5q-37 0 -37 30v7q0 36 27 67t64 31q36 0 36 -35zM311 90q0 -27 -33 -63.5t-59 -36.5q-37 0 -37 30v7q0 36 26.5 67t63.5 31q39 0 39 -35z" />
    <glyph glyph-name="ugrave" horiz-adv-x="582" 
 />
    <glyph glyph-name="uacute" horiz-adv-x="580" 
 />
    <glyph glyph-name="yacute" horiz-adv-x="629" 
 />
    </font>
</defs>
</svg>
